ISO-10303-21;
HEADER;
/* Generated by software containing ST-Developer
 * from STEP Tools, Inc. (www.steptools.com) 
 */

FILE_DESCRIPTION(
/* description */ (''),
/* implementation_level */ '2;1');

FILE_NAME(
/* name */ 'PCB_Cover.stp',
/* time_stamp */ '2025-11-23T20:03:50+01:00',
/* author */ ('Wula'),
/* organization */ (''),
/* preprocessor_version */ 'ST-DEVELOPER v20',
/* originating_system */ 'Autodesk Inventor 2025',
/* authorisation */ '');

FILE_SCHEMA (('AUTOMOTIVE_DESIGN { 1 0 10303 214 3 1 1 }'));
ENDSEC;

DATA;
#10=MECHANICAL_DESIGN_GEOMETRIC_PRESENTATION_REPRESENTATION('',(#13),#864);
#11=SHAPE_REPRESENTATION_RELATIONSHIP('SRR','None',#871,#12);
#12=ADVANCED_BREP_SHAPE_REPRESENTATION('',(#14),#863);
#13=STYLED_ITEM('',(#880),#14);
#14=MANIFOLD_SOLID_BREP('Solid1',#491);
#15=FACE_BOUND('',#114,.T.);
#16=FACE_BOUND('',#115,.T.);
#17=FACE_BOUND('',#116,.T.);
#18=FACE_BOUND('',#117,.T.);
#19=FACE_BOUND('',#122,.T.);
#20=FACE_BOUND('',#126,.T.);
#21=FACE_BOUND('',#130,.T.);
#22=FACE_BOUND('',#134,.T.);
#23=FACE_BOUND('',#139,.T.);
#24=FACE_BOUND('',#140,.T.);
#25=FACE_BOUND('',#141,.T.);
#26=FACE_BOUND('',#142,.T.);
#27=CYLINDRICAL_SURFACE('',#530,4.);
#28=CYLINDRICAL_SURFACE('',#533,4.);
#29=CYLINDRICAL_SURFACE('',#542,4.);
#30=CYLINDRICAL_SURFACE('',#544,4.);
#31=CYLINDRICAL_SURFACE('',#549,6.75);
#32=CYLINDRICAL_SURFACE('',#550,3.25);
#33=CYLINDRICAL_SURFACE('',#555,6.75);
#34=CYLINDRICAL_SURFACE('',#556,3.25);
#35=CYLINDRICAL_SURFACE('',#561,6.75);
#36=CYLINDRICAL_SURFACE('',#562,3.25);
#37=CYLINDRICAL_SURFACE('',#567,6.75);
#38=CYLINDRICAL_SURFACE('',#568,3.25);
#39=CIRCLE('',#516,4.);
#40=CIRCLE('',#517,3.);
#41=CIRCLE('',#520,4.);
#42=CIRCLE('',#521,3.);
#43=CIRCLE('',#524,4.);
#44=CIRCLE('',#525,3.);
#45=CIRCLE('',#528,4.);
#46=CIRCLE('',#529,3.);
#47=CIRCLE('',#531,4.);
#48=CIRCLE('',#534,4.);
#49=CIRCLE('',#537,6.75);
#50=CIRCLE('',#538,6.75);
#51=CIRCLE('',#539,6.75);
#52=CIRCLE('',#540,6.75);
#53=CIRCLE('',#543,4.);
#54=CIRCLE('',#545,4.);
#55=CIRCLE('',#547,6.75);
#56=CIRCLE('',#548,3.25);
#57=CIRCLE('',#551,3.25);
#58=CIRCLE('',#553,6.75);
#59=CIRCLE('',#554,3.25);
#60=CIRCLE('',#557,3.25);
#61=CIRCLE('',#559,6.75);
#62=CIRCLE('',#560,3.25);
#63=CIRCLE('',#563,3.25);
#64=CIRCLE('',#565,6.75);
#65=CIRCLE('',#566,3.25);
#66=CIRCLE('',#569,3.25);
#67=CONICAL_SURFACE('',#515,3.5,0.785398163397448);
#68=CONICAL_SURFACE('',#519,3.5,0.785398163397447);
#69=CONICAL_SURFACE('',#523,3.5,0.785398163397448);
#70=CONICAL_SURFACE('',#527,3.5,0.785398163397448);
#71=FACE_OUTER_BOUND('',#101,.T.);
#72=FACE_OUTER_BOUND('',#102,.T.);
#73=FACE_OUTER_BOUND('',#103,.T.);
#74=FACE_OUTER_BOUND('',#104,.T.);
#75=FACE_OUTER_BOUND('',#105,.T.);
#76=FACE_OUTER_BOUND('',#106,.T.);
#77=FACE_OUTER_BOUND('',#107,.T.);
#78=FACE_OUTER_BOUND('',#108,.T.);
#79=FACE_OUTER_BOUND('',#109,.T.);
#80=FACE_OUTER_BOUND('',#110,.T.);
#81=FACE_OUTER_BOUND('',#111,.T.);
#82=FACE_OUTER_BOUND('',#112,.T.);
#83=FACE_OUTER_BOUND('',#113,.T.);
#84=FACE_OUTER_BOUND('',#118,.T.);
#85=FACE_OUTER_BOUND('',#119,.T.);
#86=FACE_OUTER_BOUND('',#120,.T.);
#87=FACE_OUTER_BOUND('',#121,.T.);
#88=FACE_OUTER_BOUND('',#123,.T.);
#89=FACE_OUTER_BOUND('',#124,.T.);
#90=FACE_OUTER_BOUND('',#125,.T.);
#91=FACE_OUTER_BOUND('',#127,.T.);
#92=FACE_OUTER_BOUND('',#128,.T.);
#93=FACE_OUTER_BOUND('',#129,.T.);
#94=FACE_OUTER_BOUND('',#131,.T.);
#95=FACE_OUTER_BOUND('',#132,.T.);
#96=FACE_OUTER_BOUND('',#133,.T.);
#97=FACE_OUTER_BOUND('',#135,.T.);
#98=FACE_OUTER_BOUND('',#136,.T.);
#99=FACE_OUTER_BOUND('',#137,.T.);
#100=FACE_OUTER_BOUND('',#138,.T.);
#101=EDGE_LOOP('',(#319,#320,#321,#322));
#102=EDGE_LOOP('',(#323,#324,#325,#326));
#103=EDGE_LOOP('',(#327,#328,#329,#330));
#104=EDGE_LOOP('',(#331,#332,#333,#334));
#105=EDGE_LOOP('',(#335,#336,#337,#338));
#106=EDGE_LOOP('',(#339,#340,#341,#342));
#107=EDGE_LOOP('',(#343,#344,#345,#346));
#108=EDGE_LOOP('',(#347,#348,#349,#350));
#109=EDGE_LOOP('',(#351,#352,#353,#354));
#110=EDGE_LOOP('',(#355,#356,#357,#358));
#111=EDGE_LOOP('',(#359,#360,#361,#362));
#112=EDGE_LOOP('',(#363,#364,#365,#366));
#113=EDGE_LOOP('',(#367,#368,#369,#370,#371,#372,#373,#374));
#114=EDGE_LOOP('',(#375));
#115=EDGE_LOOP('',(#376));
#116=EDGE_LOOP('',(#377));
#117=EDGE_LOOP('',(#378));
#118=EDGE_LOOP('',(#379,#380,#381,#382));
#119=EDGE_LOOP('',(#383,#384,#385,#386));
#120=EDGE_LOOP('',(#387,#388,#389,#390));
#121=EDGE_LOOP('',(#391));
#122=EDGE_LOOP('',(#392));
#123=EDGE_LOOP('',(#393,#394,#395,#396));
#124=EDGE_LOOP('',(#397,#398,#399,#400));
#125=EDGE_LOOP('',(#401));
#126=EDGE_LOOP('',(#402));
#127=EDGE_LOOP('',(#403,#404,#405,#406));
#128=EDGE_LOOP('',(#407,#408,#409,#410));
#129=EDGE_LOOP('',(#411));
#130=EDGE_LOOP('',(#412));
#131=EDGE_LOOP('',(#413,#414,#415,#416));
#132=EDGE_LOOP('',(#417,#418,#419,#420));
#133=EDGE_LOOP('',(#421));
#134=EDGE_LOOP('',(#422));
#135=EDGE_LOOP('',(#423,#424,#425,#426));
#136=EDGE_LOOP('',(#427,#428,#429,#430));
#137=EDGE_LOOP('',(#431,#432,#433,#434));
#138=EDGE_LOOP('',(#435,#436,#437,#438,#439,#440,#441,#442));
#139=EDGE_LOOP('',(#443));
#140=EDGE_LOOP('',(#444));
#141=EDGE_LOOP('',(#445));
#142=EDGE_LOOP('',(#446));
#143=LINE('',#730,#179);
#144=LINE('',#732,#180);
#145=LINE('',#734,#181);
#146=LINE('',#735,#182);
#147=LINE('',#739,#183);
#148=LINE('',#745,#184);
#149=LINE('',#746,#185);
#150=LINE('',#747,#186);
#151=LINE('',#751,#187);
#152=LINE('',#757,#188);
#153=LINE('',#758,#189);
#154=LINE('',#759,#190);
#155=LINE('',#763,#191);
#156=LINE('',#769,#192);
#157=LINE('',#770,#193);
#158=LINE('',#771,#194);
#159=LINE('',#777,#195);
#160=LINE('',#780,#196);
#161=LINE('',#783,#197);
#162=LINE('',#784,#198);
#163=LINE('',#787,#199);
#164=LINE('',#791,#200);
#165=LINE('',#792,#201);
#166=LINE('',#804,#202);
#167=LINE('',#805,#203);
#168=LINE('',#809,#204);
#169=LINE('',#812,#205);
#170=LINE('',#820,#206);
#171=LINE('',#823,#207);
#172=LINE('',#831,#208);
#173=LINE('',#834,#209);
#174=LINE('',#842,#210);
#175=LINE('',#845,#211);
#176=LINE('',#853,#212);
#177=LINE('',#856,#213);
#178=LINE('',#859,#214);
#179=VECTOR('',#576,10.);
#180=VECTOR('',#577,10.);
#181=VECTOR('',#578,10.);
#182=VECTOR('',#579,10.);
#183=VECTOR('',#582,10.);
#184=VECTOR('',#589,10.);
#185=VECTOR('',#590,10.);
#186=VECTOR('',#591,10.);
#187=VECTOR('',#594,10.);
#188=VECTOR('',#601,10.);
#189=VECTOR('',#602,10.);
#190=VECTOR('',#603,10.);
#191=VECTOR('',#606,10.);
#192=VECTOR('',#613,10.);
#193=VECTOR('',#614,10.);
#194=VECTOR('',#615,10.);
#195=VECTOR('',#624,10.);
#196=VECTOR('',#627,10.);
#197=VECTOR('',#630,10.);
#198=VECTOR('',#631,10.);
#199=VECTOR('',#634,10.);
#200=VECTOR('',#639,10.);
#201=VECTOR('',#640,10.);
#202=VECTOR('',#653,10.);
#203=VECTOR('',#654,10.);
#204=VECTOR('',#659,10.);
#205=VECTOR('',#662,10.);
#206=VECTOR('',#673,6.75);
#207=VECTOR('',#676,3.25);
#208=VECTOR('',#687,6.75);
#209=VECTOR('',#690,3.25);
#210=VECTOR('',#701,6.75);
#211=VECTOR('',#704,3.25);
#212=VECTOR('',#715,6.75);
#213=VECTOR('',#718,3.25);
#214=VECTOR('',#723,10.);
#215=VERTEX_POINT('',#728);
#216=VERTEX_POINT('',#729);
#217=VERTEX_POINT('',#731);
#218=VERTEX_POINT('',#733);
#219=VERTEX_POINT('',#737);
#220=VERTEX_POINT('',#738);
#221=VERTEX_POINT('',#743);
#222=VERTEX_POINT('',#744);
#223=VERTEX_POINT('',#749);
#224=VERTEX_POINT('',#750);
#225=VERTEX_POINT('',#755);
#226=VERTEX_POINT('',#756);
#227=VERTEX_POINT('',#761);
#228=VERTEX_POINT('',#762);
#229=VERTEX_POINT('',#767);
#230=VERTEX_POINT('',#768);
#231=VERTEX_POINT('',#776);
#232=VERTEX_POINT('',#778);
#233=VERTEX_POINT('',#782);
#234=VERTEX_POINT('',#786);
#235=VERTEX_POINT('',#790);
#236=VERTEX_POINT('',#794);
#237=VERTEX_POINT('',#796);
#238=VERTEX_POINT('',#798);
#239=VERTEX_POINT('',#800);
#240=VERTEX_POINT('',#803);
#241=VERTEX_POINT('',#807);
#242=VERTEX_POINT('',#811);
#243=VERTEX_POINT('',#815);
#244=VERTEX_POINT('',#817);
#245=VERTEX_POINT('',#822);
#246=VERTEX_POINT('',#826);
#247=VERTEX_POINT('',#828);
#248=VERTEX_POINT('',#833);
#249=VERTEX_POINT('',#837);
#250=VERTEX_POINT('',#839);
#251=VERTEX_POINT('',#844);
#252=VERTEX_POINT('',#848);
#253=VERTEX_POINT('',#850);
#254=VERTEX_POINT('',#855);
#255=EDGE_CURVE('',#215,#216,#143,.T.);
#256=EDGE_CURVE('',#216,#217,#144,.T.);
#257=EDGE_CURVE('',#217,#218,#145,.T.);
#258=EDGE_CURVE('',#218,#215,#146,.T.);
#259=EDGE_CURVE('',#219,#220,#147,.T.);
#260=EDGE_CURVE('',#220,#216,#39,.T.);
#261=EDGE_CURVE('',#215,#219,#40,.T.);
#262=EDGE_CURVE('',#221,#222,#148,.T.);
#263=EDGE_CURVE('',#222,#220,#149,.T.);
#264=EDGE_CURVE('',#219,#221,#150,.T.);
#265=EDGE_CURVE('',#223,#224,#151,.T.);
#266=EDGE_CURVE('',#224,#222,#41,.T.);
#267=EDGE_CURVE('',#221,#223,#42,.T.);
#268=EDGE_CURVE('',#225,#226,#152,.T.);
#269=EDGE_CURVE('',#226,#224,#153,.T.);
#270=EDGE_CURVE('',#223,#225,#154,.T.);
#271=EDGE_CURVE('',#227,#228,#155,.T.);
#272=EDGE_CURVE('',#228,#226,#43,.T.);
#273=EDGE_CURVE('',#225,#227,#44,.T.);
#274=EDGE_CURVE('',#229,#230,#156,.T.);
#275=EDGE_CURVE('',#230,#228,#157,.T.);
#276=EDGE_CURVE('',#227,#229,#158,.T.);
#277=EDGE_CURVE('',#217,#230,#45,.T.);
#278=EDGE_CURVE('',#229,#218,#46,.T.);
#279=EDGE_CURVE('',#228,#231,#159,.T.);
#280=EDGE_CURVE('',#231,#232,#47,.T.);
#281=EDGE_CURVE('',#232,#226,#160,.T.);
#282=EDGE_CURVE('',#233,#230,#161,.T.);
#283=EDGE_CURVE('',#231,#233,#162,.T.);
#284=EDGE_CURVE('',#217,#234,#163,.T.);
#285=EDGE_CURVE('',#234,#233,#48,.T.);
#286=EDGE_CURVE('',#235,#216,#164,.T.);
#287=EDGE_CURVE('',#234,#235,#165,.T.);
#288=EDGE_CURVE('',#236,#236,#49,.T.);
#289=EDGE_CURVE('',#237,#237,#50,.T.);
#290=EDGE_CURVE('',#238,#238,#51,.T.);
#291=EDGE_CURVE('',#239,#239,#52,.T.);
#292=EDGE_CURVE('',#240,#232,#166,.T.);
#293=EDGE_CURVE('',#224,#240,#167,.T.);
#294=EDGE_CURVE('',#240,#241,#53,.T.);
#295=EDGE_CURVE('',#241,#222,#168,.T.);
#296=EDGE_CURVE('',#220,#242,#169,.T.);
#297=EDGE_CURVE('',#242,#235,#54,.T.);
#298=EDGE_CURVE('',#243,#243,#55,.T.);
#299=EDGE_CURVE('',#244,#244,#56,.T.);
#300=EDGE_CURVE('',#239,#243,#170,.T.);
#301=EDGE_CURVE('',#244,#245,#171,.T.);
#302=EDGE_CURVE('',#245,#245,#57,.T.);
#303=EDGE_CURVE('',#246,#246,#58,.T.);
#304=EDGE_CURVE('',#247,#247,#59,.T.);
#305=EDGE_CURVE('',#238,#246,#172,.T.);
#306=EDGE_CURVE('',#247,#248,#173,.T.);
#307=EDGE_CURVE('',#248,#248,#60,.T.);
#308=EDGE_CURVE('',#249,#249,#61,.T.);
#309=EDGE_CURVE('',#250,#250,#62,.T.);
#310=EDGE_CURVE('',#237,#249,#174,.T.);
#311=EDGE_CURVE('',#250,#251,#175,.T.);
#312=EDGE_CURVE('',#251,#251,#63,.T.);
#313=EDGE_CURVE('',#252,#252,#64,.T.);
#314=EDGE_CURVE('',#253,#253,#65,.T.);
#315=EDGE_CURVE('',#236,#252,#176,.T.);
#316=EDGE_CURVE('',#253,#254,#177,.T.);
#317=EDGE_CURVE('',#254,#254,#66,.T.);
#318=EDGE_CURVE('',#242,#241,#178,.T.);
#319=ORIENTED_EDGE('',*,*,#255,.T.);
#320=ORIENTED_EDGE('',*,*,#256,.T.);
#321=ORIENTED_EDGE('',*,*,#257,.T.);
#322=ORIENTED_EDGE('',*,*,#258,.T.);
#323=ORIENTED_EDGE('',*,*,#259,.T.);
#324=ORIENTED_EDGE('',*,*,#260,.T.);
#325=ORIENTED_EDGE('',*,*,#255,.F.);
#326=ORIENTED_EDGE('',*,*,#261,.T.);
#327=ORIENTED_EDGE('',*,*,#262,.T.);
#328=ORIENTED_EDGE('',*,*,#263,.T.);
#329=ORIENTED_EDGE('',*,*,#259,.F.);
#330=ORIENTED_EDGE('',*,*,#264,.T.);
#331=ORIENTED_EDGE('',*,*,#265,.T.);
#332=ORIENTED_EDGE('',*,*,#266,.T.);
#333=ORIENTED_EDGE('',*,*,#262,.F.);
#334=ORIENTED_EDGE('',*,*,#267,.T.);
#335=ORIENTED_EDGE('',*,*,#268,.T.);
#336=ORIENTED_EDGE('',*,*,#269,.T.);
#337=ORIENTED_EDGE('',*,*,#265,.F.);
#338=ORIENTED_EDGE('',*,*,#270,.T.);
#339=ORIENTED_EDGE('',*,*,#271,.T.);
#340=ORIENTED_EDGE('',*,*,#272,.T.);
#341=ORIENTED_EDGE('',*,*,#268,.F.);
#342=ORIENTED_EDGE('',*,*,#273,.T.);
#343=ORIENTED_EDGE('',*,*,#274,.T.);
#344=ORIENTED_EDGE('',*,*,#275,.T.);
#345=ORIENTED_EDGE('',*,*,#271,.F.);
#346=ORIENTED_EDGE('',*,*,#276,.T.);
#347=ORIENTED_EDGE('',*,*,#257,.F.);
#348=ORIENTED_EDGE('',*,*,#277,.T.);
#349=ORIENTED_EDGE('',*,*,#274,.F.);
#350=ORIENTED_EDGE('',*,*,#278,.T.);
#351=ORIENTED_EDGE('',*,*,#272,.F.);
#352=ORIENTED_EDGE('',*,*,#279,.T.);
#353=ORIENTED_EDGE('',*,*,#280,.T.);
#354=ORIENTED_EDGE('',*,*,#281,.T.);
#355=ORIENTED_EDGE('',*,*,#275,.F.);
#356=ORIENTED_EDGE('',*,*,#282,.F.);
#357=ORIENTED_EDGE('',*,*,#283,.F.);
#358=ORIENTED_EDGE('',*,*,#279,.F.);
#359=ORIENTED_EDGE('',*,*,#277,.F.);
#360=ORIENTED_EDGE('',*,*,#284,.T.);
#361=ORIENTED_EDGE('',*,*,#285,.T.);
#362=ORIENTED_EDGE('',*,*,#282,.T.);
#363=ORIENTED_EDGE('',*,*,#256,.F.);
#364=ORIENTED_EDGE('',*,*,#286,.F.);
#365=ORIENTED_EDGE('',*,*,#287,.F.);
#366=ORIENTED_EDGE('',*,*,#284,.F.);
#367=ORIENTED_EDGE('',*,*,#258,.F.);
#368=ORIENTED_EDGE('',*,*,#278,.F.);
#369=ORIENTED_EDGE('',*,*,#276,.F.);
#370=ORIENTED_EDGE('',*,*,#273,.F.);
#371=ORIENTED_EDGE('',*,*,#270,.F.);
#372=ORIENTED_EDGE('',*,*,#267,.F.);
#373=ORIENTED_EDGE('',*,*,#264,.F.);
#374=ORIENTED_EDGE('',*,*,#261,.F.);
#375=ORIENTED_EDGE('',*,*,#288,.T.);
#376=ORIENTED_EDGE('',*,*,#289,.T.);
#377=ORIENTED_EDGE('',*,*,#290,.T.);
#378=ORIENTED_EDGE('',*,*,#291,.T.);
#379=ORIENTED_EDGE('',*,*,#269,.F.);
#380=ORIENTED_EDGE('',*,*,#281,.F.);
#381=ORIENTED_EDGE('',*,*,#292,.F.);
#382=ORIENTED_EDGE('',*,*,#293,.F.);
#383=ORIENTED_EDGE('',*,*,#266,.F.);
#384=ORIENTED_EDGE('',*,*,#293,.T.);
#385=ORIENTED_EDGE('',*,*,#294,.T.);
#386=ORIENTED_EDGE('',*,*,#295,.T.);
#387=ORIENTED_EDGE('',*,*,#260,.F.);
#388=ORIENTED_EDGE('',*,*,#296,.T.);
#389=ORIENTED_EDGE('',*,*,#297,.T.);
#390=ORIENTED_EDGE('',*,*,#286,.T.);
#391=ORIENTED_EDGE('',*,*,#298,.T.);
#392=ORIENTED_EDGE('',*,*,#299,.F.);
#393=ORIENTED_EDGE('',*,*,#291,.F.);
#394=ORIENTED_EDGE('',*,*,#300,.T.);
#395=ORIENTED_EDGE('',*,*,#298,.F.);
#396=ORIENTED_EDGE('',*,*,#300,.F.);
#397=ORIENTED_EDGE('',*,*,#299,.T.);
#398=ORIENTED_EDGE('',*,*,#301,.T.);
#399=ORIENTED_EDGE('',*,*,#302,.F.);
#400=ORIENTED_EDGE('',*,*,#301,.F.);
#401=ORIENTED_EDGE('',*,*,#303,.T.);
#402=ORIENTED_EDGE('',*,*,#304,.F.);
#403=ORIENTED_EDGE('',*,*,#290,.F.);
#404=ORIENTED_EDGE('',*,*,#305,.T.);
#405=ORIENTED_EDGE('',*,*,#303,.F.);
#406=ORIENTED_EDGE('',*,*,#305,.F.);
#407=ORIENTED_EDGE('',*,*,#304,.T.);
#408=ORIENTED_EDGE('',*,*,#306,.T.);
#409=ORIENTED_EDGE('',*,*,#307,.F.);
#410=ORIENTED_EDGE('',*,*,#306,.F.);
#411=ORIENTED_EDGE('',*,*,#308,.T.);
#412=ORIENTED_EDGE('',*,*,#309,.F.);
#413=ORIENTED_EDGE('',*,*,#289,.F.);
#414=ORIENTED_EDGE('',*,*,#310,.T.);
#415=ORIENTED_EDGE('',*,*,#308,.F.);
#416=ORIENTED_EDGE('',*,*,#310,.F.);
#417=ORIENTED_EDGE('',*,*,#309,.T.);
#418=ORIENTED_EDGE('',*,*,#311,.T.);
#419=ORIENTED_EDGE('',*,*,#312,.F.);
#420=ORIENTED_EDGE('',*,*,#311,.F.);
#421=ORIENTED_EDGE('',*,*,#313,.T.);
#422=ORIENTED_EDGE('',*,*,#314,.F.);
#423=ORIENTED_EDGE('',*,*,#288,.F.);
#424=ORIENTED_EDGE('',*,*,#315,.T.);
#425=ORIENTED_EDGE('',*,*,#313,.F.);
#426=ORIENTED_EDGE('',*,*,#315,.F.);
#427=ORIENTED_EDGE('',*,*,#314,.T.);
#428=ORIENTED_EDGE('',*,*,#316,.T.);
#429=ORIENTED_EDGE('',*,*,#317,.F.);
#430=ORIENTED_EDGE('',*,*,#316,.F.);
#431=ORIENTED_EDGE('',*,*,#263,.F.);
#432=ORIENTED_EDGE('',*,*,#295,.F.);
#433=ORIENTED_EDGE('',*,*,#318,.F.);
#434=ORIENTED_EDGE('',*,*,#296,.F.);
#435=ORIENTED_EDGE('',*,*,#285,.F.);
#436=ORIENTED_EDGE('',*,*,#287,.T.);
#437=ORIENTED_EDGE('',*,*,#297,.F.);
#438=ORIENTED_EDGE('',*,*,#318,.T.);
#439=ORIENTED_EDGE('',*,*,#294,.F.);
#440=ORIENTED_EDGE('',*,*,#292,.T.);
#441=ORIENTED_EDGE('',*,*,#280,.F.);
#442=ORIENTED_EDGE('',*,*,#283,.T.);
#443=ORIENTED_EDGE('',*,*,#302,.T.);
#444=ORIENTED_EDGE('',*,*,#307,.T.);
#445=ORIENTED_EDGE('',*,*,#312,.T.);
#446=ORIENTED_EDGE('',*,*,#317,.T.);
#447=PLANE('',#514);
#448=PLANE('',#518);
#449=PLANE('',#522);
#450=PLANE('',#526);
#451=PLANE('',#532);
#452=PLANE('',#535);
#453=PLANE('',#536);
#454=PLANE('',#541);
#455=PLANE('',#546);
#456=PLANE('',#552);
#457=PLANE('',#558);
#458=PLANE('',#564);
#459=PLANE('',#570);
#460=PLANE('',#571);
#461=ADVANCED_FACE('',(#71),#447,.T.);
#462=ADVANCED_FACE('',(#72),#67,.T.);
#463=ADVANCED_FACE('',(#73),#448,.T.);
#464=ADVANCED_FACE('',(#74),#68,.T.);
#465=ADVANCED_FACE('',(#75),#449,.T.);
#466=ADVANCED_FACE('',(#76),#69,.T.);
#467=ADVANCED_FACE('',(#77),#450,.T.);
#468=ADVANCED_FACE('',(#78),#70,.T.);
#469=ADVANCED_FACE('',(#79),#27,.T.);
#470=ADVANCED_FACE('',(#80),#451,.T.);
#471=ADVANCED_FACE('',(#81),#28,.T.);
#472=ADVANCED_FACE('',(#82),#452,.T.);
#473=ADVANCED_FACE('',(#83,#15,#16,#17,#18),#453,.F.);
#474=ADVANCED_FACE('',(#84),#454,.T.);
#475=ADVANCED_FACE('',(#85),#29,.T.);
#476=ADVANCED_FACE('',(#86),#30,.T.);
#477=ADVANCED_FACE('',(#87,#19),#455,.T.);
#478=ADVANCED_FACE('',(#88),#31,.F.);
#479=ADVANCED_FACE('',(#89),#32,.F.);
#480=ADVANCED_FACE('',(#90,#20),#456,.T.);
#481=ADVANCED_FACE('',(#91),#33,.F.);
#482=ADVANCED_FACE('',(#92),#34,.F.);
#483=ADVANCED_FACE('',(#93,#21),#457,.T.);
#484=ADVANCED_FACE('',(#94),#35,.F.);
#485=ADVANCED_FACE('',(#95),#36,.F.);
#486=ADVANCED_FACE('',(#96,#22),#458,.T.);
#487=ADVANCED_FACE('',(#97),#37,.F.);
#488=ADVANCED_FACE('',(#98),#38,.F.);
#489=ADVANCED_FACE('',(#99),#459,.T.);
#490=ADVANCED_FACE('',(#100,#23,#24,#25,#26),#460,.T.);
#491=CLOSED_SHELL('',(#461,#462,#463,#464,#465,#466,#467,#468,#469,#470,
#471,#472,#473,#474,#475,#476,#477,#478,#479,#480,#481,#482,#483,#484,#485,
#486,#487,#488,#489,#490));
#492=DERIVED_UNIT_ELEMENT(#495,1.);
#493=DERIVED_UNIT_ELEMENT(#866,-3.);
#494=DIMENSIONAL_EXPONENTS(0.,1.,0.,0.,0.,0.,0.);
#495=(
CONVERSION_BASED_UNIT('gram',#497)
MASS_UNIT()
NAMED_UNIT(#494)
);
#496=(
MASS_UNIT()
NAMED_UNIT(*)
SI_UNIT(.KILO.,.GRAM.)
);
#497=MASS_MEASURE_WITH_UNIT(MASS_MEASURE(0.001),#496);
#498=DERIVED_UNIT((#492,#493));
#499=MEASURE_REPRESENTATION_ITEM('density measure',
POSITIVE_RATIO_MEASURE(1.),#498);
#500=PROPERTY_DEFINITION_REPRESENTATION(#505,#502);
#501=PROPERTY_DEFINITION_REPRESENTATION(#506,#503);
#502=REPRESENTATION('material name',(#504),#863);
#503=REPRESENTATION('density',(#499),#863);
#504=DESCRIPTIVE_REPRESENTATION_ITEM('Generic','Generic');
#505=PROPERTY_DEFINITION('material property','material name',#873);
#506=PROPERTY_DEFINITION('material property','density of part',#873);
#507=DATE_TIME_ROLE('creation_date');
#508=APPLIED_DATE_AND_TIME_ASSIGNMENT(#509,#507,(#873));
#509=DATE_AND_TIME(#510,#511);
#510=CALENDAR_DATE(2025,23,11);
#511=LOCAL_TIME(0,0,0.,#512);
#512=COORDINATED_UNIVERSAL_TIME_OFFSET(0,0,.BEHIND.);
#513=AXIS2_PLACEMENT_3D('',#726,#572,#573);
#514=AXIS2_PLACEMENT_3D('',#727,#574,#575);
#515=AXIS2_PLACEMENT_3D('',#736,#580,#581);
#516=AXIS2_PLACEMENT_3D('',#740,#583,#584);
#517=AXIS2_PLACEMENT_3D('',#741,#585,#586);
#518=AXIS2_PLACEMENT_3D('',#742,#587,#588);
#519=AXIS2_PLACEMENT_3D('',#748,#592,#593);
#520=AXIS2_PLACEMENT_3D('',#752,#595,#596);
#521=AXIS2_PLACEMENT_3D('',#753,#597,#598);
#522=AXIS2_PLACEMENT_3D('',#754,#599,#600);
#523=AXIS2_PLACEMENT_3D('',#760,#604,#605);
#524=AXIS2_PLACEMENT_3D('',#764,#607,#608);
#525=AXIS2_PLACEMENT_3D('',#765,#609,#610);
#526=AXIS2_PLACEMENT_3D('',#766,#611,#612);
#527=AXIS2_PLACEMENT_3D('',#772,#616,#617);
#528=AXIS2_PLACEMENT_3D('',#773,#618,#619);
#529=AXIS2_PLACEMENT_3D('',#774,#620,#621);
#530=AXIS2_PLACEMENT_3D('',#775,#622,#623);
#531=AXIS2_PLACEMENT_3D('',#779,#625,#626);
#532=AXIS2_PLACEMENT_3D('',#781,#628,#629);
#533=AXIS2_PLACEMENT_3D('',#785,#632,#633);
#534=AXIS2_PLACEMENT_3D('',#788,#635,#636);
#535=AXIS2_PLACEMENT_3D('',#789,#637,#638);
#536=AXIS2_PLACEMENT_3D('',#793,#641,#642);
#537=AXIS2_PLACEMENT_3D('',#795,#643,#644);
#538=AXIS2_PLACEMENT_3D('',#797,#645,#646);
#539=AXIS2_PLACEMENT_3D('',#799,#647,#648);
#540=AXIS2_PLACEMENT_3D('',#801,#649,#650);
#541=AXIS2_PLACEMENT_3D('',#802,#651,#652);
#542=AXIS2_PLACEMENT_3D('',#806,#655,#656);
#543=AXIS2_PLACEMENT_3D('',#808,#657,#658);
#544=AXIS2_PLACEMENT_3D('',#810,#660,#661);
#545=AXIS2_PLACEMENT_3D('',#813,#663,#664);
#546=AXIS2_PLACEMENT_3D('',#814,#665,#666);
#547=AXIS2_PLACEMENT_3D('',#816,#667,#668);
#548=AXIS2_PLACEMENT_3D('',#818,#669,#670);
#549=AXIS2_PLACEMENT_3D('',#819,#671,#672);
#550=AXIS2_PLACEMENT_3D('',#821,#674,#675);
#551=AXIS2_PLACEMENT_3D('',#824,#677,#678);
#552=AXIS2_PLACEMENT_3D('',#825,#679,#680);
#553=AXIS2_PLACEMENT_3D('',#827,#681,#682);
#554=AXIS2_PLACEMENT_3D('',#829,#683,#684);
#555=AXIS2_PLACEMENT_3D('',#830,#685,#686);
#556=AXIS2_PLACEMENT_3D('',#832,#688,#689);
#557=AXIS2_PLACEMENT_3D('',#835,#691,#692);
#558=AXIS2_PLACEMENT_3D('',#836,#693,#694);
#559=AXIS2_PLACEMENT_3D('',#838,#695,#696);
#560=AXIS2_PLACEMENT_3D('',#840,#697,#698);
#561=AXIS2_PLACEMENT_3D('',#841,#699,#700);
#562=AXIS2_PLACEMENT_3D('',#843,#702,#703);
#563=AXIS2_PLACEMENT_3D('',#846,#705,#706);
#564=AXIS2_PLACEMENT_3D('',#847,#707,#708);
#565=AXIS2_PLACEMENT_3D('',#849,#709,#710);
#566=AXIS2_PLACEMENT_3D('',#851,#711,#712);
#567=AXIS2_PLACEMENT_3D('',#852,#713,#714);
#568=AXIS2_PLACEMENT_3D('',#854,#716,#717);
#569=AXIS2_PLACEMENT_3D('',#857,#719,#720);
#570=AXIS2_PLACEMENT_3D('',#858,#721,#722);
#571=AXIS2_PLACEMENT_3D('',#860,#724,#725);
#572=DIRECTION('axis',(0.,0.,1.));
#573=DIRECTION('refdir',(1.,0.,0.));
#574=DIRECTION('center_axis',(-1.25607396694702E-16,-0.707106781186546,
0.707106781186549));
#575=DIRECTION('ref_axis',(1.,0.,1.77635683940025E-16));
#576=DIRECTION('',(0.,0.707106781186549,0.707106781186546));
#577=DIRECTION('',(-1.,0.,-1.77635683940025E-16));
#578=DIRECTION('',(0.,-0.707106781186552,-0.707106781186543));
#579=DIRECTION('',(1.,0.,1.77635683940025E-16));
#580=DIRECTION('center_axis',(0.,1.,0.));
#581=DIRECTION('ref_axis',(0.707106781186548,0.,0.707106781186548));
#582=DIRECTION('',(0.707106781186546,0.707106781186549,0.));
#583=DIRECTION('center_axis',(0.,-1.,0.));
#584=DIRECTION('ref_axis',(0.707106781186548,0.,0.707106781186548));
#585=DIRECTION('center_axis',(0.,1.,0.));
#586=DIRECTION('ref_axis',(0.707106781186548,0.,0.707106781186548));
#587=DIRECTION('center_axis',(0.707106781186549,-0.707106781186546,-1.25607396694702E-16));
#588=DIRECTION('ref_axis',(-1.77635683940025E-16,0.,-1.));
#589=DIRECTION('',(0.707106781186546,0.707106781186549,-6.28036983473511E-15));
#590=DIRECTION('',(1.77635683940025E-16,0.,1.));
#591=DIRECTION('',(-1.77635683940025E-16,0.,-1.));
#592=DIRECTION('center_axis',(0.,1.,0.));
#593=DIRECTION('ref_axis',(0.707106781186546,0.,-0.707106781186549));
#594=DIRECTION('',(0.,0.707106781186549,-0.707106781186546));
#595=DIRECTION('center_axis',(0.,-1.,0.));
#596=DIRECTION('ref_axis',(0.707106781186546,0.,-0.707106781186549));
#597=DIRECTION('center_axis',(0.,1.,0.));
#598=DIRECTION('ref_axis',(0.707106781186546,0.,-0.707106781186549));
#599=DIRECTION('center_axis',(1.25607396694702E-16,-0.707106781186546,-0.707106781186549));
#600=DIRECTION('ref_axis',(-1.,0.,-1.77635683940025E-16));
#601=DIRECTION('',(6.28036983473511E-15,0.707106781186549,-0.707106781186546));
#602=DIRECTION('',(1.,0.,1.77635683940025E-16));
#603=DIRECTION('',(-1.,0.,-1.77635683940025E-16));
#604=DIRECTION('center_axis',(0.,1.,0.));
#605=DIRECTION('ref_axis',(-0.707106781186548,0.,-0.707106781186548));
#606=DIRECTION('',(-0.707106781186546,0.707106781186549,0.));
#607=DIRECTION('center_axis',(0.,-1.,0.));
#608=DIRECTION('ref_axis',(-0.707106781186548,0.,-0.707106781186548));
#609=DIRECTION('center_axis',(0.,1.,0.));
#610=DIRECTION('ref_axis',(-0.707106781186548,0.,-0.707106781186548));
#611=DIRECTION('center_axis',(-0.707106781186549,-0.707106781186546,8.37382644631348E-17));
#612=DIRECTION('ref_axis',(1.1842378929335E-16,0.,1.));
#613=DIRECTION('',(-0.707106781186546,0.707106781186549,6.28036983473511E-15));
#614=DIRECTION('',(-1.1842378929335E-16,0.,-1.));
#615=DIRECTION('',(1.1842378929335E-16,0.,1.));
#616=DIRECTION('center_axis',(0.,1.,0.));
#617=DIRECTION('ref_axis',(-0.707106781186548,0.,0.707106781186548));
#618=DIRECTION('center_axis',(0.,-1.,0.));
#619=DIRECTION('ref_axis',(-0.707106781186548,0.,0.707106781186548));
#620=DIRECTION('center_axis',(0.,1.,0.));
#621=DIRECTION('ref_axis',(-0.707106781186548,0.,0.707106781186548));
#622=DIRECTION('center_axis',(0.,1.,0.));
#623=DIRECTION('ref_axis',(-0.707106781186548,0.,-0.707106781186548));
#624=DIRECTION('',(0.,1.,0.));
#625=DIRECTION('center_axis',(0.,-1.,0.));
#626=DIRECTION('ref_axis',(-0.707106781186548,0.,-0.707106781186548));
#627=DIRECTION('',(0.,-1.,0.));
#628=DIRECTION('center_axis',(-1.,0.,1.1842378929335E-16));
#629=DIRECTION('ref_axis',(1.1842378929335E-16,0.,1.));
#630=DIRECTION('',(0.,-1.,0.));
#631=DIRECTION('',(1.1842378929335E-16,0.,1.));
#632=DIRECTION('center_axis',(0.,1.,0.));
#633=DIRECTION('ref_axis',(-0.707106781186548,0.,0.707106781186548));
#634=DIRECTION('',(0.,1.,0.));
#635=DIRECTION('center_axis',(0.,-1.,0.));
#636=DIRECTION('ref_axis',(-0.707106781186548,0.,0.707106781186548));
#637=DIRECTION('center_axis',(-1.77635683940025E-16,0.,1.));
#638=DIRECTION('ref_axis',(1.,0.,1.77635683940025E-16));
#639=DIRECTION('',(0.,-1.,0.));
#640=DIRECTION('',(1.,0.,1.77635683940025E-16));
#641=DIRECTION('center_axis',(0.,1.,0.));
#642=DIRECTION('ref_axis',(0.,0.,1.));
#643=DIRECTION('center_axis',(0.,1.,0.));
#644=DIRECTION('ref_axis',(1.,0.,0.));
#645=DIRECTION('center_axis',(0.,1.,0.));
#646=DIRECTION('ref_axis',(1.,0.,0.));
#647=DIRECTION('center_axis',(0.,1.,0.));
#648=DIRECTION('ref_axis',(1.,0.,0.));
#649=DIRECTION('center_axis',(0.,1.,0.));
#650=DIRECTION('ref_axis',(1.,0.,0.));
#651=DIRECTION('center_axis',(1.77635683940025E-16,0.,-1.));
#652=DIRECTION('ref_axis',(-1.,0.,-1.77635683940025E-16));
#653=DIRECTION('',(-1.,0.,-1.77635683940025E-16));
#654=DIRECTION('',(0.,1.,0.));
#655=DIRECTION('center_axis',(0.,1.,0.));
#656=DIRECTION('ref_axis',(0.707106781186546,0.,-0.707106781186549));
#657=DIRECTION('center_axis',(0.,-1.,0.));
#658=DIRECTION('ref_axis',(0.707106781186546,0.,-0.707106781186549));
#659=DIRECTION('',(0.,-1.,0.));
#660=DIRECTION('center_axis',(0.,1.,0.));
#661=DIRECTION('ref_axis',(0.707106781186548,0.,0.707106781186548));
#662=DIRECTION('',(0.,1.,0.));
#663=DIRECTION('center_axis',(0.,-1.,0.));
#664=DIRECTION('ref_axis',(0.707106781186548,0.,0.707106781186548));
#665=DIRECTION('center_axis',(0.,-1.,0.));
#666=DIRECTION('ref_axis',(1.,0.,0.));
#667=DIRECTION('center_axis',(0.,-1.,0.));
#668=DIRECTION('ref_axis',(1.,0.,0.));
#669=DIRECTION('center_axis',(0.,-1.,0.));
#670=DIRECTION('ref_axis',(1.,0.,0.));
#671=DIRECTION('center_axis',(0.,-1.,0.));
#672=DIRECTION('ref_axis',(1.,0.,0.));
#673=DIRECTION('',(0.,1.,0.));
#674=DIRECTION('center_axis',(0.,-1.,0.));
#675=DIRECTION('ref_axis',(1.,0.,0.));
#676=DIRECTION('',(0.,1.,0.));
#677=DIRECTION('center_axis',(0.,-1.,0.));
#678=DIRECTION('ref_axis',(1.,0.,0.));
#679=DIRECTION('center_axis',(0.,-1.,0.));
#680=DIRECTION('ref_axis',(1.,0.,0.));
#681=DIRECTION('center_axis',(0.,-1.,0.));
#682=DIRECTION('ref_axis',(1.,0.,0.));
#683=DIRECTION('center_axis',(0.,-1.,0.));
#684=DIRECTION('ref_axis',(1.,0.,0.));
#685=DIRECTION('center_axis',(0.,-1.,0.));
#686=DIRECTION('ref_axis',(1.,0.,0.));
#687=DIRECTION('',(0.,1.,0.));
#688=DIRECTION('center_axis',(0.,-1.,0.));
#689=DIRECTION('ref_axis',(1.,0.,0.));
#690=DIRECTION('',(0.,1.,0.));
#691=DIRECTION('center_axis',(0.,-1.,0.));
#692=DIRECTION('ref_axis',(1.,0.,0.));
#693=DIRECTION('center_axis',(0.,-1.,0.));
#694=DIRECTION('ref_axis',(1.,0.,0.));
#695=DIRECTION('center_axis',(0.,-1.,0.));
#696=DIRECTION('ref_axis',(1.,0.,0.));
#697=DIRECTION('center_axis',(0.,-1.,0.));
#698=DIRECTION('ref_axis',(1.,0.,0.));
#699=DIRECTION('center_axis',(0.,-1.,0.));
#700=DIRECTION('ref_axis',(1.,0.,0.));
#701=DIRECTION('',(0.,1.,0.));
#702=DIRECTION('center_axis',(0.,-1.,0.));
#703=DIRECTION('ref_axis',(1.,0.,0.));
#704=DIRECTION('',(0.,1.,0.));
#705=DIRECTION('center_axis',(0.,-1.,0.));
#706=DIRECTION('ref_axis',(1.,0.,0.));
#707=DIRECTION('center_axis',(0.,-1.,0.));
#708=DIRECTION('ref_axis',(1.,0.,0.));
#709=DIRECTION('center_axis',(0.,-1.,0.));
#710=DIRECTION('ref_axis',(1.,0.,0.));
#711=DIRECTION('center_axis',(0.,-1.,0.));
#712=DIRECTION('ref_axis',(1.,0.,0.));
#713=DIRECTION('center_axis',(0.,-1.,0.));
#714=DIRECTION('ref_axis',(1.,0.,0.));
#715=DIRECTION('',(0.,1.,0.));
#716=DIRECTION('center_axis',(0.,-1.,0.));
#717=DIRECTION('ref_axis',(1.,0.,0.));
#718=DIRECTION('',(0.,1.,0.));
#719=DIRECTION('center_axis',(0.,-1.,0.));
#720=DIRECTION('ref_axis',(1.,0.,0.));
#721=DIRECTION('center_axis',(1.,0.,-1.77635683940025E-16));
#722=DIRECTION('ref_axis',(-1.77635683940025E-16,0.,-1.));
#723=DIRECTION('',(-1.77635683940025E-16,0.,-1.));
#724=DIRECTION('center_axis',(0.,1.,0.));
#725=DIRECTION('ref_axis',(0.,0.,1.));
#726=CARTESIAN_POINT('',(0.,0.,0.));
#727=CARTESIAN_POINT('Origin',(-25.,0.5,74.5));
#728=CARTESIAN_POINT('',(46.,0.,74.));
#729=CARTESIAN_POINT('',(46.,1.,75.));
#730=CARTESIAN_POINT('',(46.,0.,74.));
#731=CARTESIAN_POINT('',(-46.,1.,75.));
#732=CARTESIAN_POINT('',(-25.,1.,75.));
#733=CARTESIAN_POINT('',(-46.,0.,74.));
#734=CARTESIAN_POINT('',(-46.,1.,75.));
#735=CARTESIAN_POINT('',(-25.,0.,74.));
#736=CARTESIAN_POINT('Origin',(46.,0.5,71.));
#737=CARTESIAN_POINT('',(49.,0.,71.));
#738=CARTESIAN_POINT('',(50.,1.,71.));
#739=CARTESIAN_POINT('',(49.,0.,71.));
#740=CARTESIAN_POINT('Origin',(46.,1.,71.));
#741=CARTESIAN_POINT('Origin',(46.,0.,71.));
#742=CARTESIAN_POINT('Origin',(49.5,0.5,37.5));
#743=CARTESIAN_POINT('',(49.,0.,-71.));
#744=CARTESIAN_POINT('',(50.,1.,-71.));
#745=CARTESIAN_POINT('',(49.,0.,-71.));
#746=CARTESIAN_POINT('',(50.,1.,37.5));
#747=CARTESIAN_POINT('',(49.,0.,37.5));
#748=CARTESIAN_POINT('Origin',(46.,0.5,-71.));
#749=CARTESIAN_POINT('',(46.,0.,-74.));
#750=CARTESIAN_POINT('',(46.,1.,-75.));
#751=CARTESIAN_POINT('',(46.,0.,-74.));
#752=CARTESIAN_POINT('Origin',(46.,1.,-71.));
#753=CARTESIAN_POINT('Origin',(46.,0.,-71.));
#754=CARTESIAN_POINT('Origin',(25.,0.5,-74.5));
#755=CARTESIAN_POINT('',(-46.,0.,-74.));
#756=CARTESIAN_POINT('',(-46.,1.,-75.));
#757=CARTESIAN_POINT('',(-46.,0.,-74.));
#758=CARTESIAN_POINT('',(25.,1.,-75.));
#759=CARTESIAN_POINT('',(25.,0.,-74.));
#760=CARTESIAN_POINT('Origin',(-46.,0.5,-71.));
#761=CARTESIAN_POINT('',(-49.,0.,-71.));
#762=CARTESIAN_POINT('',(-50.,1.,-71.));
#763=CARTESIAN_POINT('',(-49.,0.,-71.));
#764=CARTESIAN_POINT('Origin',(-46.,1.,-71.));
#765=CARTESIAN_POINT('Origin',(-46.,0.,-71.));
#766=CARTESIAN_POINT('Origin',(-49.5,0.5,-37.5));
#767=CARTESIAN_POINT('',(-49.,0.,71.));
#768=CARTESIAN_POINT('',(-50.,1.,71.));
#769=CARTESIAN_POINT('',(-49.,0.,71.));
#770=CARTESIAN_POINT('',(-50.,1.,-37.5));
#771=CARTESIAN_POINT('',(-49.,0.,-37.5));
#772=CARTESIAN_POINT('Origin',(-46.,0.5,71.));
#773=CARTESIAN_POINT('Origin',(-46.,1.,71.));
#774=CARTESIAN_POINT('Origin',(-46.,0.,71.));
#775=CARTESIAN_POINT('Origin',(-46.,0.,-71.));
#776=CARTESIAN_POINT('',(-50.,12.,-71.));
#777=CARTESIAN_POINT('',(-50.,0.,-71.));
#778=CARTESIAN_POINT('',(-46.,12.,-75.));
#779=CARTESIAN_POINT('Origin',(-46.,12.,-71.));
#780=CARTESIAN_POINT('',(-46.,0.,-75.));
#781=CARTESIAN_POINT('Origin',(-50.,0.,-75.));
#782=CARTESIAN_POINT('',(-50.,12.,71.));
#783=CARTESIAN_POINT('',(-50.,0.,71.));
#784=CARTESIAN_POINT('',(-50.,12.,-75.));
#785=CARTESIAN_POINT('Origin',(-46.,0.,71.));
#786=CARTESIAN_POINT('',(-46.,12.,75.));
#787=CARTESIAN_POINT('',(-46.,0.,75.));
#788=CARTESIAN_POINT('Origin',(-46.,12.,71.));
#789=CARTESIAN_POINT('Origin',(-50.,0.,75.));
#790=CARTESIAN_POINT('',(46.,12.,75.));
#791=CARTESIAN_POINT('',(46.,0.,75.));
#792=CARTESIAN_POINT('',(-50.,12.,75.));
#793=CARTESIAN_POINT('Origin',(4.44089209850063E-15,0.,0.));
#794=CARTESIAN_POINT('',(33.25,0.,65.));
#795=CARTESIAN_POINT('Origin',(40.,0.,65.));
#796=CARTESIAN_POINT('',(33.25,0.,-65.));
#797=CARTESIAN_POINT('Origin',(40.,0.,-65.));
#798=CARTESIAN_POINT('',(-46.75,0.,65.));
#799=CARTESIAN_POINT('Origin',(-40.,0.,65.));
#800=CARTESIAN_POINT('',(-46.75,0.,-65.));
#801=CARTESIAN_POINT('Origin',(-40.,0.,-65.));
#802=CARTESIAN_POINT('Origin',(50.,0.,-75.));
#803=CARTESIAN_POINT('',(46.,12.,-75.));
#804=CARTESIAN_POINT('',(50.,12.,-75.));
#805=CARTESIAN_POINT('',(46.,0.,-75.));
#806=CARTESIAN_POINT('Origin',(46.,0.,-71.));
#807=CARTESIAN_POINT('',(50.,12.,-71.));
#808=CARTESIAN_POINT('Origin',(46.,12.,-71.));
#809=CARTESIAN_POINT('',(50.,0.,-71.));
#810=CARTESIAN_POINT('Origin',(46.,0.,71.));
#811=CARTESIAN_POINT('',(50.,12.,71.));
#812=CARTESIAN_POINT('',(50.,0.,71.));
#813=CARTESIAN_POINT('Origin',(46.,12.,71.));
#814=CARTESIAN_POINT('Origin',(-40.,6.,-65.));
#815=CARTESIAN_POINT('',(-46.75,6.,-65.));
#816=CARTESIAN_POINT('Origin',(-40.,6.,-65.));
#817=CARTESIAN_POINT('',(-43.25,6.00000000000001,-65.));
#818=CARTESIAN_POINT('Origin',(-40.,6.00000000000001,-65.));
#819=CARTESIAN_POINT('Origin',(-40.,3.,-65.));
#820=CARTESIAN_POINT('',(-46.75,3.,-65.));
#821=CARTESIAN_POINT('Origin',(-40.,180.676506497109,-65.));
#822=CARTESIAN_POINT('',(-43.25,12.,-65.));
#823=CARTESIAN_POINT('',(-43.25,180.676506497109,-65.));
#824=CARTESIAN_POINT('Origin',(-40.,12.,-65.));
#825=CARTESIAN_POINT('Origin',(-40.,6.,65.));
#826=CARTESIAN_POINT('',(-46.75,6.,65.));
#827=CARTESIAN_POINT('Origin',(-40.,6.,65.));
#828=CARTESIAN_POINT('',(-43.25,6.00000000000001,65.));
#829=CARTESIAN_POINT('Origin',(-40.,6.00000000000001,65.));
#830=CARTESIAN_POINT('Origin',(-40.,3.,65.));
#831=CARTESIAN_POINT('',(-46.75,3.,65.));
#832=CARTESIAN_POINT('Origin',(-40.,180.676506497109,65.));
#833=CARTESIAN_POINT('',(-43.25,12.,65.));
#834=CARTESIAN_POINT('',(-43.25,180.676506497109,65.));
#835=CARTESIAN_POINT('Origin',(-40.,12.,65.));
#836=CARTESIAN_POINT('Origin',(40.,6.,-65.));
#837=CARTESIAN_POINT('',(33.25,6.,-65.));
#838=CARTESIAN_POINT('Origin',(40.,6.,-65.));
#839=CARTESIAN_POINT('',(36.75,6.00000000000001,-65.));
#840=CARTESIAN_POINT('Origin',(40.,6.00000000000001,-65.));
#841=CARTESIAN_POINT('Origin',(40.,3.,-65.));
#842=CARTESIAN_POINT('',(33.25,3.,-65.));
#843=CARTESIAN_POINT('Origin',(40.,180.676506497109,-65.));
#844=CARTESIAN_POINT('',(36.75,12.,-65.));
#845=CARTESIAN_POINT('',(36.75,180.676506497109,-65.));
#846=CARTESIAN_POINT('Origin',(40.,12.,-65.));
#847=CARTESIAN_POINT('Origin',(40.,6.,65.));
#848=CARTESIAN_POINT('',(33.25,6.,65.));
#849=CARTESIAN_POINT('Origin',(40.,6.,65.));
#850=CARTESIAN_POINT('',(36.75,6.00000000000001,65.));
#851=CARTESIAN_POINT('Origin',(40.,6.00000000000001,65.));
#852=CARTESIAN_POINT('Origin',(40.,3.,65.));
#853=CARTESIAN_POINT('',(33.25,3.,65.));
#854=CARTESIAN_POINT('Origin',(40.,180.676506497109,65.));
#855=CARTESIAN_POINT('',(36.75,12.,65.));
#856=CARTESIAN_POINT('',(36.75,180.676506497109,65.));
#857=CARTESIAN_POINT('Origin',(40.,12.,65.));
#858=CARTESIAN_POINT('Origin',(50.,0.,75.));
#859=CARTESIAN_POINT('',(50.,12.,75.));
#860=CARTESIAN_POINT('Origin',(8.88178419700125E-15,12.,0.));
#861=UNCERTAINTY_MEASURE_WITH_UNIT(LENGTH_MEASURE(0.01),#865,
'DISTANCE_ACCURACY_VALUE',
'Maximum model space distance between geometric entities at asserted c
onnectivities');
#862=UNCERTAINTY_MEASURE_WITH_UNIT(LENGTH_MEASURE(0.01),#865,
'DISTANCE_ACCURACY_VALUE',
'Maximum model space distance between geometric entities at asserted c
onnectivities');
#863=(
GEOMETRIC_REPRESENTATION_CONTEXT(3)
GLOBAL_UNCERTAINTY_ASSIGNED_CONTEXT((#861))
GLOBAL_UNIT_ASSIGNED_CONTEXT((#865,#867,#868))
REPRESENTATION_CONTEXT('','3D')
);
#864=(
GEOMETRIC_REPRESENTATION_CONTEXT(3)
GLOBAL_UNCERTAINTY_ASSIGNED_CONTEXT((#862))
GLOBAL_UNIT_ASSIGNED_CONTEXT((#865,#867,#868))
REPRESENTATION_CONTEXT('','3D')
);
#865=(
LENGTH_UNIT()
NAMED_UNIT(*)
SI_UNIT(.MILLI.,.METRE.)
);
#866=(
LENGTH_UNIT()
NAMED_UNIT(*)
SI_UNIT(.CENTI.,.METRE.)
);
#867=(
NAMED_UNIT(*)
PLANE_ANGLE_UNIT()
SI_UNIT($,.RADIAN.)
);
#868=(
NAMED_UNIT(*)
SI_UNIT($,.STERADIAN.)
SOLID_ANGLE_UNIT()
);
#869=SHAPE_DEFINITION_REPRESENTATION(#870,#871);
#870=PRODUCT_DEFINITION_SHAPE('',$,#873);
#871=SHAPE_REPRESENTATION('',(#513),#863);
#872=PRODUCT_DEFINITION_CONTEXT('part definition',#877,'design');
#873=PRODUCT_DEFINITION('PCB_Cover','PCB_Cover',#874,#872);
#874=PRODUCT_DEFINITION_FORMATION('',$,#879);
#875=PRODUCT_RELATED_PRODUCT_CATEGORY('PCB_Cover','PCB_Cover',(#879));
#876=APPLICATION_PROTOCOL_DEFINITION('international standard',
'automotive_design',2009,#877);
#877=APPLICATION_CONTEXT(
'Core Data for Automotive Mechanical Design Process');
#878=PRODUCT_CONTEXT('part definition',#877,'mechanical');
#879=PRODUCT('PCB_Cover','PCB_Cover',$,(#878));
#880=PRESENTATION_STYLE_ASSIGNMENT((#881));
#881=SURFACE_STYLE_USAGE(.BOTH.,#884);
#882=SURFACE_STYLE_RENDERING_WITH_PROPERTIES($,#888,(#883));
#883=SURFACE_STYLE_TRANSPARENT(0.);
#884=SURFACE_SIDE_STYLE('',(#885,#882));
#885=SURFACE_STYLE_FILL_AREA(#886);
#886=FILL_AREA_STYLE('',(#887));
#887=FILL_AREA_STYLE_COLOUR('',#888);
#888=COLOUR_RGB('',0.749019607843137,0.749019607843137,0.749019607843137);
ENDSEC;
END-ISO-10303-21;
