ISO-10303-21;
HEADER;
/* Generated by software containing ST-Developer
 * from STEP Tools, Inc. (www.steptools.com) 
 */

FILE_DESCRIPTION(
/* description */ (''),
/* implementation_level */ '2;1');

FILE_NAME(
/* name */ 'VL53L0X_cover.stp',
/* time_stamp */ '2025-11-23T20:03:19+01:00',
/* author */ ('Wula'),
/* organization */ (''),
/* preprocessor_version */ 'ST-DEVELOPER v20',
/* originating_system */ 'Autodesk Inventor 2025',
/* authorisation */ '');

FILE_SCHEMA (('AUTOMOTIVE_DESIGN { 1 0 10303 214 3 1 1 }'));
ENDSEC;

DATA;
#10=MECHANICAL_DESIGN_GEOMETRIC_PRESENTATION_REPRESENTATION('',(#17),#989);
#11=GEOMETRICALLY_BOUNDED_WIREFRAME_SHAPE_REPRESENTATION('',(#12,#13),#988);
#12=GEOMETRIC_CURVE_SET('Sketch1',(#984));
#13=GEOMETRIC_CURVE_SET('Sketch2',(#985));
#14=SHAPE_REPRESENTATION_RELATIONSHIP('SRR','None',#996,#16);
#15=SHAPE_REPRESENTATION_RELATIONSHIP('SRR','None',#996,#11);
#16=ADVANCED_BREP_SHAPE_REPRESENTATION('',(#18),#988);
#17=STYLED_ITEM('',(#1005),#18);
#18=MANIFOLD_SOLID_BREP('Solid1',#590);
#19=FACE_BOUND('',#92,.T.);
#20=FACE_BOUND('',#95,.T.);
#21=FACE_BOUND('',#102,.T.);
#22=FACE_BOUND('',#115,.T.);
#23=CYLINDRICAL_SURFACE('',#629,2.);
#24=CYLINDRICAL_SURFACE('',#632,2.);
#25=CYLINDRICAL_SURFACE('',#636,2.);
#26=CYLINDRICAL_SURFACE('',#641,2.);
#27=CYLINDRICAL_SURFACE('',#647,1.55);
#28=CIRCLE('',#615,2.);
#29=CIRCLE('',#616,0.999999999999999);
#30=CIRCLE('',#619,2.);
#31=CIRCLE('',#620,0.999999999999999);
#32=CIRCLE('',#623,2.);
#33=CIRCLE('',#624,1.);
#34=CIRCLE('',#627,2.);
#35=CIRCLE('',#628,0.999999999999999);
#36=CIRCLE('',#630,2.);
#37=CIRCLE('',#633,2.);
#38=CIRCLE('',#637,2.);
#39=CIRCLE('',#639,2.);
#40=CIRCLE('',#646,1.55);
#41=CIRCLE('',#648,1.55);
#42=CONICAL_SURFACE('',#614,1.5,0.785398163397449);
#43=CONICAL_SURFACE('',#618,1.5,0.785398163397449);
#44=CONICAL_SURFACE('',#622,1.5,0.785398163397448);
#45=CONICAL_SURFACE('',#626,1.5,0.785398163397449);
#46=FACE_OUTER_BOUND('',#79,.T.);
#47=FACE_OUTER_BOUND('',#80,.T.);
#48=FACE_OUTER_BOUND('',#81,.T.);
#49=FACE_OUTER_BOUND('',#82,.T.);
#50=FACE_OUTER_BOUND('',#83,.T.);
#51=FACE_OUTER_BOUND('',#84,.T.);
#52=FACE_OUTER_BOUND('',#85,.T.);
#53=FACE_OUTER_BOUND('',#86,.T.);
#54=FACE_OUTER_BOUND('',#87,.T.);
#55=FACE_OUTER_BOUND('',#88,.T.);
#56=FACE_OUTER_BOUND('',#89,.T.);
#57=FACE_OUTER_BOUND('',#90,.T.);
#58=FACE_OUTER_BOUND('',#91,.T.);
#59=FACE_OUTER_BOUND('',#93,.T.);
#60=FACE_OUTER_BOUND('',#94,.T.);
#61=FACE_OUTER_BOUND('',#96,.T.);
#62=FACE_OUTER_BOUND('',#97,.T.);
#63=FACE_OUTER_BOUND('',#98,.T.);
#64=FACE_OUTER_BOUND('',#99,.T.);
#65=FACE_OUTER_BOUND('',#100,.T.);
#66=FACE_OUTER_BOUND('',#101,.T.);
#67=FACE_OUTER_BOUND('',#103,.T.);
#68=FACE_OUTER_BOUND('',#104,.T.);
#69=FACE_OUTER_BOUND('',#105,.T.);
#70=FACE_OUTER_BOUND('',#106,.T.);
#71=FACE_OUTER_BOUND('',#107,.T.);
#72=FACE_OUTER_BOUND('',#108,.T.);
#73=FACE_OUTER_BOUND('',#109,.T.);
#74=FACE_OUTER_BOUND('',#110,.T.);
#75=FACE_OUTER_BOUND('',#111,.T.);
#76=FACE_OUTER_BOUND('',#112,.T.);
#77=FACE_OUTER_BOUND('',#113,.T.);
#78=FACE_OUTER_BOUND('',#114,.T.);
#79=EDGE_LOOP('',(#375,#376,#377,#378));
#80=EDGE_LOOP('',(#379,#380,#381,#382));
#81=EDGE_LOOP('',(#383,#384,#385,#386));
#82=EDGE_LOOP('',(#387,#388,#389,#390));
#83=EDGE_LOOP('',(#391,#392,#393,#394));
#84=EDGE_LOOP('',(#395,#396,#397,#398));
#85=EDGE_LOOP('',(#399,#400,#401,#402));
#86=EDGE_LOOP('',(#403,#404,#405,#406));
#87=EDGE_LOOP('',(#407,#408,#409,#410));
#88=EDGE_LOOP('',(#411,#412,#413,#414));
#89=EDGE_LOOP('',(#415,#416,#417,#418));
#90=EDGE_LOOP('',(#419,#420,#421,#422));
#91=EDGE_LOOP('',(#423,#424,#425,#426,#427,#428,#429,#430));
#92=EDGE_LOOP('',(#431,#432,#433,#434));
#93=EDGE_LOOP('',(#435,#436,#437,#438));
#94=EDGE_LOOP('',(#439,#440,#441,#442,#443,#444,#445,#446));
#95=EDGE_LOOP('',(#447,#448,#449,#450));
#96=EDGE_LOOP('',(#451,#452,#453,#454));
#97=EDGE_LOOP('',(#455,#456,#457,#458));
#98=EDGE_LOOP('',(#459,#460,#461,#462));
#99=EDGE_LOOP('',(#463,#464,#465,#466));
#100=EDGE_LOOP('',(#467,#468,#469,#470));
#101=EDGE_LOOP('',(#471,#472,#473,#474,#475,#476,#477,#478));
#102=EDGE_LOOP('',(#479));
#103=EDGE_LOOP('',(#480,#481,#482,#483));
#104=EDGE_LOOP('',(#484));
#105=EDGE_LOOP('',(#485,#486,#487,#488));
#106=EDGE_LOOP('',(#489,#490,#491,#492));
#107=EDGE_LOOP('',(#493,#494,#495,#496,#497,#498,#499,#500));
#108=EDGE_LOOP('',(#501,#502,#503,#504));
#109=EDGE_LOOP('',(#505,#506,#507,#508));
#110=EDGE_LOOP('',(#509,#510,#511,#512));
#111=EDGE_LOOP('',(#513,#514,#515,#516));
#112=EDGE_LOOP('',(#517,#518,#519,#520));
#113=EDGE_LOOP('',(#521,#522,#523,#524));
#114=EDGE_LOOP('',(#525,#526,#527,#528));
#115=EDGE_LOOP('',(#529,#530,#531,#532));
#116=LINE('',#825,#181);
#117=LINE('',#827,#182);
#118=LINE('',#829,#183);
#119=LINE('',#830,#184);
#120=LINE('',#835,#185);
#121=LINE('',#840,#186);
#122=LINE('',#841,#187);
#123=LINE('',#842,#188);
#124=LINE('',#847,#189);
#125=LINE('',#852,#190);
#126=LINE('',#853,#191);
#127=LINE('',#854,#192);
#128=LINE('',#859,#193);
#129=LINE('',#864,#194);
#130=LINE('',#865,#195);
#131=LINE('',#866,#196);
#132=LINE('',#872,#197);
#133=LINE('',#875,#198);
#134=LINE('',#878,#199);
#135=LINE('',#879,#200);
#136=LINE('',#882,#201);
#137=LINE('',#886,#202);
#138=LINE('',#887,#203);
#139=LINE('',#891,#204);
#140=LINE('',#893,#205);
#141=LINE('',#895,#206);
#142=LINE('',#896,#207);
#143=LINE('',#899,#208);
#144=LINE('',#902,#209);
#145=LINE('',#904,#210);
#146=LINE('',#907,#211);
#147=LINE('',#910,#212);
#148=LINE('',#912,#213);
#149=LINE('',#914,#214);
#150=LINE('',#915,#215);
#151=LINE('',#918,#216);
#152=LINE('',#922,#217);
#153=LINE('',#923,#218);
#154=LINE('',#924,#219);
#155=LINE('',#927,#220);
#156=LINE('',#928,#221);
#157=LINE('',#931,#222);
#158=LINE('',#932,#223);
#159=LINE('',#935,#224);
#160=LINE('',#937,#225);
#161=LINE('',#939,#226);
#162=LINE('',#941,#227);
#163=LINE('',#942,#228);
#164=LINE('',#948,#229);
#165=LINE('',#953,#230);
#166=LINE('',#955,#231);
#167=LINE('',#956,#232);
#168=LINE('',#959,#233);
#169=LINE('',#960,#234);
#170=LINE('',#963,#235);
#171=LINE('',#964,#236);
#172=LINE('',#966,#237);
#173=LINE('',#969,#238);
#174=LINE('',#971,#239);
#175=LINE('',#972,#240);
#176=LINE('',#975,#241);
#177=LINE('',#976,#242);
#178=LINE('',#979,#243);
#179=LINE('',#980,#244);
#180=LINE('',#982,#245);
#181=VECTOR('',#664,10.);
#182=VECTOR('',#665,10.);
#183=VECTOR('',#666,10.);
#184=VECTOR('',#667,10.);
#185=VECTOR('',#672,10.);
#186=VECTOR('',#677,10.);
#187=VECTOR('',#678,10.);
#188=VECTOR('',#679,10.);
#189=VECTOR('',#684,10.);
#190=VECTOR('',#689,10.);
#191=VECTOR('',#690,10.);
#192=VECTOR('',#691,10.);
#193=VECTOR('',#696,10.);
#194=VECTOR('',#701,10.);
#195=VECTOR('',#702,10.);
#196=VECTOR('',#703,10.);
#197=VECTOR('',#712,10.);
#198=VECTOR('',#715,10.);
#199=VECTOR('',#718,10.);
#200=VECTOR('',#719,10.);
#201=VECTOR('',#722,10.);
#202=VECTOR('',#727,10.);
#203=VECTOR('',#728,10.);
#204=VECTOR('',#731,10.);
#205=VECTOR('',#732,10.);
#206=VECTOR('',#733,10.);
#207=VECTOR('',#734,10.);
#208=VECTOR('',#737,10.);
#209=VECTOR('',#740,10.);
#210=VECTOR('',#743,10.);
#211=VECTOR('',#746,10.);
#212=VECTOR('',#747,10.);
#213=VECTOR('',#748,10.);
#214=VECTOR('',#749,10.);
#215=VECTOR('',#750,10.);
#216=VECTOR('',#755,10.);
#217=VECTOR('',#758,10.);
#218=VECTOR('',#759,10.);
#219=VECTOR('',#760,10.);
#220=VECTOR('',#763,10.);
#221=VECTOR('',#764,10.);
#222=VECTOR('',#767,10.);
#223=VECTOR('',#768,10.);
#224=VECTOR('',#771,10.);
#225=VECTOR('',#772,10.);
#226=VECTOR('',#773,10.);
#227=VECTOR('',#774,10.);
#228=VECTOR('',#775,10.);
#229=VECTOR('',#782,1.55);
#230=VECTOR('',#789,10.);
#231=VECTOR('',#790,10.);
#232=VECTOR('',#791,10.);
#233=VECTOR('',#794,10.);
#234=VECTOR('',#795,10.);
#235=VECTOR('',#798,10.);
#236=VECTOR('',#799,10.);
#237=VECTOR('',#802,10.);
#238=VECTOR('',#805,10.);
#239=VECTOR('',#806,10.);
#240=VECTOR('',#807,10.);
#241=VECTOR('',#810,10.);
#242=VECTOR('',#811,10.);
#243=VECTOR('',#814,10.);
#244=VECTOR('',#815,10.);
#245=VECTOR('',#818,10.);
#246=VERTEX_POINT('',#823);
#247=VERTEX_POINT('',#824);
#248=VERTEX_POINT('',#826);
#249=VERTEX_POINT('',#828);
#250=VERTEX_POINT('',#832);
#251=VERTEX_POINT('',#834);
#252=VERTEX_POINT('',#838);
#253=VERTEX_POINT('',#839);
#254=VERTEX_POINT('',#844);
#255=VERTEX_POINT('',#846);
#256=VERTEX_POINT('',#850);
#257=VERTEX_POINT('',#851);
#258=VERTEX_POINT('',#856);
#259=VERTEX_POINT('',#858);
#260=VERTEX_POINT('',#862);
#261=VERTEX_POINT('',#863);
#262=VERTEX_POINT('',#871);
#263=VERTEX_POINT('',#873);
#264=VERTEX_POINT('',#877);
#265=VERTEX_POINT('',#881);
#266=VERTEX_POINT('',#885);
#267=VERTEX_POINT('',#889);
#268=VERTEX_POINT('',#890);
#269=VERTEX_POINT('',#892);
#270=VERTEX_POINT('',#894);
#271=VERTEX_POINT('',#898);
#272=VERTEX_POINT('',#900);
#273=VERTEX_POINT('',#905);
#274=VERTEX_POINT('',#908);
#275=VERTEX_POINT('',#909);
#276=VERTEX_POINT('',#911);
#277=VERTEX_POINT('',#913);
#278=VERTEX_POINT('',#920);
#279=VERTEX_POINT('',#921);
#280=VERTEX_POINT('',#926);
#281=VERTEX_POINT('',#930);
#282=VERTEX_POINT('',#934);
#283=VERTEX_POINT('',#936);
#284=VERTEX_POINT('',#938);
#285=VERTEX_POINT('',#940);
#286=VERTEX_POINT('',#943);
#287=VERTEX_POINT('',#946);
#288=VERTEX_POINT('',#952);
#289=VERTEX_POINT('',#954);
#290=VERTEX_POINT('',#958);
#291=VERTEX_POINT('',#962);
#292=VERTEX_POINT('',#968);
#293=VERTEX_POINT('',#970);
#294=VERTEX_POINT('',#974);
#295=VERTEX_POINT('',#978);
#296=EDGE_CURVE('',#246,#247,#116,.T.);
#297=EDGE_CURVE('',#247,#248,#117,.T.);
#298=EDGE_CURVE('',#248,#249,#118,.T.);
#299=EDGE_CURVE('',#249,#246,#119,.T.);
#300=EDGE_CURVE('',#246,#250,#28,.T.);
#301=EDGE_CURVE('',#250,#251,#120,.T.);
#302=EDGE_CURVE('',#251,#247,#29,.T.);
#303=EDGE_CURVE('',#252,#253,#121,.T.);
#304=EDGE_CURVE('',#253,#251,#122,.T.);
#305=EDGE_CURVE('',#250,#252,#123,.T.);
#306=EDGE_CURVE('',#252,#254,#30,.T.);
#307=EDGE_CURVE('',#254,#255,#124,.T.);
#308=EDGE_CURVE('',#255,#253,#31,.T.);
#309=EDGE_CURVE('',#256,#257,#125,.T.);
#310=EDGE_CURVE('',#257,#255,#126,.T.);
#311=EDGE_CURVE('',#254,#256,#127,.T.);
#312=EDGE_CURVE('',#256,#258,#32,.T.);
#313=EDGE_CURVE('',#258,#259,#128,.T.);
#314=EDGE_CURVE('',#259,#257,#33,.T.);
#315=EDGE_CURVE('',#260,#261,#129,.T.);
#316=EDGE_CURVE('',#261,#259,#130,.T.);
#317=EDGE_CURVE('',#258,#260,#131,.T.);
#318=EDGE_CURVE('',#260,#249,#34,.T.);
#319=EDGE_CURVE('',#248,#261,#35,.T.);
#320=EDGE_CURVE('',#252,#262,#132,.T.);
#321=EDGE_CURVE('',#262,#263,#36,.T.);
#322=EDGE_CURVE('',#263,#254,#133,.T.);
#323=EDGE_CURVE('',#264,#250,#134,.T.);
#324=EDGE_CURVE('',#264,#262,#135,.T.);
#325=EDGE_CURVE('',#246,#265,#136,.T.);
#326=EDGE_CURVE('',#265,#264,#37,.T.);
#327=EDGE_CURVE('',#266,#249,#137,.T.);
#328=EDGE_CURVE('',#266,#265,#138,.T.);
#329=EDGE_CURVE('',#267,#268,#139,.T.);
#330=EDGE_CURVE('',#268,#269,#140,.T.);
#331=EDGE_CURVE('',#269,#270,#141,.T.);
#332=EDGE_CURVE('',#270,#267,#142,.T.);
#333=EDGE_CURVE('',#256,#271,#143,.T.);
#334=EDGE_CURVE('',#271,#272,#38,.T.);
#335=EDGE_CURVE('',#272,#258,#144,.T.);
#336=EDGE_CURVE('',#263,#271,#145,.T.);
#337=EDGE_CURVE('',#273,#266,#39,.T.);
#338=EDGE_CURVE('',#272,#273,#146,.T.);
#339=EDGE_CURVE('',#274,#275,#147,.T.);
#340=EDGE_CURVE('',#276,#274,#148,.T.);
#341=EDGE_CURVE('',#277,#276,#149,.T.);
#342=EDGE_CURVE('',#275,#277,#150,.T.);
#343=EDGE_CURVE('',#260,#273,#151,.T.);
#344=EDGE_CURVE('',#278,#279,#152,.T.);
#345=EDGE_CURVE('',#278,#268,#153,.T.);
#346=EDGE_CURVE('',#279,#267,#154,.T.);
#347=EDGE_CURVE('',#280,#278,#155,.T.);
#348=EDGE_CURVE('',#280,#269,#156,.T.);
#349=EDGE_CURVE('',#281,#280,#157,.T.);
#350=EDGE_CURVE('',#281,#270,#158,.T.);
#351=EDGE_CURVE('',#282,#279,#159,.T.);
#352=EDGE_CURVE('',#283,#282,#160,.T.);
#353=EDGE_CURVE('',#284,#283,#161,.T.);
#354=EDGE_CURVE('',#285,#284,#162,.T.);
#355=EDGE_CURVE('',#281,#285,#163,.T.);
#356=EDGE_CURVE('',#286,#286,#40,.T.);
#357=EDGE_CURVE('',#287,#287,#41,.T.);
#358=EDGE_CURVE('',#287,#286,#164,.T.);
#359=EDGE_CURVE('',#284,#288,#165,.T.);
#360=EDGE_CURVE('',#289,#288,#166,.T.);
#361=EDGE_CURVE('',#285,#289,#167,.T.);
#362=EDGE_CURVE('',#290,#289,#168,.T.);
#363=EDGE_CURVE('',#282,#290,#169,.T.);
#364=EDGE_CURVE('',#291,#290,#170,.T.);
#365=EDGE_CURVE('',#283,#291,#171,.T.);
#366=EDGE_CURVE('',#288,#291,#172,.T.);
#367=EDGE_CURVE('',#275,#292,#173,.T.);
#368=EDGE_CURVE('',#293,#292,#174,.T.);
#369=EDGE_CURVE('',#274,#293,#175,.T.);
#370=EDGE_CURVE('',#294,#293,#176,.T.);
#371=EDGE_CURVE('',#276,#294,#177,.T.);
#372=EDGE_CURVE('',#295,#294,#178,.T.);
#373=EDGE_CURVE('',#277,#295,#179,.T.);
#374=EDGE_CURVE('',#292,#295,#180,.T.);
#375=ORIENTED_EDGE('',*,*,#296,.T.);
#376=ORIENTED_EDGE('',*,*,#297,.T.);
#377=ORIENTED_EDGE('',*,*,#298,.T.);
#378=ORIENTED_EDGE('',*,*,#299,.T.);
#379=ORIENTED_EDGE('',*,*,#296,.F.);
#380=ORIENTED_EDGE('',*,*,#300,.T.);
#381=ORIENTED_EDGE('',*,*,#301,.T.);
#382=ORIENTED_EDGE('',*,*,#302,.T.);
#383=ORIENTED_EDGE('',*,*,#303,.T.);
#384=ORIENTED_EDGE('',*,*,#304,.T.);
#385=ORIENTED_EDGE('',*,*,#301,.F.);
#386=ORIENTED_EDGE('',*,*,#305,.T.);
#387=ORIENTED_EDGE('',*,*,#303,.F.);
#388=ORIENTED_EDGE('',*,*,#306,.T.);
#389=ORIENTED_EDGE('',*,*,#307,.T.);
#390=ORIENTED_EDGE('',*,*,#308,.T.);
#391=ORIENTED_EDGE('',*,*,#309,.T.);
#392=ORIENTED_EDGE('',*,*,#310,.T.);
#393=ORIENTED_EDGE('',*,*,#307,.F.);
#394=ORIENTED_EDGE('',*,*,#311,.T.);
#395=ORIENTED_EDGE('',*,*,#309,.F.);
#396=ORIENTED_EDGE('',*,*,#312,.T.);
#397=ORIENTED_EDGE('',*,*,#313,.T.);
#398=ORIENTED_EDGE('',*,*,#314,.T.);
#399=ORIENTED_EDGE('',*,*,#315,.T.);
#400=ORIENTED_EDGE('',*,*,#316,.T.);
#401=ORIENTED_EDGE('',*,*,#313,.F.);
#402=ORIENTED_EDGE('',*,*,#317,.T.);
#403=ORIENTED_EDGE('',*,*,#315,.F.);
#404=ORIENTED_EDGE('',*,*,#318,.T.);
#405=ORIENTED_EDGE('',*,*,#298,.F.);
#406=ORIENTED_EDGE('',*,*,#319,.T.);
#407=ORIENTED_EDGE('',*,*,#306,.F.);
#408=ORIENTED_EDGE('',*,*,#320,.T.);
#409=ORIENTED_EDGE('',*,*,#321,.T.);
#410=ORIENTED_EDGE('',*,*,#322,.T.);
#411=ORIENTED_EDGE('',*,*,#305,.F.);
#412=ORIENTED_EDGE('',*,*,#323,.F.);
#413=ORIENTED_EDGE('',*,*,#324,.T.);
#414=ORIENTED_EDGE('',*,*,#320,.F.);
#415=ORIENTED_EDGE('',*,*,#300,.F.);
#416=ORIENTED_EDGE('',*,*,#325,.T.);
#417=ORIENTED_EDGE('',*,*,#326,.T.);
#418=ORIENTED_EDGE('',*,*,#323,.T.);
#419=ORIENTED_EDGE('',*,*,#299,.F.);
#420=ORIENTED_EDGE('',*,*,#327,.F.);
#421=ORIENTED_EDGE('',*,*,#328,.T.);
#422=ORIENTED_EDGE('',*,*,#325,.F.);
#423=ORIENTED_EDGE('',*,*,#297,.F.);
#424=ORIENTED_EDGE('',*,*,#302,.F.);
#425=ORIENTED_EDGE('',*,*,#304,.F.);
#426=ORIENTED_EDGE('',*,*,#308,.F.);
#427=ORIENTED_EDGE('',*,*,#310,.F.);
#428=ORIENTED_EDGE('',*,*,#314,.F.);
#429=ORIENTED_EDGE('',*,*,#316,.F.);
#430=ORIENTED_EDGE('',*,*,#319,.F.);
#431=ORIENTED_EDGE('',*,*,#329,.T.);
#432=ORIENTED_EDGE('',*,*,#330,.T.);
#433=ORIENTED_EDGE('',*,*,#331,.T.);
#434=ORIENTED_EDGE('',*,*,#332,.T.);
#435=ORIENTED_EDGE('',*,*,#312,.F.);
#436=ORIENTED_EDGE('',*,*,#333,.T.);
#437=ORIENTED_EDGE('',*,*,#334,.T.);
#438=ORIENTED_EDGE('',*,*,#335,.T.);
#439=ORIENTED_EDGE('',*,*,#334,.F.);
#440=ORIENTED_EDGE('',*,*,#336,.F.);
#441=ORIENTED_EDGE('',*,*,#321,.F.);
#442=ORIENTED_EDGE('',*,*,#324,.F.);
#443=ORIENTED_EDGE('',*,*,#326,.F.);
#444=ORIENTED_EDGE('',*,*,#328,.F.);
#445=ORIENTED_EDGE('',*,*,#337,.F.);
#446=ORIENTED_EDGE('',*,*,#338,.F.);
#447=ORIENTED_EDGE('',*,*,#339,.F.);
#448=ORIENTED_EDGE('',*,*,#340,.F.);
#449=ORIENTED_EDGE('',*,*,#341,.F.);
#450=ORIENTED_EDGE('',*,*,#342,.F.);
#451=ORIENTED_EDGE('',*,*,#311,.F.);
#452=ORIENTED_EDGE('',*,*,#322,.F.);
#453=ORIENTED_EDGE('',*,*,#336,.T.);
#454=ORIENTED_EDGE('',*,*,#333,.F.);
#455=ORIENTED_EDGE('',*,*,#318,.F.);
#456=ORIENTED_EDGE('',*,*,#343,.T.);
#457=ORIENTED_EDGE('',*,*,#337,.T.);
#458=ORIENTED_EDGE('',*,*,#327,.T.);
#459=ORIENTED_EDGE('',*,*,#344,.F.);
#460=ORIENTED_EDGE('',*,*,#345,.T.);
#461=ORIENTED_EDGE('',*,*,#329,.F.);
#462=ORIENTED_EDGE('',*,*,#346,.F.);
#463=ORIENTED_EDGE('',*,*,#347,.F.);
#464=ORIENTED_EDGE('',*,*,#348,.T.);
#465=ORIENTED_EDGE('',*,*,#330,.F.);
#466=ORIENTED_EDGE('',*,*,#345,.F.);
#467=ORIENTED_EDGE('',*,*,#349,.F.);
#468=ORIENTED_EDGE('',*,*,#350,.T.);
#469=ORIENTED_EDGE('',*,*,#331,.F.);
#470=ORIENTED_EDGE('',*,*,#348,.F.);
#471=ORIENTED_EDGE('',*,*,#349,.T.);
#472=ORIENTED_EDGE('',*,*,#347,.T.);
#473=ORIENTED_EDGE('',*,*,#344,.T.);
#474=ORIENTED_EDGE('',*,*,#351,.F.);
#475=ORIENTED_EDGE('',*,*,#352,.F.);
#476=ORIENTED_EDGE('',*,*,#353,.F.);
#477=ORIENTED_EDGE('',*,*,#354,.F.);
#478=ORIENTED_EDGE('',*,*,#355,.F.);
#479=ORIENTED_EDGE('',*,*,#356,.T.);
#480=ORIENTED_EDGE('',*,*,#357,.F.);
#481=ORIENTED_EDGE('',*,*,#358,.T.);
#482=ORIENTED_EDGE('',*,*,#356,.F.);
#483=ORIENTED_EDGE('',*,*,#358,.F.);
#484=ORIENTED_EDGE('',*,*,#357,.T.);
#485=ORIENTED_EDGE('',*,*,#317,.F.);
#486=ORIENTED_EDGE('',*,*,#335,.F.);
#487=ORIENTED_EDGE('',*,*,#338,.T.);
#488=ORIENTED_EDGE('',*,*,#343,.F.);
#489=ORIENTED_EDGE('',*,*,#354,.T.);
#490=ORIENTED_EDGE('',*,*,#359,.T.);
#491=ORIENTED_EDGE('',*,*,#360,.F.);
#492=ORIENTED_EDGE('',*,*,#361,.F.);
#493=ORIENTED_EDGE('',*,*,#351,.T.);
#494=ORIENTED_EDGE('',*,*,#346,.T.);
#495=ORIENTED_EDGE('',*,*,#332,.F.);
#496=ORIENTED_EDGE('',*,*,#350,.F.);
#497=ORIENTED_EDGE('',*,*,#355,.T.);
#498=ORIENTED_EDGE('',*,*,#361,.T.);
#499=ORIENTED_EDGE('',*,*,#362,.F.);
#500=ORIENTED_EDGE('',*,*,#363,.F.);
#501=ORIENTED_EDGE('',*,*,#352,.T.);
#502=ORIENTED_EDGE('',*,*,#363,.T.);
#503=ORIENTED_EDGE('',*,*,#364,.F.);
#504=ORIENTED_EDGE('',*,*,#365,.F.);
#505=ORIENTED_EDGE('',*,*,#353,.T.);
#506=ORIENTED_EDGE('',*,*,#365,.T.);
#507=ORIENTED_EDGE('',*,*,#366,.F.);
#508=ORIENTED_EDGE('',*,*,#359,.F.);
#509=ORIENTED_EDGE('',*,*,#339,.T.);
#510=ORIENTED_EDGE('',*,*,#367,.T.);
#511=ORIENTED_EDGE('',*,*,#368,.F.);
#512=ORIENTED_EDGE('',*,*,#369,.F.);
#513=ORIENTED_EDGE('',*,*,#340,.T.);
#514=ORIENTED_EDGE('',*,*,#369,.T.);
#515=ORIENTED_EDGE('',*,*,#370,.F.);
#516=ORIENTED_EDGE('',*,*,#371,.F.);
#517=ORIENTED_EDGE('',*,*,#341,.T.);
#518=ORIENTED_EDGE('',*,*,#371,.T.);
#519=ORIENTED_EDGE('',*,*,#372,.F.);
#520=ORIENTED_EDGE('',*,*,#373,.F.);
#521=ORIENTED_EDGE('',*,*,#342,.T.);
#522=ORIENTED_EDGE('',*,*,#373,.T.);
#523=ORIENTED_EDGE('',*,*,#374,.F.);
#524=ORIENTED_EDGE('',*,*,#367,.F.);
#525=ORIENTED_EDGE('',*,*,#374,.T.);
#526=ORIENTED_EDGE('',*,*,#372,.T.);
#527=ORIENTED_EDGE('',*,*,#370,.T.);
#528=ORIENTED_EDGE('',*,*,#368,.T.);
#529=ORIENTED_EDGE('',*,*,#366,.T.);
#530=ORIENTED_EDGE('',*,*,#364,.T.);
#531=ORIENTED_EDGE('',*,*,#362,.T.);
#532=ORIENTED_EDGE('',*,*,#360,.T.);
#533=PLANE('',#613);
#534=PLANE('',#617);
#535=PLANE('',#621);
#536=PLANE('',#625);
#537=PLANE('',#631);
#538=PLANE('',#634);
#539=PLANE('',#635);
#540=PLANE('',#638);
#541=PLANE('',#640);
#542=PLANE('',#642);
#543=PLANE('',#643);
#544=PLANE('',#644);
#545=PLANE('',#645);
#546=PLANE('',#649);
#547=PLANE('',#650);
#548=PLANE('',#651);
#549=PLANE('',#652);
#550=PLANE('',#653);
#551=PLANE('',#654);
#552=PLANE('',#655);
#553=PLANE('',#656);
#554=PLANE('',#657);
#555=PLANE('',#658);
#556=PLANE('',#659);
#557=ADVANCED_FACE('',(#46),#533,.T.);
#558=ADVANCED_FACE('',(#47),#42,.T.);
#559=ADVANCED_FACE('',(#48),#534,.T.);
#560=ADVANCED_FACE('',(#49),#43,.T.);
#561=ADVANCED_FACE('',(#50),#535,.T.);
#562=ADVANCED_FACE('',(#51),#44,.T.);
#563=ADVANCED_FACE('',(#52),#536,.T.);
#564=ADVANCED_FACE('',(#53),#45,.T.);
#565=ADVANCED_FACE('',(#54),#23,.T.);
#566=ADVANCED_FACE('',(#55),#537,.T.);
#567=ADVANCED_FACE('',(#56),#24,.T.);
#568=ADVANCED_FACE('',(#57),#538,.T.);
#569=ADVANCED_FACE('',(#58,#19),#539,.T.);
#570=ADVANCED_FACE('',(#59),#25,.T.);
#571=ADVANCED_FACE('',(#60,#20),#540,.F.);
#572=ADVANCED_FACE('',(#61),#541,.T.);
#573=ADVANCED_FACE('',(#62),#26,.T.);
#574=ADVANCED_FACE('',(#63),#542,.F.);
#575=ADVANCED_FACE('',(#64),#543,.F.);
#576=ADVANCED_FACE('',(#65),#544,.F.);
#577=ADVANCED_FACE('',(#66,#21),#545,.F.);
#578=ADVANCED_FACE('',(#67),#27,.T.);
#579=ADVANCED_FACE('',(#68),#546,.T.);
#580=ADVANCED_FACE('',(#69),#547,.T.);
#581=ADVANCED_FACE('',(#70),#548,.T.);
#582=ADVANCED_FACE('',(#71),#549,.T.);
#583=ADVANCED_FACE('',(#72),#550,.T.);
#584=ADVANCED_FACE('',(#73),#551,.T.);
#585=ADVANCED_FACE('',(#74),#552,.T.);
#586=ADVANCED_FACE('',(#75),#553,.T.);
#587=ADVANCED_FACE('',(#76),#554,.T.);
#588=ADVANCED_FACE('',(#77),#555,.T.);
#589=ADVANCED_FACE('',(#78,#22),#556,.T.);
#590=CLOSED_SHELL('',(#557,#558,#559,#560,#561,#562,#563,#564,#565,#566,
#567,#568,#569,#570,#571,#572,#573,#574,#575,#576,#577,#578,#579,#580,#581,
#582,#583,#584,#585,#586,#587,#588,#589));
#591=DERIVED_UNIT_ELEMENT(#594,1.);
#592=DERIVED_UNIT_ELEMENT(#991,-3.);
#593=DIMENSIONAL_EXPONENTS(0.,1.,0.,0.,0.,0.,0.);
#594=(
CONVERSION_BASED_UNIT('gram',#596)
MASS_UNIT()
NAMED_UNIT(#593)
);
#595=(
MASS_UNIT()
NAMED_UNIT(*)
SI_UNIT(.KILO.,.GRAM.)
);
#596=MASS_MEASURE_WITH_UNIT(MASS_MEASURE(0.001),#595);
#597=DERIVED_UNIT((#591,#592));
#598=MEASURE_REPRESENTATION_ITEM('density measure',
POSITIVE_RATIO_MEASURE(1.),#597);
#599=PROPERTY_DEFINITION_REPRESENTATION(#604,#601);
#600=PROPERTY_DEFINITION_REPRESENTATION(#605,#602);
#601=REPRESENTATION('material name',(#603),#988);
#602=REPRESENTATION('density',(#598),#988);
#603=DESCRIPTIVE_REPRESENTATION_ITEM('Generic','Generic');
#604=PROPERTY_DEFINITION('material property','material name',#998);
#605=PROPERTY_DEFINITION('material property','density of part',#998);
#606=DATE_TIME_ROLE('creation_date');
#607=APPLIED_DATE_AND_TIME_ASSIGNMENT(#608,#606,(#998));
#608=DATE_AND_TIME(#609,#610);
#609=CALENDAR_DATE(2025,14,11);
#610=LOCAL_TIME(0,0,0.,#611);
#611=COORDINATED_UNIVERSAL_TIME_OFFSET(0,0,.BEHIND.);
#612=AXIS2_PLACEMENT_3D('',#821,#660,#661);
#613=AXIS2_PLACEMENT_3D('',#822,#662,#663);
#614=AXIS2_PLACEMENT_3D('',#831,#668,#669);
#615=AXIS2_PLACEMENT_3D('',#833,#670,#671);
#616=AXIS2_PLACEMENT_3D('',#836,#673,#674);
#617=AXIS2_PLACEMENT_3D('',#837,#675,#676);
#618=AXIS2_PLACEMENT_3D('',#843,#680,#681);
#619=AXIS2_PLACEMENT_3D('',#845,#682,#683);
#620=AXIS2_PLACEMENT_3D('',#848,#685,#686);
#621=AXIS2_PLACEMENT_3D('',#849,#687,#688);
#622=AXIS2_PLACEMENT_3D('',#855,#692,#693);
#623=AXIS2_PLACEMENT_3D('',#857,#694,#695);
#624=AXIS2_PLACEMENT_3D('',#860,#697,#698);
#625=AXIS2_PLACEMENT_3D('',#861,#699,#700);
#626=AXIS2_PLACEMENT_3D('',#867,#704,#705);
#627=AXIS2_PLACEMENT_3D('',#868,#706,#707);
#628=AXIS2_PLACEMENT_3D('',#869,#708,#709);
#629=AXIS2_PLACEMENT_3D('',#870,#710,#711);
#630=AXIS2_PLACEMENT_3D('',#874,#713,#714);
#631=AXIS2_PLACEMENT_3D('',#876,#716,#717);
#632=AXIS2_PLACEMENT_3D('',#880,#720,#721);
#633=AXIS2_PLACEMENT_3D('',#883,#723,#724);
#634=AXIS2_PLACEMENT_3D('',#884,#725,#726);
#635=AXIS2_PLACEMENT_3D('',#888,#729,#730);
#636=AXIS2_PLACEMENT_3D('',#897,#735,#736);
#637=AXIS2_PLACEMENT_3D('',#901,#738,#739);
#638=AXIS2_PLACEMENT_3D('',#903,#741,#742);
#639=AXIS2_PLACEMENT_3D('',#906,#744,#745);
#640=AXIS2_PLACEMENT_3D('',#916,#751,#752);
#641=AXIS2_PLACEMENT_3D('',#917,#753,#754);
#642=AXIS2_PLACEMENT_3D('',#919,#756,#757);
#643=AXIS2_PLACEMENT_3D('',#925,#761,#762);
#644=AXIS2_PLACEMENT_3D('',#929,#765,#766);
#645=AXIS2_PLACEMENT_3D('',#933,#769,#770);
#646=AXIS2_PLACEMENT_3D('',#944,#776,#777);
#647=AXIS2_PLACEMENT_3D('',#945,#778,#779);
#648=AXIS2_PLACEMENT_3D('',#947,#780,#781);
#649=AXIS2_PLACEMENT_3D('',#949,#783,#784);
#650=AXIS2_PLACEMENT_3D('',#950,#785,#786);
#651=AXIS2_PLACEMENT_3D('',#951,#787,#788);
#652=AXIS2_PLACEMENT_3D('',#957,#792,#793);
#653=AXIS2_PLACEMENT_3D('',#961,#796,#797);
#654=AXIS2_PLACEMENT_3D('',#965,#800,#801);
#655=AXIS2_PLACEMENT_3D('',#967,#803,#804);
#656=AXIS2_PLACEMENT_3D('',#973,#808,#809);
#657=AXIS2_PLACEMENT_3D('',#977,#812,#813);
#658=AXIS2_PLACEMENT_3D('',#981,#816,#817);
#659=AXIS2_PLACEMENT_3D('',#983,#819,#820);
#660=DIRECTION('axis',(0.,0.,1.));
#661=DIRECTION('refdir',(1.,0.,0.));
#662=DIRECTION('center_axis',(9.87479533762838E-17,0.707106781186547,-0.707106781186548));
#663=DIRECTION('ref_axis',(-1.,0.,-1.39650694921327E-16));
#664=DIRECTION('',(0.,-0.707106781186548,-0.707106781186547));
#665=DIRECTION('',(-1.,1.39650694921327E-16,0.));
#666=DIRECTION('',(1.96261557335472E-16,0.707106781186548,0.707106781186547));
#667=DIRECTION('',(1.,-1.39650694921327E-16,0.));
#668=DIRECTION('center_axis',(0.,0.,1.));
#669=DIRECTION('ref_axis',(0.707106781186548,0.707106781186548,0.));
#670=DIRECTION('center_axis',(0.,0.,-1.));
#671=DIRECTION('ref_axis',(0.707106781186548,0.707106781186548,0.));
#672=DIRECTION('',(-0.707106781186547,0.,-0.707106781186548));
#673=DIRECTION('center_axis',(0.,0.,1.));
#674=DIRECTION('ref_axis',(0.707106781186548,0.707106781186548,0.));
#675=DIRECTION('center_axis',(0.707106781186547,0.,-0.707106781186548));
#676=DIRECTION('ref_axis',(-0.707106781186548,0.,-0.707106781186547));
#677=DIRECTION('',(-0.707106781186548,0.,-0.707106781186547));
#678=DIRECTION('',(0.,1.,0.));
#679=DIRECTION('',(0.,-1.,0.));
#680=DIRECTION('center_axis',(0.,0.,1.));
#681=DIRECTION('ref_axis',(0.707106781186548,-0.707106781186547,0.));
#682=DIRECTION('center_axis',(0.,0.,-1.));
#683=DIRECTION('ref_axis',(0.707106781186548,-0.707106781186547,0.));
#684=DIRECTION('',(0.,0.707106781186547,-0.707106781186547));
#685=DIRECTION('center_axis',(0.,0.,1.));
#686=DIRECTION('ref_axis',(0.707106781186548,-0.707106781186547,0.));
#687=DIRECTION('center_axis',(-7.40609650322129E-17,-0.707106781186547,
-0.707106781186548));
#688=DIRECTION('ref_axis',(-1.,0.,1.04738021190995E-16));
#689=DIRECTION('',(1.47196168001604E-16,0.707106781186548,-0.707106781186547));
#690=DIRECTION('',(1.,-1.04738021190995E-16,0.));
#691=DIRECTION('',(-1.,1.04738021190995E-16,0.));
#692=DIRECTION('center_axis',(0.,0.,1.));
#693=DIRECTION('ref_axis',(-0.707106781186547,-0.707106781186548,0.));
#694=DIRECTION('center_axis',(0.,0.,-1.));
#695=DIRECTION('ref_axis',(-0.707106781186547,-0.707106781186548,0.));
#696=DIRECTION('',(0.707106781186547,9.81307786677359E-17,-0.707106781186548));
#697=DIRECTION('center_axis',(0.,0.,1.));
#698=DIRECTION('ref_axis',(-0.707106781186547,-0.707106781186548,0.));
#699=DIRECTION('center_axis',(-0.707106781186548,0.,-0.707106781186547));
#700=DIRECTION('ref_axis',(-0.707106781186547,0.,0.707106781186548));
#701=DIRECTION('',(0.707106781186547,0.,-0.707106781186548));
#702=DIRECTION('',(0.,-1.,0.));
#703=DIRECTION('',(0.,1.,0.));
#704=DIRECTION('center_axis',(0.,0.,1.));
#705=DIRECTION('ref_axis',(-0.707106781186547,0.707106781186548,0.));
#706=DIRECTION('center_axis',(0.,0.,-1.));
#707=DIRECTION('ref_axis',(-0.707106781186547,0.707106781186548,0.));
#708=DIRECTION('center_axis',(0.,0.,1.));
#709=DIRECTION('ref_axis',(-0.707106781186547,0.707106781186548,0.));
#710=DIRECTION('center_axis',(0.,0.,-1.));
#711=DIRECTION('ref_axis',(0.707106781186548,-0.707106781186547,0.));
#712=DIRECTION('',(0.,0.,1.));
#713=DIRECTION('center_axis',(0.,0.,-1.));
#714=DIRECTION('ref_axis',(0.707106781186548,-0.707106781186547,0.));
#715=DIRECTION('',(0.,0.,-1.));
#716=DIRECTION('center_axis',(1.,0.,0.));
#717=DIRECTION('ref_axis',(0.,-1.,0.));
#718=DIRECTION('',(0.,0.,-1.));
#719=DIRECTION('',(0.,-1.,0.));
#720=DIRECTION('center_axis',(0.,0.,-1.));
#721=DIRECTION('ref_axis',(0.707106781186548,0.707106781186548,0.));
#722=DIRECTION('',(0.,0.,1.));
#723=DIRECTION('center_axis',(0.,0.,-1.));
#724=DIRECTION('ref_axis',(0.707106781186548,0.707106781186548,0.));
#725=DIRECTION('center_axis',(1.39650694921327E-16,1.,0.));
#726=DIRECTION('ref_axis',(1.,-1.39650694921327E-16,0.));
#727=DIRECTION('',(0.,0.,-1.));
#728=DIRECTION('',(1.,-1.39650694921327E-16,0.));
#729=DIRECTION('center_axis',(0.,0.,-1.));
#730=DIRECTION('ref_axis',(-1.,0.,0.));
#731=DIRECTION('',(-1.,0.,0.));
#732=DIRECTION('',(7.40148683083438E-16,-1.,0.));
#733=DIRECTION('',(1.,0.,0.));
#734=DIRECTION('',(-7.40148683083438E-16,1.,0.));
#735=DIRECTION('center_axis',(0.,0.,-1.));
#736=DIRECTION('ref_axis',(-0.707106781186547,-0.707106781186548,0.));
#737=DIRECTION('',(0.,0.,1.));
#738=DIRECTION('center_axis',(0.,0.,-1.));
#739=DIRECTION('ref_axis',(-0.707106781186547,-0.707106781186548,0.));
#740=DIRECTION('',(0.,0.,-1.));
#741=DIRECTION('center_axis',(0.,0.,-1.));
#742=DIRECTION('ref_axis',(-1.,0.,0.));
#743=DIRECTION('',(-1.,1.04738021190995E-16,0.));
#744=DIRECTION('center_axis',(0.,0.,-1.));
#745=DIRECTION('ref_axis',(-0.707106781186547,0.707106781186548,0.));
#746=DIRECTION('',(0.,1.,0.));
#747=DIRECTION('',(1.,0.,0.));
#748=DIRECTION('',(1.37915903680119E-16,-1.,0.));
#749=DIRECTION('',(-1.,0.,0.));
#750=DIRECTION('',(-1.37915903680119E-16,1.,0.));
#751=DIRECTION('center_axis',(-1.04738021190995E-16,-1.,0.));
#752=DIRECTION('ref_axis',(-1.,1.04738021190995E-16,0.));
#753=DIRECTION('center_axis',(0.,0.,-1.));
#754=DIRECTION('ref_axis',(-0.707106781186547,0.707106781186548,0.));
#755=DIRECTION('',(0.,0.,1.));
#756=DIRECTION('center_axis',(0.,1.,0.));
#757=DIRECTION('ref_axis',(1.,0.,0.));
#758=DIRECTION('',(1.,0.,0.));
#759=DIRECTION('',(0.,0.,-1.));
#760=DIRECTION('',(0.,0.,-1.));
#761=DIRECTION('center_axis',(-1.,-7.40148683083438E-16,0.));
#762=DIRECTION('ref_axis',(-7.40148683083438E-16,1.,0.));
#763=DIRECTION('',(-7.40148683083438E-16,1.,0.));
#764=DIRECTION('',(0.,0.,-1.));
#765=DIRECTION('center_axis',(0.,-1.,0.));
#766=DIRECTION('ref_axis',(-1.,0.,0.));
#767=DIRECTION('',(-1.,0.,0.));
#768=DIRECTION('',(0.,0.,-1.));
#769=DIRECTION('center_axis',(0.,0.,-1.));
#770=DIRECTION('ref_axis',(-1.,0.,0.));
#771=DIRECTION('',(1.64477485129653E-16,-1.,0.));
#772=DIRECTION('',(1.,0.,0.));
#773=DIRECTION('',(-3.06161699786838E-16,1.,0.));
#774=DIRECTION('',(-1.,0.,0.));
#775=DIRECTION('',(1.64477485129653E-16,-1.,0.));
#776=DIRECTION('center_axis',(0.,0.,-1.));
#777=DIRECTION('ref_axis',(1.,0.,0.));
#778=DIRECTION('center_axis',(0.,0.,1.));
#779=DIRECTION('ref_axis',(1.,0.,0.));
#780=DIRECTION('center_axis',(0.,0.,1.));
#781=DIRECTION('ref_axis',(1.,0.,0.));
#782=DIRECTION('',(0.,0.,-1.));
#783=DIRECTION('center_axis',(0.,0.,1.));
#784=DIRECTION('ref_axis',(1.,0.,0.));
#785=DIRECTION('center_axis',(-1.,0.,0.));
#786=DIRECTION('ref_axis',(0.,1.,0.));
#787=DIRECTION('center_axis',(0.,1.,0.));
#788=DIRECTION('ref_axis',(-1.,0.,0.));
#789=DIRECTION('',(0.,0.,1.));
#790=DIRECTION('',(-1.,0.,0.));
#791=DIRECTION('',(0.,0.,1.));
#792=DIRECTION('center_axis',(-1.,-1.64477485129653E-16,0.));
#793=DIRECTION('ref_axis',(1.64477485129653E-16,-1.,0.));
#794=DIRECTION('',(1.64477485129653E-16,-1.,0.));
#795=DIRECTION('',(0.,0.,1.));
#796=DIRECTION('center_axis',(0.,-1.,0.));
#797=DIRECTION('ref_axis',(1.,0.,0.));
#798=DIRECTION('',(1.,0.,0.));
#799=DIRECTION('',(0.,0.,1.));
#800=DIRECTION('center_axis',(1.,3.06161699786838E-16,0.));
#801=DIRECTION('ref_axis',(-3.06161699786838E-16,1.,0.));
#802=DIRECTION('',(-3.06161699786838E-16,1.,0.));
#803=DIRECTION('center_axis',(0.,-1.,0.));
#804=DIRECTION('ref_axis',(1.,0.,0.));
#805=DIRECTION('',(0.,0.,1.));
#806=DIRECTION('',(1.,0.,0.));
#807=DIRECTION('',(0.,0.,1.));
#808=DIRECTION('center_axis',(-1.,-1.37915903680119E-16,0.));
#809=DIRECTION('ref_axis',(1.37915903680119E-16,-1.,0.));
#810=DIRECTION('',(1.37915903680119E-16,-1.,0.));
#811=DIRECTION('',(0.,0.,1.));
#812=DIRECTION('center_axis',(0.,1.,0.));
#813=DIRECTION('ref_axis',(-1.,0.,0.));
#814=DIRECTION('',(-1.,0.,0.));
#815=DIRECTION('',(0.,0.,1.));
#816=DIRECTION('center_axis',(1.,1.37915903680119E-16,0.));
#817=DIRECTION('ref_axis',(-1.37915903680119E-16,1.,0.));
#818=DIRECTION('',(-1.37915903680119E-16,1.,0.));
#819=DIRECTION('center_axis',(0.,0.,1.));
#820=DIRECTION('ref_axis',(1.,0.,0.));
#821=CARTESIAN_POINT('',(0.,0.,0.));
#822=CARTESIAN_POINT('Origin',(1.3749999999789,15.5999999999796,-1.5));
#823=CARTESIAN_POINT('',(11.2999999999854,16.0999999999796,-1.));
#824=CARTESIAN_POINT('',(11.2999999999854,15.0999999999796,-2.));
#825=CARTESIAN_POINT('',(11.2999999999854,16.0999999999796,-1.));
#826=CARTESIAN_POINT('',(-0.600000000023284,15.0999999999796,-2.));
#827=CARTESIAN_POINT('',(1.3749999999789,15.0999999999796,-2.));
#828=CARTESIAN_POINT('',(-0.600000000023283,16.0999999999796,-1.));
#829=CARTESIAN_POINT('',(-0.600000000023284,15.0999999999796,-2.));
#830=CARTESIAN_POINT('',(1.3749999999789,16.0999999999796,-1.));
#831=CARTESIAN_POINT('Origin',(11.2999999999854,14.0999999999796,-1.5));
#832=CARTESIAN_POINT('',(13.2999999999854,14.0999999999796,-1.));
#833=CARTESIAN_POINT('Origin',(11.2999999999854,14.0999999999796,-1.));
#834=CARTESIAN_POINT('',(12.2999999999854,14.0999999999796,-2.));
#835=CARTESIAN_POINT('',(13.2999999999854,14.0999999999796,-1.));
#836=CARTESIAN_POINT('Origin',(11.2999999999854,14.0999999999796,-2.));
#837=CARTESIAN_POINT('Origin',(12.7999999999854,11.4249999999789,-1.5));
#838=CARTESIAN_POINT('',(13.2999999999854,-0.600000000023284,-1.));
#839=CARTESIAN_POINT('',(12.2999999999854,-0.600000000023284,-2.));
#840=CARTESIAN_POINT('',(13.2999999999854,-0.600000000023284,-1.));
#841=CARTESIAN_POINT('',(12.2999999999854,11.4249999999789,-2.));
#842=CARTESIAN_POINT('',(13.2999999999854,11.4249999999789,-1.));
#843=CARTESIAN_POINT('Origin',(11.2999999999854,-0.600000000023284,-1.5));
#844=CARTESIAN_POINT('',(11.2999999999854,-2.60000000002328,-1.));
#845=CARTESIAN_POINT('Origin',(11.2999999999854,-0.600000000023284,-1.));
#846=CARTESIAN_POINT('',(11.2999999999854,-1.60000000002328,-2.));
#847=CARTESIAN_POINT('',(11.2999999999854,-2.60000000002328,-1.));
#848=CARTESIAN_POINT('Origin',(11.2999999999854,-0.600000000023284,-2.));
#849=CARTESIAN_POINT('Origin',(9.32499999998327,-2.10000000002328,-1.5));
#850=CARTESIAN_POINT('',(-0.600000000023284,-2.60000000002328,-1.));
#851=CARTESIAN_POINT('',(-0.600000000023284,-1.60000000002328,-2.));
#852=CARTESIAN_POINT('',(-0.600000000023284,-2.60000000002328,-1.));
#853=CARTESIAN_POINT('',(9.32499999998327,-1.60000000002328,-2.));
#854=CARTESIAN_POINT('',(9.32499999998327,-2.60000000002328,-1.));
#855=CARTESIAN_POINT('Origin',(-0.600000000023284,-0.600000000023283,-1.5));
#856=CARTESIAN_POINT('',(-2.60000000002328,-0.600000000023283,-1.));
#857=CARTESIAN_POINT('Origin',(-0.600000000023284,-0.600000000023283,-1.));
#858=CARTESIAN_POINT('',(-1.60000000002328,-0.600000000023283,-2.));
#859=CARTESIAN_POINT('',(-2.60000000002328,-0.600000000023283,-1.));
#860=CARTESIAN_POINT('Origin',(-0.600000000023284,-0.600000000023283,-2.));
#861=CARTESIAN_POINT('Origin',(-2.10000000002328,2.07499999997745,-1.5));
#862=CARTESIAN_POINT('',(-2.60000000002328,14.0999999999796,-1.));
#863=CARTESIAN_POINT('',(-1.60000000002328,14.0999999999796,-2.));
#864=CARTESIAN_POINT('',(-2.60000000002328,14.0999999999796,-1.));
#865=CARTESIAN_POINT('',(-1.60000000002328,2.07499999997745,-2.));
#866=CARTESIAN_POINT('',(-2.60000000002328,2.07499999997745,-1.));
#867=CARTESIAN_POINT('Origin',(-0.600000000023284,14.0999999999796,-1.5));
#868=CARTESIAN_POINT('Origin',(-0.600000000023284,14.0999999999796,-1.));
#869=CARTESIAN_POINT('Origin',(-0.600000000023284,14.0999999999796,-2.));
#870=CARTESIAN_POINT('Origin',(11.2999999999854,-0.600000000023284,0.));
#871=CARTESIAN_POINT('',(13.2999999999854,-0.600000000023284,0.));
#872=CARTESIAN_POINT('',(13.2999999999854,-0.600000000023284,0.));
#873=CARTESIAN_POINT('',(11.2999999999854,-2.60000000002328,0.));
#874=CARTESIAN_POINT('Origin',(11.2999999999854,-0.600000000023284,0.));
#875=CARTESIAN_POINT('',(11.2999999999854,-2.60000000002328,0.));
#876=CARTESIAN_POINT('Origin',(13.2999999999854,16.0999999999796,0.));
#877=CARTESIAN_POINT('',(13.2999999999854,14.0999999999796,0.));
#878=CARTESIAN_POINT('',(13.2999999999854,14.0999999999796,0.));
#879=CARTESIAN_POINT('',(13.2999999999854,16.0999999999796,0.));
#880=CARTESIAN_POINT('Origin',(11.2999999999854,14.0999999999796,0.));
#881=CARTESIAN_POINT('',(11.2999999999854,16.0999999999796,0.));
#882=CARTESIAN_POINT('',(11.2999999999854,16.0999999999796,0.));
#883=CARTESIAN_POINT('Origin',(11.2999999999854,14.0999999999796,0.));
#884=CARTESIAN_POINT('Origin',(-2.60000000002328,16.0999999999796,0.));
#885=CARTESIAN_POINT('',(-0.600000000023283,16.0999999999796,0.));
#886=CARTESIAN_POINT('',(-0.600000000023283,16.0999999999796,0.));
#887=CARTESIAN_POINT('',(-2.60000000002328,16.0999999999796,0.));
#888=CARTESIAN_POINT('Origin',(5.34999999998108,6.74999999997817,-2.));
#889=CARTESIAN_POINT('',(10.7,6.5,-2.));
#890=CARTESIAN_POINT('',(4.7,6.5,-2.));
#891=CARTESIAN_POINT('',(5.02499999999054,6.5,-2.));
#892=CARTESIAN_POINT('',(4.7,3.5,-2.));
#893=CARTESIAN_POINT('',(4.7,5.12499999998909,-2.));
#894=CARTESIAN_POINT('',(10.7,3.5,-2.));
#895=CARTESIAN_POINT('',(8.02499999999054,3.5,-2.));
#896=CARTESIAN_POINT('',(10.7,6.62499999998909,-2.));
#897=CARTESIAN_POINT('Origin',(-0.600000000023284,-0.600000000023283,0.));
#898=CARTESIAN_POINT('',(-0.600000000023284,-2.60000000002328,0.));
#899=CARTESIAN_POINT('',(-0.600000000023284,-2.60000000002328,0.));
#900=CARTESIAN_POINT('',(-2.60000000002328,-0.600000000023283,0.));
#901=CARTESIAN_POINT('Origin',(-0.600000000023284,-0.600000000023283,0.));
#902=CARTESIAN_POINT('',(-2.60000000002328,-0.600000000023283,0.));
#903=CARTESIAN_POINT('Origin',(5.34999999998108,6.74999999997817,0.));
#904=CARTESIAN_POINT('',(13.2999999999854,-2.60000000002328,0.));
#905=CARTESIAN_POINT('',(-2.60000000002328,14.0999999999796,0.));
#906=CARTESIAN_POINT('Origin',(-0.600000000023284,14.0999999999796,0.));
#907=CARTESIAN_POINT('',(-2.60000000002328,-2.60000000002328,0.));
#908=CARTESIAN_POINT('',(-1.30000000002328,-1.30000000002328,0.));
#909=CARTESIAN_POINT('',(11.9999999999854,-1.30000000002328,0.));
#910=CARTESIAN_POINT('',(-1.30000000002328,-1.30000000002328,0.));
#911=CARTESIAN_POINT('',(-1.30000000002329,14.7999999999796,0.));
#912=CARTESIAN_POINT('',(-1.30000000002329,14.7999999999796,0.));
#913=CARTESIAN_POINT('',(11.9999999999854,14.7999999999796,0.));
#914=CARTESIAN_POINT('',(11.9999999999854,14.7999999999796,0.));
#915=CARTESIAN_POINT('',(11.9999999999854,-1.30000000002328,0.));
#916=CARTESIAN_POINT('Origin',(13.2999999999854,-2.60000000002328,0.));
#917=CARTESIAN_POINT('Origin',(-0.600000000023284,14.0999999999796,0.));
#918=CARTESIAN_POINT('',(-2.60000000002328,14.0999999999796,0.));
#919=CARTESIAN_POINT('Origin',(4.7,6.5,0.));
#920=CARTESIAN_POINT('',(4.7,6.5,0.));
#921=CARTESIAN_POINT('',(10.7,6.5,0.));
#922=CARTESIAN_POINT('',(5.02499999999054,6.5,0.));
#923=CARTESIAN_POINT('',(4.7,6.5,0.));
#924=CARTESIAN_POINT('',(10.7,6.5,0.));
#925=CARTESIAN_POINT('Origin',(4.7,3.5,0.));
#926=CARTESIAN_POINT('',(4.7,3.5,0.));
#927=CARTESIAN_POINT('',(4.7,5.12499999998909,0.));
#928=CARTESIAN_POINT('',(4.7,3.5,0.));
#929=CARTESIAN_POINT('Origin',(10.7,3.5,0.));
#930=CARTESIAN_POINT('',(10.7,3.5,0.));
#931=CARTESIAN_POINT('',(8.02499999999054,3.5,0.));
#932=CARTESIAN_POINT('',(10.7,3.5,0.));
#933=CARTESIAN_POINT('Origin',(5.34999999998108,6.74999999997817,0.));
#934=CARTESIAN_POINT('',(10.7,13.5,0.));
#935=CARTESIAN_POINT('',(10.7,13.5,0.));
#936=CARTESIAN_POINT('',(-4.13318294712232E-15,13.5,0.));
#937=CARTESIAN_POINT('',(-4.44089209850063E-15,13.5,0.));
#938=CARTESIAN_POINT('',(0.,0.,0.));
#939=CARTESIAN_POINT('',(0.,0.,0.));
#940=CARTESIAN_POINT('',(10.7,0.,0.));
#941=CARTESIAN_POINT('',(10.7,0.,0.));
#942=CARTESIAN_POINT('',(10.7,13.5,0.));
#943=CARTESIAN_POINT('',(0.699999999999999,2.25,0.));
#944=CARTESIAN_POINT('Origin',(2.25,2.25,0.));
#945=CARTESIAN_POINT('Origin',(2.25,2.25,0.));
#946=CARTESIAN_POINT('',(0.699999999999999,2.25,2.));
#947=CARTESIAN_POINT('Origin',(2.25,2.25,2.));
#948=CARTESIAN_POINT('',(0.699999999999999,2.25,0.));
#949=CARTESIAN_POINT('Origin',(2.25,2.25,2.));
#950=CARTESIAN_POINT('Origin',(-2.60000000002328,-2.60000000002328,0.));
#951=CARTESIAN_POINT('Origin',(10.7,0.,0.));
#952=CARTESIAN_POINT('',(0.,0.,2.));
#953=CARTESIAN_POINT('',(0.,0.,0.));
#954=CARTESIAN_POINT('',(10.7,0.,2.));
#955=CARTESIAN_POINT('',(10.7,0.,2.));
#956=CARTESIAN_POINT('',(10.7,0.,0.));
#957=CARTESIAN_POINT('Origin',(10.7,13.5,0.));
#958=CARTESIAN_POINT('',(10.7,13.5,2.));
#959=CARTESIAN_POINT('',(10.7,13.5,2.));
#960=CARTESIAN_POINT('',(10.7,13.5,0.));
#961=CARTESIAN_POINT('Origin',(-4.13318294712232E-15,13.5,0.));
#962=CARTESIAN_POINT('',(-4.44089209850063E-15,13.5,2.));
#963=CARTESIAN_POINT('',(-4.44089209850063E-15,13.5,2.));
#964=CARTESIAN_POINT('',(-4.13318294712232E-15,13.5,0.));
#965=CARTESIAN_POINT('Origin',(0.,0.,0.));
#966=CARTESIAN_POINT('',(0.,0.,2.));
#967=CARTESIAN_POINT('Origin',(-1.30000000002328,-1.30000000002328,0.));
#968=CARTESIAN_POINT('',(11.9999999999854,-1.30000000002328,2.));
#969=CARTESIAN_POINT('',(11.9999999999854,-1.30000000002328,0.));
#970=CARTESIAN_POINT('',(-1.30000000002328,-1.30000000002328,2.));
#971=CARTESIAN_POINT('',(-1.30000000002328,-1.30000000002328,2.));
#972=CARTESIAN_POINT('',(-1.30000000002328,-1.30000000002328,0.));
#973=CARTESIAN_POINT('Origin',(-1.30000000002329,14.7999999999796,0.));
#974=CARTESIAN_POINT('',(-1.30000000002328,14.7999999999796,2.));
#975=CARTESIAN_POINT('',(-1.30000000002329,14.7999999999796,2.));
#976=CARTESIAN_POINT('',(-1.30000000002329,14.7999999999796,0.));
#977=CARTESIAN_POINT('Origin',(11.9999999999854,14.7999999999796,0.));
#978=CARTESIAN_POINT('',(11.9999999999854,14.7999999999796,2.));
#979=CARTESIAN_POINT('',(11.9999999999854,14.7999999999796,2.));
#980=CARTESIAN_POINT('',(11.9999999999854,14.7999999999796,0.));
#981=CARTESIAN_POINT('Origin',(11.9999999999854,-1.30000000002328,0.));
#982=CARTESIAN_POINT('',(11.9999999999854,-1.30000000002328,2.));
#983=CARTESIAN_POINT('Origin',(5.34999999998108,6.74999999997817,2.));
#984=CARTESIAN_POINT('',(0.,0.,0.));
#985=CARTESIAN_POINT('',(0.,0.,0.));
#986=UNCERTAINTY_MEASURE_WITH_UNIT(LENGTH_MEASURE(0.01),#990,
'DISTANCE_ACCURACY_VALUE',
'Maximum model space distance between geometric entities at asserted c
onnectivities');
#987=UNCERTAINTY_MEASURE_WITH_UNIT(LENGTH_MEASURE(0.01),#990,
'DISTANCE_ACCURACY_VALUE',
'Maximum model space distance between geometric entities at asserted c
onnectivities');
#988=(
GEOMETRIC_REPRESENTATION_CONTEXT(3)
GLOBAL_UNCERTAINTY_ASSIGNED_CONTEXT((#986))
GLOBAL_UNIT_ASSIGNED_CONTEXT((#990,#992,#993))
REPRESENTATION_CONTEXT('','3D')
);
#989=(
GEOMETRIC_REPRESENTATION_CONTEXT(3)
GLOBAL_UNCERTAINTY_ASSIGNED_CONTEXT((#987))
GLOBAL_UNIT_ASSIGNED_CONTEXT((#990,#992,#993))
REPRESENTATION_CONTEXT('','3D')
);
#990=(
LENGTH_UNIT()
NAMED_UNIT(*)
SI_UNIT(.MILLI.,.METRE.)
);
#991=(
LENGTH_UNIT()
NAMED_UNIT(*)
SI_UNIT(.CENTI.,.METRE.)
);
#992=(
NAMED_UNIT(*)
PLANE_ANGLE_UNIT()
SI_UNIT($,.RADIAN.)
);
#993=(
NAMED_UNIT(*)
SI_UNIT($,.STERADIAN.)
SOLID_ANGLE_UNIT()
);
#994=SHAPE_DEFINITION_REPRESENTATION(#995,#996);
#995=PRODUCT_DEFINITION_SHAPE('',$,#998);
#996=SHAPE_REPRESENTATION('',(#612),#988);
#997=PRODUCT_DEFINITION_CONTEXT('part definition',#1002,'design');
#998=PRODUCT_DEFINITION('VL53L0X_cover','VL53L0X_cover',#999,#997);
#999=PRODUCT_DEFINITION_FORMATION('',$,#1004);
#1000=PRODUCT_RELATED_PRODUCT_CATEGORY('VL53L0X_cover','VL53L0X_cover',
(#1004));
#1001=APPLICATION_PROTOCOL_DEFINITION('international standard',
'automotive_design',2009,#1002);
#1002=APPLICATION_CONTEXT(
'Core Data for Automotive Mechanical Design Process');
#1003=PRODUCT_CONTEXT('part definition',#1002,'mechanical');
#1004=PRODUCT('VL53L0X_cover','VL53L0X_cover',$,(#1003));
#1005=PRESENTATION_STYLE_ASSIGNMENT((#1007));
#1006=PRESENTATION_STYLE_ASSIGNMENT((#1008));
#1007=SURFACE_STYLE_USAGE(.BOTH.,#1011);
#1008=SURFACE_STYLE_USAGE(.BOTH.,#1012);
#1009=SURFACE_STYLE_RENDERING_WITH_PROPERTIES($,#1019,(#1010));
#1010=SURFACE_STYLE_TRANSPARENT(0.);
#1011=SURFACE_SIDE_STYLE('',(#1013,#1009));
#1012=SURFACE_SIDE_STYLE('',(#1014));
#1013=SURFACE_STYLE_FILL_AREA(#1015);
#1014=SURFACE_STYLE_FILL_AREA(#1016);
#1015=FILL_AREA_STYLE('',(#1017));
#1016=FILL_AREA_STYLE('',(#1018));
#1017=FILL_AREA_STYLE_COLOUR('',#1019);
#1018=FILL_AREA_STYLE_COLOUR('',#1020);
#1019=COLOUR_RGB('',0.749019607843137,0.749019607843137,0.749019607843137);
#1020=COLOUR_RGB('',1.,1.,0.);
ENDSEC;
END-ISO-10303-21;
