ISO-10303-21;
HEADER;
/* Generated by software containing ST-Developer
 * from STEP Tools, Inc. (www.steptools.com) 
 */

FILE_DESCRIPTION(
/* description */ (''),
/* implementation_level */ '2;1');

FILE_NAME(
/* name */ 'VL53L0X_case.stp',
/* time_stamp */ '2025-11-23T20:03:41+01:00',
/* author */ ('Wula'),
/* organization */ (''),
/* preprocessor_version */ 'ST-DEVELOPER v20',
/* originating_system */ 'Autodesk Inventor 2025',
/* authorisation */ '');

FILE_SCHEMA (('AUTOMOTIVE_DESIGN { 1 0 10303 214 3 1 1 }'));
ENDSEC;

DATA;
#10=MECHANICAL_DESIGN_GEOMETRIC_PRESENTATION_REPRESENTATION('',(#16),#1136);
#11=GEOMETRICALLY_BOUNDED_WIREFRAME_SHAPE_REPRESENTATION('',(#12),#1135);
#12=GEOMETRIC_CURVE_SET('Sketch1',(#1132));
#13=SHAPE_REPRESENTATION_RELATIONSHIP('SRR','None',#1143,#15);
#14=SHAPE_REPRESENTATION_RELATIONSHIP('SRR','None',#1143,#11);
#15=ADVANCED_BREP_SHAPE_REPRESENTATION('',(#17),#1135);
#16=STYLED_ITEM('',(#1152),#17);
#17=MANIFOLD_SOLID_BREP('Solid1',#694);
#18=CIRCLE('',#732,2.);
#19=CIRCLE('',#734,2.);
#20=CIRCLE('',#735,2.);
#21=CIRCLE('',#736,2.);
#22=CYLINDRICAL_SURFACE('',#731,2.);
#23=CYLINDRICAL_SURFACE('',#737,2.);
#24=CYLINDRICAL_SURFACE('',#738,2.);
#25=CYLINDRICAL_SURFACE('',#739,2.);
#26=FACE_BOUND('',#70,.T.);
#27=FACE_BOUND('',#79,.T.);
#28=FACE_BOUND('',#102,.T.);
#29=FACE_OUTER_BOUND('',#66,.T.);
#30=FACE_OUTER_BOUND('',#67,.T.);
#31=FACE_OUTER_BOUND('',#68,.T.);
#32=FACE_OUTER_BOUND('',#69,.T.);
#33=FACE_OUTER_BOUND('',#71,.T.);
#34=FACE_OUTER_BOUND('',#72,.T.);
#35=FACE_OUTER_BOUND('',#73,.T.);
#36=FACE_OUTER_BOUND('',#74,.T.);
#37=FACE_OUTER_BOUND('',#75,.T.);
#38=FACE_OUTER_BOUND('',#76,.T.);
#39=FACE_OUTER_BOUND('',#77,.T.);
#40=FACE_OUTER_BOUND('',#78,.T.);
#41=FACE_OUTER_BOUND('',#80,.T.);
#42=FACE_OUTER_BOUND('',#81,.T.);
#43=FACE_OUTER_BOUND('',#82,.T.);
#44=FACE_OUTER_BOUND('',#83,.T.);
#45=FACE_OUTER_BOUND('',#84,.T.);
#46=FACE_OUTER_BOUND('',#85,.T.);
#47=FACE_OUTER_BOUND('',#86,.T.);
#48=FACE_OUTER_BOUND('',#87,.T.);
#49=FACE_OUTER_BOUND('',#88,.T.);
#50=FACE_OUTER_BOUND('',#89,.T.);
#51=FACE_OUTER_BOUND('',#90,.T.);
#52=FACE_OUTER_BOUND('',#91,.T.);
#53=FACE_OUTER_BOUND('',#92,.T.);
#54=FACE_OUTER_BOUND('',#93,.T.);
#55=FACE_OUTER_BOUND('',#94,.T.);
#56=FACE_OUTER_BOUND('',#95,.T.);
#57=FACE_OUTER_BOUND('',#96,.T.);
#58=FACE_OUTER_BOUND('',#97,.T.);
#59=FACE_OUTER_BOUND('',#98,.T.);
#60=FACE_OUTER_BOUND('',#99,.T.);
#61=FACE_OUTER_BOUND('',#100,.T.);
#62=FACE_OUTER_BOUND('',#101,.T.);
#63=FACE_OUTER_BOUND('',#103,.T.);
#64=FACE_OUTER_BOUND('',#104,.T.);
#65=FACE_OUTER_BOUND('',#105,.T.);
#66=EDGE_LOOP('',(#436,#437,#438,#439));
#67=EDGE_LOOP('',(#440,#441,#442,#443));
#68=EDGE_LOOP('',(#444,#445,#446,#447));
#69=EDGE_LOOP('',(#448,#449,#450,#451,#452,#453,#454,#455,#456,#457,#458,
#459));
#70=EDGE_LOOP('',(#460,#461,#462,#463));
#71=EDGE_LOOP('',(#464,#465,#466,#467));
#72=EDGE_LOOP('',(#468,#469,#470,#471,#472,#473,#474,#475,#476,#477,#478,
#479));
#73=EDGE_LOOP('',(#480,#481,#482,#483));
#74=EDGE_LOOP('',(#484,#485,#486,#487));
#75=EDGE_LOOP('',(#488,#489,#490,#491));
#76=EDGE_LOOP('',(#492,#493,#494,#495));
#77=EDGE_LOOP('',(#496,#497,#498,#499));
#78=EDGE_LOOP('',(#500,#501,#502,#503,#504,#505,#506,#507,#508,#509,#510,
#511,#512,#513,#514,#515));
#79=EDGE_LOOP('',(#516,#517,#518,#519));
#80=EDGE_LOOP('',(#520,#521,#522,#523));
#81=EDGE_LOOP('',(#524,#525,#526,#527));
#82=EDGE_LOOP('',(#528,#529,#530,#531));
#83=EDGE_LOOP('',(#532,#533,#534,#535));
#84=EDGE_LOOP('',(#536,#537,#538,#539));
#85=EDGE_LOOP('',(#540,#541,#542,#543));
#86=EDGE_LOOP('',(#544,#545,#546,#547));
#87=EDGE_LOOP('',(#548,#549,#550,#551));
#88=EDGE_LOOP('',(#552,#553,#554,#555));
#89=EDGE_LOOP('',(#556,#557,#558,#559));
#90=EDGE_LOOP('',(#560,#561,#562,#563));
#91=EDGE_LOOP('',(#564,#565,#566,#567));
#92=EDGE_LOOP('',(#568,#569,#570,#571));
#93=EDGE_LOOP('',(#572,#573,#574,#575));
#94=EDGE_LOOP('',(#576,#577,#578,#579));
#95=EDGE_LOOP('',(#580,#581,#582,#583));
#96=EDGE_LOOP('',(#584,#585,#586,#587));
#97=EDGE_LOOP('',(#588,#589,#590,#591));
#98=EDGE_LOOP('',(#592,#593,#594,#595));
#99=EDGE_LOOP('',(#596,#597,#598,#599));
#100=EDGE_LOOP('',(#600,#601,#602,#603));
#101=EDGE_LOOP('',(#604,#605,#606,#607));
#102=EDGE_LOOP('',(#608,#609,#610,#611));
#103=EDGE_LOOP('',(#612,#613,#614,#615));
#104=EDGE_LOOP('',(#616,#617,#618,#619));
#105=EDGE_LOOP('',(#620,#621,#622,#623));
#106=ELLIPSE('',#718,2.82842712474619,2.);
#107=ELLIPSE('',#721,2.82842712474619,2.);
#108=ELLIPSE('',#727,2.82842712474619,2.);
#109=ELLIPSE('',#729,2.82842712474619,2.);
#110=LINE('',#944,#196);
#111=LINE('',#948,#197);
#112=LINE('',#949,#198);
#113=LINE('',#952,#199);
#114=LINE('',#954,#200);
#115=LINE('',#955,#201);
#116=LINE('',#958,#202);
#117=LINE('',#961,#203);
#118=LINE('',#964,#204);
#119=LINE('',#966,#205);
#120=LINE('',#968,#206);
#121=LINE('',#970,#207);
#122=LINE('',#972,#208);
#123=LINE('',#974,#209);
#124=LINE('',#976,#210);
#125=LINE('',#978,#211);
#126=LINE('',#980,#212);
#127=LINE('',#982,#213);
#128=LINE('',#983,#214);
#129=LINE('',#986,#215);
#130=LINE('',#988,#216);
#131=LINE('',#990,#217);
#132=LINE('',#991,#218);
#133=LINE('',#994,#219);
#134=LINE('',#995,#220);
#135=LINE('',#998,#221);
#136=LINE('',#1000,#222);
#137=LINE('',#1002,#223);
#138=LINE('',#1004,#224);
#139=LINE('',#1006,#225);
#140=LINE('',#1008,#226);
#141=LINE('',#1010,#227);
#142=LINE('',#1012,#228);
#143=LINE('',#1014,#229);
#144=LINE('',#1015,#230);
#145=LINE('',#1017,#231);
#146=LINE('',#1019,#232);
#147=LINE('',#1021,#233);
#148=LINE('',#1022,#234);
#149=LINE('',#1026,#235);
#150=LINE('',#1029,#236);
#151=LINE('',#1032,#237);
#152=LINE('',#1036,#238);
#153=LINE('',#1039,#239);
#154=LINE('',#1042,#240);
#155=LINE('',#1044,#241);
#156=LINE('',#1045,#242);
#157=LINE('',#1049,#243);
#158=LINE('',#1052,#244);
#159=LINE('',#1054,#245);
#160=LINE('',#1055,#246);
#161=LINE('',#1058,#247);
#162=LINE('',#1060,#248);
#163=LINE('',#1062,#249);
#164=LINE('',#1063,#250);
#165=LINE('',#1065,#251);
#166=LINE('',#1067,#252);
#167=LINE('',#1069,#253);
#168=LINE('',#1071,#254);
#169=LINE('',#1073,#255);
#170=LINE('',#1078,#256);
#171=LINE('',#1079,#257);
#172=LINE('',#1082,#258);
#173=LINE('',#1083,#259);
#174=LINE('',#1085,#260);
#175=LINE('',#1089,#261);
#176=LINE('',#1090,#262);
#177=LINE('',#1093,#263);
#178=LINE('',#1094,#264);
#179=LINE('',#1096,#265);
#180=LINE('',#1100,#266);
#181=LINE('',#1102,#267);
#182=LINE('',#1103,#268);
#183=LINE('',#1106,#269);
#184=LINE('',#1107,#270);
#185=LINE('',#1110,#271);
#186=LINE('',#1111,#272);
#187=LINE('',#1113,#273);
#188=LINE('',#1117,#274);
#189=LINE('',#1119,#275);
#190=LINE('',#1121,#276);
#191=LINE('',#1122,#277);
#192=LINE('',#1124,#278);
#193=LINE('',#1125,#279);
#194=LINE('',#1127,#280);
#195=LINE('',#1129,#281);
#196=VECTOR('',#766,10.);
#197=VECTOR('',#769,10.);
#198=VECTOR('',#770,10.);
#199=VECTOR('',#773,10.);
#200=VECTOR('',#774,10.);
#201=VECTOR('',#775,10.);
#202=VECTOR('',#778,10.);
#203=VECTOR('',#781,10.);
#204=VECTOR('',#784,10.);
#205=VECTOR('',#785,10.);
#206=VECTOR('',#786,10.);
#207=VECTOR('',#787,10.);
#208=VECTOR('',#788,10.);
#209=VECTOR('',#789,10.);
#210=VECTOR('',#790,10.);
#211=VECTOR('',#791,10.);
#212=VECTOR('',#792,10.);
#213=VECTOR('',#793,10.);
#214=VECTOR('',#794,10.);
#215=VECTOR('',#795,10.);
#216=VECTOR('',#796,10.);
#217=VECTOR('',#797,10.);
#218=VECTOR('',#798,10.);
#219=VECTOR('',#801,10.);
#220=VECTOR('',#802,10.);
#221=VECTOR('',#805,10.);
#222=VECTOR('',#806,10.);
#223=VECTOR('',#807,10.);
#224=VECTOR('',#808,10.);
#225=VECTOR('',#809,10.);
#226=VECTOR('',#810,10.);
#227=VECTOR('',#811,10.);
#228=VECTOR('',#812,10.);
#229=VECTOR('',#813,10.);
#230=VECTOR('',#814,10.);
#231=VECTOR('',#817,10.);
#232=VECTOR('',#818,10.);
#233=VECTOR('',#819,10.);
#234=VECTOR('',#820,10.);
#235=VECTOR('',#825,10.);
#236=VECTOR('',#828,10.);
#237=VECTOR('',#833,10.);
#238=VECTOR('',#838,10.);
#239=VECTOR('',#841,10.);
#240=VECTOR('',#844,10.);
#241=VECTOR('',#845,10.);
#242=VECTOR('',#846,10.);
#243=VECTOR('',#849,10.);
#244=VECTOR('',#852,10.);
#245=VECTOR('',#853,10.);
#246=VECTOR('',#854,10.);
#247=VECTOR('',#855,10.);
#248=VECTOR('',#856,10.);
#249=VECTOR('',#857,10.);
#250=VECTOR('',#858,10.);
#251=VECTOR('',#861,10.);
#252=VECTOR('',#864,10.);
#253=VECTOR('',#867,10.);
#254=VECTOR('',#870,10.);
#255=VECTOR('',#873,10.);
#256=VECTOR('',#880,10.);
#257=VECTOR('',#881,10.);
#258=VECTOR('',#884,10.);
#259=VECTOR('',#885,10.);
#260=VECTOR('',#888,10.);
#261=VECTOR('',#893,10.);
#262=VECTOR('',#894,10.);
#263=VECTOR('',#897,10.);
#264=VECTOR('',#898,10.);
#265=VECTOR('',#901,10.);
#266=VECTOR('',#906,10.);
#267=VECTOR('',#907,10.);
#268=VECTOR('',#908,10.);
#269=VECTOR('',#911,10.);
#270=VECTOR('',#912,10.);
#271=VECTOR('',#915,10.);
#272=VECTOR('',#916,10.);
#273=VECTOR('',#919,10.);
#274=VECTOR('',#922,10.);
#275=VECTOR('',#923,10.);
#276=VECTOR('',#924,10.);
#277=VECTOR('',#925,10.);
#278=VECTOR('',#928,10.);
#279=VECTOR('',#929,10.);
#280=VECTOR('',#932,10.);
#281=VECTOR('',#935,10.);
#282=VERTEX_POINT('',#942);
#283=VERTEX_POINT('',#943);
#284=VERTEX_POINT('',#945);
#285=VERTEX_POINT('',#947);
#286=VERTEX_POINT('',#951);
#287=VERTEX_POINT('',#953);
#288=VERTEX_POINT('',#957);
#289=VERTEX_POINT('',#959);
#290=VERTEX_POINT('',#963);
#291=VERTEX_POINT('',#965);
#292=VERTEX_POINT('',#967);
#293=VERTEX_POINT('',#969);
#294=VERTEX_POINT('',#971);
#295=VERTEX_POINT('',#973);
#296=VERTEX_POINT('',#975);
#297=VERTEX_POINT('',#977);
#298=VERTEX_POINT('',#979);
#299=VERTEX_POINT('',#981);
#300=VERTEX_POINT('',#984);
#301=VERTEX_POINT('',#985);
#302=VERTEX_POINT('',#987);
#303=VERTEX_POINT('',#989);
#304=VERTEX_POINT('',#993);
#305=VERTEX_POINT('',#997);
#306=VERTEX_POINT('',#999);
#307=VERTEX_POINT('',#1001);
#308=VERTEX_POINT('',#1003);
#309=VERTEX_POINT('',#1005);
#310=VERTEX_POINT('',#1007);
#311=VERTEX_POINT('',#1009);
#312=VERTEX_POINT('',#1011);
#313=VERTEX_POINT('',#1013);
#314=VERTEX_POINT('',#1018);
#315=VERTEX_POINT('',#1020);
#316=VERTEX_POINT('',#1024);
#317=VERTEX_POINT('',#1028);
#318=VERTEX_POINT('',#1034);
#319=VERTEX_POINT('',#1038);
#320=VERTEX_POINT('',#1041);
#321=VERTEX_POINT('',#1043);
#322=VERTEX_POINT('',#1046);
#323=VERTEX_POINT('',#1048);
#324=VERTEX_POINT('',#1051);
#325=VERTEX_POINT('',#1053);
#326=VERTEX_POINT('',#1056);
#327=VERTEX_POINT('',#1057);
#328=VERTEX_POINT('',#1059);
#329=VERTEX_POINT('',#1061);
#330=VERTEX_POINT('',#1077);
#331=VERTEX_POINT('',#1081);
#332=VERTEX_POINT('',#1088);
#333=VERTEX_POINT('',#1092);
#334=VERTEX_POINT('',#1099);
#335=VERTEX_POINT('',#1101);
#336=VERTEX_POINT('',#1105);
#337=VERTEX_POINT('',#1109);
#338=VERTEX_POINT('',#1115);
#339=VERTEX_POINT('',#1116);
#340=VERTEX_POINT('',#1118);
#341=VERTEX_POINT('',#1120);
#342=EDGE_CURVE('',#282,#283,#110,.T.);
#343=EDGE_CURVE('',#283,#284,#106,.F.);
#344=EDGE_CURVE('',#284,#285,#111,.T.);
#345=EDGE_CURVE('',#285,#282,#112,.T.);
#346=EDGE_CURVE('',#285,#286,#113,.T.);
#347=EDGE_CURVE('',#286,#287,#114,.T.);
#348=EDGE_CURVE('',#287,#282,#115,.T.);
#349=EDGE_CURVE('',#286,#288,#116,.T.);
#350=EDGE_CURVE('',#288,#289,#107,.F.);
#351=EDGE_CURVE('',#289,#287,#117,.T.);
#352=EDGE_CURVE('',#283,#290,#118,.T.);
#353=EDGE_CURVE('',#282,#291,#119,.T.);
#354=EDGE_CURVE('',#292,#291,#120,.T.);
#355=EDGE_CURVE('',#293,#292,#121,.T.);
#356=EDGE_CURVE('',#294,#293,#122,.T.);
#357=EDGE_CURVE('',#295,#294,#123,.T.);
#358=EDGE_CURVE('',#296,#295,#124,.T.);
#359=EDGE_CURVE('',#296,#297,#125,.T.);
#360=EDGE_CURVE('',#297,#298,#126,.T.);
#361=EDGE_CURVE('',#298,#299,#127,.T.);
#362=EDGE_CURVE('',#290,#299,#128,.T.);
#363=EDGE_CURVE('',#300,#301,#129,.T.);
#364=EDGE_CURVE('',#301,#302,#130,.T.);
#365=EDGE_CURVE('',#302,#303,#131,.T.);
#366=EDGE_CURVE('',#303,#300,#132,.T.);
#367=EDGE_CURVE('',#287,#304,#133,.T.);
#368=EDGE_CURVE('',#291,#304,#134,.T.);
#369=EDGE_CURVE('',#305,#289,#135,.T.);
#370=EDGE_CURVE('',#306,#305,#136,.T.);
#371=EDGE_CURVE('',#306,#307,#137,.T.);
#372=EDGE_CURVE('',#307,#308,#138,.T.);
#373=EDGE_CURVE('',#308,#309,#139,.T.);
#374=EDGE_CURVE('',#310,#309,#140,.T.);
#375=EDGE_CURVE('',#311,#310,#141,.T.);
#376=EDGE_CURVE('',#312,#311,#142,.T.);
#377=EDGE_CURVE('',#312,#313,#143,.T.);
#378=EDGE_CURVE('',#304,#313,#144,.T.);
#379=EDGE_CURVE('',#293,#312,#145,.T.);
#380=EDGE_CURVE('',#312,#314,#146,.T.);
#381=EDGE_CURVE('',#314,#315,#147,.T.);
#382=EDGE_CURVE('',#315,#293,#148,.T.);
#383=EDGE_CURVE('',#311,#316,#108,.F.);
#384=EDGE_CURVE('',#316,#314,#149,.T.);
#385=EDGE_CURVE('',#315,#317,#150,.T.);
#386=EDGE_CURVE('',#317,#294,#109,.F.);
#387=EDGE_CURVE('',#313,#292,#151,.T.);
#388=EDGE_CURVE('',#318,#305,#18,.T.);
#389=EDGE_CURVE('',#288,#318,#152,.T.);
#390=EDGE_CURVE('',#318,#319,#153,.T.);
#391=EDGE_CURVE('',#290,#319,#19,.T.);
#392=EDGE_CURVE('',#299,#320,#154,.T.);
#393=EDGE_CURVE('',#320,#321,#155,.T.);
#394=EDGE_CURVE('',#321,#296,#156,.T.);
#395=EDGE_CURVE('',#322,#295,#20,.T.);
#396=EDGE_CURVE('',#322,#323,#157,.T.);
#397=EDGE_CURVE('',#310,#323,#21,.T.);
#398=EDGE_CURVE('',#309,#324,#158,.T.);
#399=EDGE_CURVE('',#324,#325,#159,.T.);
#400=EDGE_CURVE('',#325,#306,#160,.T.);
#401=EDGE_CURVE('',#326,#327,#161,.T.);
#402=EDGE_CURVE('',#327,#328,#162,.T.);
#403=EDGE_CURVE('',#328,#329,#163,.T.);
#404=EDGE_CURVE('',#329,#326,#164,.T.);
#405=EDGE_CURVE('',#319,#284,#165,.T.);
#406=EDGE_CURVE('',#323,#316,#166,.T.);
#407=EDGE_CURVE('',#317,#322,#167,.T.);
#408=EDGE_CURVE('',#316,#317,#168,.T.);
#409=EDGE_CURVE('',#284,#288,#169,.T.);
#410=EDGE_CURVE('',#308,#330,#170,.T.);
#411=EDGE_CURVE('',#330,#324,#171,.T.);
#412=EDGE_CURVE('',#307,#331,#172,.T.);
#413=EDGE_CURVE('',#331,#330,#173,.T.);
#414=EDGE_CURVE('',#325,#331,#174,.T.);
#415=EDGE_CURVE('',#298,#332,#175,.T.);
#416=EDGE_CURVE('',#332,#320,#176,.T.);
#417=EDGE_CURVE('',#297,#333,#177,.T.);
#418=EDGE_CURVE('',#333,#332,#178,.T.);
#419=EDGE_CURVE('',#321,#333,#179,.T.);
#420=EDGE_CURVE('',#300,#334,#180,.T.);
#421=EDGE_CURVE('',#335,#334,#181,.T.);
#422=EDGE_CURVE('',#301,#335,#182,.T.);
#423=EDGE_CURVE('',#303,#336,#183,.T.);
#424=EDGE_CURVE('',#334,#336,#184,.T.);
#425=EDGE_CURVE('',#302,#337,#185,.T.);
#426=EDGE_CURVE('',#336,#337,#186,.T.);
#427=EDGE_CURVE('',#337,#335,#187,.T.);
#428=EDGE_CURVE('',#338,#339,#188,.T.);
#429=EDGE_CURVE('',#340,#338,#189,.T.);
#430=EDGE_CURVE('',#341,#340,#190,.T.);
#431=EDGE_CURVE('',#339,#341,#191,.T.);
#432=EDGE_CURVE('',#339,#326,#192,.T.);
#433=EDGE_CURVE('',#338,#329,#193,.T.);
#434=EDGE_CURVE('',#340,#328,#194,.T.);
#435=EDGE_CURVE('',#341,#327,#195,.T.);
#436=ORIENTED_EDGE('',*,*,#342,.T.);
#437=ORIENTED_EDGE('',*,*,#343,.T.);
#438=ORIENTED_EDGE('',*,*,#344,.T.);
#439=ORIENTED_EDGE('',*,*,#345,.T.);
#440=ORIENTED_EDGE('',*,*,#346,.T.);
#441=ORIENTED_EDGE('',*,*,#347,.T.);
#442=ORIENTED_EDGE('',*,*,#348,.T.);
#443=ORIENTED_EDGE('',*,*,#345,.F.);
#444=ORIENTED_EDGE('',*,*,#349,.T.);
#445=ORIENTED_EDGE('',*,*,#350,.T.);
#446=ORIENTED_EDGE('',*,*,#351,.T.);
#447=ORIENTED_EDGE('',*,*,#347,.F.);
#448=ORIENTED_EDGE('',*,*,#352,.F.);
#449=ORIENTED_EDGE('',*,*,#342,.F.);
#450=ORIENTED_EDGE('',*,*,#353,.T.);
#451=ORIENTED_EDGE('',*,*,#354,.F.);
#452=ORIENTED_EDGE('',*,*,#355,.F.);
#453=ORIENTED_EDGE('',*,*,#356,.F.);
#454=ORIENTED_EDGE('',*,*,#357,.F.);
#455=ORIENTED_EDGE('',*,*,#358,.F.);
#456=ORIENTED_EDGE('',*,*,#359,.T.);
#457=ORIENTED_EDGE('',*,*,#360,.T.);
#458=ORIENTED_EDGE('',*,*,#361,.T.);
#459=ORIENTED_EDGE('',*,*,#362,.F.);
#460=ORIENTED_EDGE('',*,*,#363,.T.);
#461=ORIENTED_EDGE('',*,*,#364,.T.);
#462=ORIENTED_EDGE('',*,*,#365,.T.);
#463=ORIENTED_EDGE('',*,*,#366,.T.);
#464=ORIENTED_EDGE('',*,*,#348,.F.);
#465=ORIENTED_EDGE('',*,*,#367,.T.);
#466=ORIENTED_EDGE('',*,*,#368,.F.);
#467=ORIENTED_EDGE('',*,*,#353,.F.);
#468=ORIENTED_EDGE('',*,*,#351,.F.);
#469=ORIENTED_EDGE('',*,*,#369,.F.);
#470=ORIENTED_EDGE('',*,*,#370,.F.);
#471=ORIENTED_EDGE('',*,*,#371,.T.);
#472=ORIENTED_EDGE('',*,*,#372,.T.);
#473=ORIENTED_EDGE('',*,*,#373,.T.);
#474=ORIENTED_EDGE('',*,*,#374,.F.);
#475=ORIENTED_EDGE('',*,*,#375,.F.);
#476=ORIENTED_EDGE('',*,*,#376,.F.);
#477=ORIENTED_EDGE('',*,*,#377,.T.);
#478=ORIENTED_EDGE('',*,*,#378,.F.);
#479=ORIENTED_EDGE('',*,*,#367,.F.);
#480=ORIENTED_EDGE('',*,*,#379,.T.);
#481=ORIENTED_EDGE('',*,*,#380,.T.);
#482=ORIENTED_EDGE('',*,*,#381,.T.);
#483=ORIENTED_EDGE('',*,*,#382,.T.);
#484=ORIENTED_EDGE('',*,*,#376,.T.);
#485=ORIENTED_EDGE('',*,*,#383,.T.);
#486=ORIENTED_EDGE('',*,*,#384,.T.);
#487=ORIENTED_EDGE('',*,*,#380,.F.);
#488=ORIENTED_EDGE('',*,*,#385,.T.);
#489=ORIENTED_EDGE('',*,*,#386,.T.);
#490=ORIENTED_EDGE('',*,*,#356,.T.);
#491=ORIENTED_EDGE('',*,*,#382,.F.);
#492=ORIENTED_EDGE('',*,*,#379,.F.);
#493=ORIENTED_EDGE('',*,*,#355,.T.);
#494=ORIENTED_EDGE('',*,*,#387,.F.);
#495=ORIENTED_EDGE('',*,*,#377,.F.);
#496=ORIENTED_EDGE('',*,*,#388,.T.);
#497=ORIENTED_EDGE('',*,*,#369,.T.);
#498=ORIENTED_EDGE('',*,*,#350,.F.);
#499=ORIENTED_EDGE('',*,*,#389,.T.);
#500=ORIENTED_EDGE('',*,*,#388,.F.);
#501=ORIENTED_EDGE('',*,*,#390,.T.);
#502=ORIENTED_EDGE('',*,*,#391,.F.);
#503=ORIENTED_EDGE('',*,*,#362,.T.);
#504=ORIENTED_EDGE('',*,*,#392,.T.);
#505=ORIENTED_EDGE('',*,*,#393,.T.);
#506=ORIENTED_EDGE('',*,*,#394,.T.);
#507=ORIENTED_EDGE('',*,*,#358,.T.);
#508=ORIENTED_EDGE('',*,*,#395,.F.);
#509=ORIENTED_EDGE('',*,*,#396,.T.);
#510=ORIENTED_EDGE('',*,*,#397,.F.);
#511=ORIENTED_EDGE('',*,*,#374,.T.);
#512=ORIENTED_EDGE('',*,*,#398,.T.);
#513=ORIENTED_EDGE('',*,*,#399,.T.);
#514=ORIENTED_EDGE('',*,*,#400,.T.);
#515=ORIENTED_EDGE('',*,*,#370,.T.);
#516=ORIENTED_EDGE('',*,*,#401,.T.);
#517=ORIENTED_EDGE('',*,*,#402,.T.);
#518=ORIENTED_EDGE('',*,*,#403,.T.);
#519=ORIENTED_EDGE('',*,*,#404,.T.);
#520=ORIENTED_EDGE('',*,*,#391,.T.);
#521=ORIENTED_EDGE('',*,*,#405,.T.);
#522=ORIENTED_EDGE('',*,*,#343,.F.);
#523=ORIENTED_EDGE('',*,*,#352,.T.);
#524=ORIENTED_EDGE('',*,*,#397,.T.);
#525=ORIENTED_EDGE('',*,*,#406,.T.);
#526=ORIENTED_EDGE('',*,*,#383,.F.);
#527=ORIENTED_EDGE('',*,*,#375,.T.);
#528=ORIENTED_EDGE('',*,*,#395,.T.);
#529=ORIENTED_EDGE('',*,*,#357,.T.);
#530=ORIENTED_EDGE('',*,*,#386,.F.);
#531=ORIENTED_EDGE('',*,*,#407,.T.);
#532=ORIENTED_EDGE('',*,*,#406,.F.);
#533=ORIENTED_EDGE('',*,*,#396,.F.);
#534=ORIENTED_EDGE('',*,*,#407,.F.);
#535=ORIENTED_EDGE('',*,*,#408,.F.);
#536=ORIENTED_EDGE('',*,*,#344,.F.);
#537=ORIENTED_EDGE('',*,*,#409,.T.);
#538=ORIENTED_EDGE('',*,*,#349,.F.);
#539=ORIENTED_EDGE('',*,*,#346,.F.);
#540=ORIENTED_EDGE('',*,*,#384,.F.);
#541=ORIENTED_EDGE('',*,*,#408,.T.);
#542=ORIENTED_EDGE('',*,*,#385,.F.);
#543=ORIENTED_EDGE('',*,*,#381,.F.);
#544=ORIENTED_EDGE('',*,*,#387,.T.);
#545=ORIENTED_EDGE('',*,*,#354,.T.);
#546=ORIENTED_EDGE('',*,*,#368,.T.);
#547=ORIENTED_EDGE('',*,*,#378,.T.);
#548=ORIENTED_EDGE('',*,*,#373,.F.);
#549=ORIENTED_EDGE('',*,*,#410,.T.);
#550=ORIENTED_EDGE('',*,*,#411,.T.);
#551=ORIENTED_EDGE('',*,*,#398,.F.);
#552=ORIENTED_EDGE('',*,*,#372,.F.);
#553=ORIENTED_EDGE('',*,*,#412,.T.);
#554=ORIENTED_EDGE('',*,*,#413,.T.);
#555=ORIENTED_EDGE('',*,*,#410,.F.);
#556=ORIENTED_EDGE('',*,*,#371,.F.);
#557=ORIENTED_EDGE('',*,*,#400,.F.);
#558=ORIENTED_EDGE('',*,*,#414,.T.);
#559=ORIENTED_EDGE('',*,*,#412,.F.);
#560=ORIENTED_EDGE('',*,*,#414,.F.);
#561=ORIENTED_EDGE('',*,*,#399,.F.);
#562=ORIENTED_EDGE('',*,*,#411,.F.);
#563=ORIENTED_EDGE('',*,*,#413,.F.);
#564=ORIENTED_EDGE('',*,*,#361,.F.);
#565=ORIENTED_EDGE('',*,*,#415,.T.);
#566=ORIENTED_EDGE('',*,*,#416,.T.);
#567=ORIENTED_EDGE('',*,*,#392,.F.);
#568=ORIENTED_EDGE('',*,*,#360,.F.);
#569=ORIENTED_EDGE('',*,*,#417,.T.);
#570=ORIENTED_EDGE('',*,*,#418,.T.);
#571=ORIENTED_EDGE('',*,*,#415,.F.);
#572=ORIENTED_EDGE('',*,*,#359,.F.);
#573=ORIENTED_EDGE('',*,*,#394,.F.);
#574=ORIENTED_EDGE('',*,*,#419,.T.);
#575=ORIENTED_EDGE('',*,*,#417,.F.);
#576=ORIENTED_EDGE('',*,*,#419,.F.);
#577=ORIENTED_EDGE('',*,*,#393,.F.);
#578=ORIENTED_EDGE('',*,*,#416,.F.);
#579=ORIENTED_EDGE('',*,*,#418,.F.);
#580=ORIENTED_EDGE('',*,*,#363,.F.);
#581=ORIENTED_EDGE('',*,*,#420,.T.);
#582=ORIENTED_EDGE('',*,*,#421,.F.);
#583=ORIENTED_EDGE('',*,*,#422,.F.);
#584=ORIENTED_EDGE('',*,*,#366,.F.);
#585=ORIENTED_EDGE('',*,*,#423,.T.);
#586=ORIENTED_EDGE('',*,*,#424,.F.);
#587=ORIENTED_EDGE('',*,*,#420,.F.);
#588=ORIENTED_EDGE('',*,*,#365,.F.);
#589=ORIENTED_EDGE('',*,*,#425,.T.);
#590=ORIENTED_EDGE('',*,*,#426,.F.);
#591=ORIENTED_EDGE('',*,*,#423,.F.);
#592=ORIENTED_EDGE('',*,*,#364,.F.);
#593=ORIENTED_EDGE('',*,*,#422,.T.);
#594=ORIENTED_EDGE('',*,*,#427,.F.);
#595=ORIENTED_EDGE('',*,*,#425,.F.);
#596=ORIENTED_EDGE('',*,*,#428,.F.);
#597=ORIENTED_EDGE('',*,*,#429,.F.);
#598=ORIENTED_EDGE('',*,*,#430,.F.);
#599=ORIENTED_EDGE('',*,*,#431,.F.);
#600=ORIENTED_EDGE('',*,*,#428,.T.);
#601=ORIENTED_EDGE('',*,*,#432,.T.);
#602=ORIENTED_EDGE('',*,*,#404,.F.);
#603=ORIENTED_EDGE('',*,*,#433,.F.);
#604=ORIENTED_EDGE('',*,*,#429,.T.);
#605=ORIENTED_EDGE('',*,*,#433,.T.);
#606=ORIENTED_EDGE('',*,*,#403,.F.);
#607=ORIENTED_EDGE('',*,*,#434,.F.);
#608=ORIENTED_EDGE('',*,*,#421,.T.);
#609=ORIENTED_EDGE('',*,*,#424,.T.);
#610=ORIENTED_EDGE('',*,*,#426,.T.);
#611=ORIENTED_EDGE('',*,*,#427,.T.);
#612=ORIENTED_EDGE('',*,*,#430,.T.);
#613=ORIENTED_EDGE('',*,*,#434,.T.);
#614=ORIENTED_EDGE('',*,*,#402,.F.);
#615=ORIENTED_EDGE('',*,*,#435,.F.);
#616=ORIENTED_EDGE('',*,*,#431,.T.);
#617=ORIENTED_EDGE('',*,*,#435,.T.);
#618=ORIENTED_EDGE('',*,*,#401,.F.);
#619=ORIENTED_EDGE('',*,*,#432,.F.);
#620=ORIENTED_EDGE('',*,*,#389,.F.);
#621=ORIENTED_EDGE('',*,*,#409,.F.);
#622=ORIENTED_EDGE('',*,*,#405,.F.);
#623=ORIENTED_EDGE('',*,*,#390,.F.);
#624=PLANE('',#717);
#625=PLANE('',#719);
#626=PLANE('',#720);
#627=PLANE('',#722);
#628=PLANE('',#723);
#629=PLANE('',#724);
#630=PLANE('',#725);
#631=PLANE('',#726);
#632=PLANE('',#728);
#633=PLANE('',#730);
#634=PLANE('',#733);
#635=PLANE('',#740);
#636=PLANE('',#741);
#637=PLANE('',#742);
#638=PLANE('',#743);
#639=PLANE('',#744);
#640=PLANE('',#745);
#641=PLANE('',#746);
#642=PLANE('',#747);
#643=PLANE('',#748);
#644=PLANE('',#749);
#645=PLANE('',#750);
#646=PLANE('',#751);
#647=PLANE('',#752);
#648=PLANE('',#753);
#649=PLANE('',#754);
#650=PLANE('',#755);
#651=PLANE('',#756);
#652=PLANE('',#757);
#653=PLANE('',#758);
#654=PLANE('',#759);
#655=PLANE('',#760);
#656=PLANE('',#761);
#657=ADVANCED_FACE('',(#29),#624,.T.);
#658=ADVANCED_FACE('',(#30),#625,.T.);
#659=ADVANCED_FACE('',(#31),#626,.T.);
#660=ADVANCED_FACE('',(#32,#26),#627,.T.);
#661=ADVANCED_FACE('',(#33),#628,.T.);
#662=ADVANCED_FACE('',(#34),#629,.T.);
#663=ADVANCED_FACE('',(#35),#630,.T.);
#664=ADVANCED_FACE('',(#36),#631,.T.);
#665=ADVANCED_FACE('',(#37),#632,.T.);
#666=ADVANCED_FACE('',(#38),#633,.T.);
#667=ADVANCED_FACE('',(#39),#22,.T.);
#668=ADVANCED_FACE('',(#40,#27),#634,.T.);
#669=ADVANCED_FACE('',(#41),#23,.T.);
#670=ADVANCED_FACE('',(#42),#24,.T.);
#671=ADVANCED_FACE('',(#43),#25,.T.);
#672=ADVANCED_FACE('',(#44),#635,.T.);
#673=ADVANCED_FACE('',(#45),#636,.F.);
#674=ADVANCED_FACE('',(#46),#637,.F.);
#675=ADVANCED_FACE('',(#47),#638,.T.);
#676=ADVANCED_FACE('',(#48),#639,.F.);
#677=ADVANCED_FACE('',(#49),#640,.F.);
#678=ADVANCED_FACE('',(#50),#641,.F.);
#679=ADVANCED_FACE('',(#51),#642,.F.);
#680=ADVANCED_FACE('',(#52),#643,.F.);
#681=ADVANCED_FACE('',(#53),#644,.F.);
#682=ADVANCED_FACE('',(#54),#645,.F.);
#683=ADVANCED_FACE('',(#55),#646,.F.);
#684=ADVANCED_FACE('',(#56),#647,.F.);
#685=ADVANCED_FACE('',(#57),#648,.F.);
#686=ADVANCED_FACE('',(#58),#649,.F.);
#687=ADVANCED_FACE('',(#59),#650,.F.);
#688=ADVANCED_FACE('',(#60),#651,.F.);
#689=ADVANCED_FACE('',(#61),#652,.T.);
#690=ADVANCED_FACE('',(#62,#28),#653,.T.);
#691=ADVANCED_FACE('',(#63),#654,.T.);
#692=ADVANCED_FACE('',(#64),#655,.T.);
#693=ADVANCED_FACE('',(#65),#656,.T.);
#694=CLOSED_SHELL('',(#657,#658,#659,#660,#661,#662,#663,#664,#665,#666,
#667,#668,#669,#670,#671,#672,#673,#674,#675,#676,#677,#678,#679,#680,#681,
#682,#683,#684,#685,#686,#687,#688,#689,#690,#691,#692,#693));
#695=DERIVED_UNIT_ELEMENT(#698,1.);
#696=DERIVED_UNIT_ELEMENT(#1138,-3.);
#697=DIMENSIONAL_EXPONENTS(0.,1.,0.,0.,0.,0.,0.);
#698=(
CONVERSION_BASED_UNIT('gram',#700)
MASS_UNIT()
NAMED_UNIT(#697)
);
#699=(
MASS_UNIT()
NAMED_UNIT(*)
SI_UNIT(.KILO.,.GRAM.)
);
#700=MASS_MEASURE_WITH_UNIT(MASS_MEASURE(0.001),#699);
#701=DERIVED_UNIT((#695,#696));
#702=MEASURE_REPRESENTATION_ITEM('density measure',
POSITIVE_RATIO_MEASURE(1.),#701);
#703=PROPERTY_DEFINITION_REPRESENTATION(#708,#705);
#704=PROPERTY_DEFINITION_REPRESENTATION(#709,#706);
#705=REPRESENTATION('material name',(#707),#1135);
#706=REPRESENTATION('density',(#702),#1135);
#707=DESCRIPTIVE_REPRESENTATION_ITEM('Generic','Generic');
#708=PROPERTY_DEFINITION('material property','material name',#1145);
#709=PROPERTY_DEFINITION('material property','density of part',#1145);
#710=DATE_TIME_ROLE('creation_date');
#711=APPLIED_DATE_AND_TIME_ASSIGNMENT(#712,#710,(#1145));
#712=DATE_AND_TIME(#713,#714);
#713=CALENDAR_DATE(2025,14,11);
#714=LOCAL_TIME(0,0,0.,#715);
#715=COORDINATED_UNIVERSAL_TIME_OFFSET(0,0,.BEHIND.);
#716=AXIS2_PLACEMENT_3D('',#940,#762,#763);
#717=AXIS2_PLACEMENT_3D('',#941,#764,#765);
#718=AXIS2_PLACEMENT_3D('',#946,#767,#768);
#719=AXIS2_PLACEMENT_3D('',#950,#771,#772);
#720=AXIS2_PLACEMENT_3D('',#956,#776,#777);
#721=AXIS2_PLACEMENT_3D('',#960,#779,#780);
#722=AXIS2_PLACEMENT_3D('',#962,#782,#783);
#723=AXIS2_PLACEMENT_3D('',#992,#799,#800);
#724=AXIS2_PLACEMENT_3D('',#996,#803,#804);
#725=AXIS2_PLACEMENT_3D('',#1016,#815,#816);
#726=AXIS2_PLACEMENT_3D('',#1023,#821,#822);
#727=AXIS2_PLACEMENT_3D('',#1025,#823,#824);
#728=AXIS2_PLACEMENT_3D('',#1027,#826,#827);
#729=AXIS2_PLACEMENT_3D('',#1030,#829,#830);
#730=AXIS2_PLACEMENT_3D('',#1031,#831,#832);
#731=AXIS2_PLACEMENT_3D('',#1033,#834,#835);
#732=AXIS2_PLACEMENT_3D('',#1035,#836,#837);
#733=AXIS2_PLACEMENT_3D('',#1037,#839,#840);
#734=AXIS2_PLACEMENT_3D('',#1040,#842,#843);
#735=AXIS2_PLACEMENT_3D('',#1047,#847,#848);
#736=AXIS2_PLACEMENT_3D('',#1050,#850,#851);
#737=AXIS2_PLACEMENT_3D('',#1064,#859,#860);
#738=AXIS2_PLACEMENT_3D('',#1066,#862,#863);
#739=AXIS2_PLACEMENT_3D('',#1068,#865,#866);
#740=AXIS2_PLACEMENT_3D('',#1070,#868,#869);
#741=AXIS2_PLACEMENT_3D('',#1072,#871,#872);
#742=AXIS2_PLACEMENT_3D('',#1074,#874,#875);
#743=AXIS2_PLACEMENT_3D('',#1075,#876,#877);
#744=AXIS2_PLACEMENT_3D('',#1076,#878,#879);
#745=AXIS2_PLACEMENT_3D('',#1080,#882,#883);
#746=AXIS2_PLACEMENT_3D('',#1084,#886,#887);
#747=AXIS2_PLACEMENT_3D('',#1086,#889,#890);
#748=AXIS2_PLACEMENT_3D('',#1087,#891,#892);
#749=AXIS2_PLACEMENT_3D('',#1091,#895,#896);
#750=AXIS2_PLACEMENT_3D('',#1095,#899,#900);
#751=AXIS2_PLACEMENT_3D('',#1097,#902,#903);
#752=AXIS2_PLACEMENT_3D('',#1098,#904,#905);
#753=AXIS2_PLACEMENT_3D('',#1104,#909,#910);
#754=AXIS2_PLACEMENT_3D('',#1108,#913,#914);
#755=AXIS2_PLACEMENT_3D('',#1112,#917,#918);
#756=AXIS2_PLACEMENT_3D('',#1114,#920,#921);
#757=AXIS2_PLACEMENT_3D('',#1123,#926,#927);
#758=AXIS2_PLACEMENT_3D('',#1126,#930,#931);
#759=AXIS2_PLACEMENT_3D('',#1128,#933,#934);
#760=AXIS2_PLACEMENT_3D('',#1130,#936,#937);
#761=AXIS2_PLACEMENT_3D('',#1131,#938,#939);
#762=DIRECTION('axis',(0.,0.,1.));
#763=DIRECTION('refdir',(1.,0.,0.));
#764=DIRECTION('center_axis',(0.707106781186548,8.44135730475016E-17,0.707106781186548));
#765=DIRECTION('ref_axis',(0.707106781186548,0.,-0.707106781186548));
#766=DIRECTION('',(-1.19378819852149E-16,1.,0.));
#767=DIRECTION('center_axis',(0.707106781186548,8.44135730475016E-17,0.707106781186548));
#768=DIRECTION('ref_axis',(0.707106781186547,9.81307786677359E-17,-0.707106781186547));
#769=DIRECTION('',(1.19378819852149E-16,-1.,0.));
#770=DIRECTION('',(0.577350269189625,-0.577350269189626,-0.577350269189626));
#771=DIRECTION('center_axis',(0.,-0.707106781186548,0.707106781186548));
#772=DIRECTION('ref_axis',(1.,0.,0.));
#773=DIRECTION('',(-1.,0.,0.));
#774=DIRECTION('',(-0.577350269189626,-0.577350269189626,-0.577350269189625));
#775=DIRECTION('',(1.,0.,0.));
#776=DIRECTION('center_axis',(-0.707106781186548,-1.47723752833128E-16,
0.707106781186547));
#777=DIRECTION('ref_axis',(0.707106781186547,0.,0.707106781186548));
#778=DIRECTION('',(-2.0891293474126E-16,1.,0.));
#779=DIRECTION('center_axis',(-0.707106781186548,-1.47723752833128E-16,
0.707106781186547));
#780=DIRECTION('ref_axis',(-0.707106781186547,-1.96261557335472E-16,-0.707106781186548));
#781=DIRECTION('',(2.0891293474126E-16,-1.,0.));
#782=DIRECTION('center_axis',(1.,1.19378819852149E-16,0.));
#783=DIRECTION('ref_axis',(-1.19378819852149E-16,1.,0.));
#784=DIRECTION('',(0.,0.,1.));
#785=DIRECTION('',(0.,0.,-1.));
#786=DIRECTION('',(0.,-1.,0.));
#787=DIRECTION('',(0.,0.,-1.));
#788=DIRECTION('',(-1.19378819852149E-16,1.,0.));
#789=DIRECTION('',(0.,0.,-1.));
#790=DIRECTION('',(-1.19378819852149E-16,1.,0.));
#791=DIRECTION('',(0.,0.,-1.));
#792=DIRECTION('',(1.19378819852149E-16,-1.,4.44089209850063E-16));
#793=DIRECTION('',(0.,0.,1.));
#794=DIRECTION('',(-1.19378819852149E-16,1.,0.));
#795=DIRECTION('',(-1.19378819852149E-16,1.,3.41607084500048E-16));
#796=DIRECTION('',(0.,0.,-1.));
#797=DIRECTION('',(1.19378819852149E-16,-1.,-3.41607084500048E-16));
#798=DIRECTION('',(0.,0.,1.));
#799=DIRECTION('center_axis',(0.,-1.,0.));
#800=DIRECTION('ref_axis',(-1.,0.,0.));
#801=DIRECTION('',(0.,0.,-1.));
#802=DIRECTION('',(-1.,0.,0.));
#803=DIRECTION('center_axis',(-1.,-2.0891293474126E-16,0.));
#804=DIRECTION('ref_axis',(2.0891293474126E-16,-1.,0.));
#805=DIRECTION('',(0.,0.,-1.));
#806=DIRECTION('',(2.0891293474126E-16,-1.,0.));
#807=DIRECTION('',(0.,0.,-1.));
#808=DIRECTION('',(-2.0891293474126E-16,1.,-3.60822483003176E-16));
#809=DIRECTION('',(0.,0.,1.));
#810=DIRECTION('',(2.0891293474126E-16,-1.,0.));
#811=DIRECTION('',(0.,0.,1.));
#812=DIRECTION('',(2.0891293474126E-16,-1.,0.));
#813=DIRECTION('',(0.,0.,-1.));
#814=DIRECTION('',(1.38777878078145E-16,1.,0.));
#815=DIRECTION('center_axis',(0.,0.707106781186547,0.707106781186548));
#816=DIRECTION('ref_axis',(1.,0.,0.));
#817=DIRECTION('',(-1.,0.,0.));
#818=DIRECTION('',(0.577350269189625,-0.577350269189626,0.577350269189626));
#819=DIRECTION('',(1.,0.,0.));
#820=DIRECTION('',(0.577350269189626,0.577350269189626,-0.577350269189626));
#821=DIRECTION('center_axis',(-0.707106781186547,-1.47723752833128E-16,
0.707106781186548));
#822=DIRECTION('ref_axis',(0.707106781186548,0.,0.707106781186547));
#823=DIRECTION('center_axis',(-0.707106781186547,-1.47723752833128E-16,
0.707106781186548));
#824=DIRECTION('ref_axis',(-0.707106781186548,-1.96261557335472E-16,-0.707106781186547));
#825=DIRECTION('',(-2.0891293474126E-16,1.,0.));
#826=DIRECTION('center_axis',(0.707106781186548,8.44135730475016E-17,0.707106781186547));
#827=DIRECTION('ref_axis',(0.707106781186547,0.,-0.707106781186548));
#828=DIRECTION('',(1.19378819852149E-16,-1.,0.));
#829=DIRECTION('center_axis',(0.707106781186548,8.44135730475016E-17,0.707106781186547));
#830=DIRECTION('ref_axis',(0.707106781186547,1.47196168001604E-16,-0.707106781186548));
#831=DIRECTION('center_axis',(0.,1.,0.));
#832=DIRECTION('ref_axis',(1.,0.,0.));
#833=DIRECTION('',(1.,0.,0.));
#834=DIRECTION('center_axis',(0.,0.,1.));
#835=DIRECTION('ref_axis',(-0.707106781186547,-0.707106781186548,0.));
#836=DIRECTION('center_axis',(0.,0.,-1.));
#837=DIRECTION('ref_axis',(-0.707106781186547,-0.707106781186548,0.));
#838=DIRECTION('',(0.,0.,1.));
#839=DIRECTION('center_axis',(0.,0.,1.));
#840=DIRECTION('ref_axis',(1.,0.,0.));
#841=DIRECTION('',(1.,0.,0.));
#842=DIRECTION('center_axis',(0.,0.,-1.));
#843=DIRECTION('ref_axis',(0.707106781186548,-0.707106781186547,0.));
#844=DIRECTION('',(-1.,0.,0.));
#845=DIRECTION('',(0.,1.,0.));
#846=DIRECTION('',(1.,0.,0.));
#847=DIRECTION('center_axis',(0.,0.,-1.));
#848=DIRECTION('ref_axis',(0.707106781186548,0.707106781186548,0.));
#849=DIRECTION('',(-1.,0.,0.));
#850=DIRECTION('center_axis',(0.,0.,-1.));
#851=DIRECTION('ref_axis',(-0.707106781186548,0.707106781186547,0.));
#852=DIRECTION('',(1.,0.,0.));
#853=DIRECTION('',(0.,-1.,0.));
#854=DIRECTION('',(-1.,0.,0.));
#855=DIRECTION('',(-4.16333634234434E-16,1.,0.));
#856=DIRECTION('',(1.,0.,0.));
#857=DIRECTION('',(2.77555756156289E-16,-1.,0.));
#858=DIRECTION('',(-1.,0.,0.));
#859=DIRECTION('center_axis',(0.,0.,1.));
#860=DIRECTION('ref_axis',(0.707106781186548,-0.707106781186547,0.));
#861=DIRECTION('',(0.,0.,-1.));
#862=DIRECTION('center_axis',(0.,0.,-1.));
#863=DIRECTION('ref_axis',(-0.707106781186548,0.707106781186547,0.));
#864=DIRECTION('',(0.,0.,-1.));
#865=DIRECTION('center_axis',(0.,0.,1.));
#866=DIRECTION('ref_axis',(0.707106781186548,0.707106781186548,0.));
#867=DIRECTION('',(0.,0.,1.));
#868=DIRECTION('center_axis',(0.,1.,0.));
#869=DIRECTION('ref_axis',(-1.,0.,0.));
#870=DIRECTION('',(1.,0.,0.));
#871=DIRECTION('center_axis',(0.,0.,-1.));
#872=DIRECTION('ref_axis',(-1.,0.,0.));
#873=DIRECTION('',(-1.,0.,0.));
#874=DIRECTION('center_axis',(0.,0.,-1.));
#875=DIRECTION('ref_axis',(-1.,0.,0.));
#876=DIRECTION('center_axis',(0.,0.,-1.));
#877=DIRECTION('ref_axis',(-1.,0.,0.));
#878=DIRECTION('center_axis',(0.,1.,0.));
#879=DIRECTION('ref_axis',(0.,0.,1.));
#880=DIRECTION('',(1.,0.,0.));
#881=DIRECTION('',(0.,0.,1.));
#882=DIRECTION('center_axis',(0.,-3.60822483003176E-16,-1.));
#883=DIRECTION('ref_axis',(-2.0891293474126E-16,1.,-3.60822483003176E-16));
#884=DIRECTION('',(1.,0.,0.));
#885=DIRECTION('',(-2.0891293474126E-16,1.,-3.60822483003176E-16));
#886=DIRECTION('center_axis',(0.,-1.,0.));
#887=DIRECTION('ref_axis',(0.,0.,-1.));
#888=DIRECTION('',(0.,0.,-1.));
#889=DIRECTION('center_axis',(1.,0.,0.));
#890=DIRECTION('ref_axis',(0.,0.,-1.));
#891=DIRECTION('center_axis',(0.,-1.,0.));
#892=DIRECTION('ref_axis',(0.,0.,1.));
#893=DIRECTION('',(-1.,0.,0.));
#894=DIRECTION('',(0.,0.,1.));
#895=DIRECTION('center_axis',(0.,-4.44089209850063E-16,-1.));
#896=DIRECTION('ref_axis',(1.19378819852149E-16,-1.,4.44089209850063E-16));
#897=DIRECTION('',(-1.,0.,0.));
#898=DIRECTION('',(1.19378819852149E-16,-1.,4.44089209850063E-16));
#899=DIRECTION('center_axis',(0.,1.,0.));
#900=DIRECTION('ref_axis',(0.,0.,-1.));
#901=DIRECTION('',(0.,0.,-1.));
#902=DIRECTION('center_axis',(-1.,0.,0.));
#903=DIRECTION('ref_axis',(0.,0.,1.));
#904=DIRECTION('center_axis',(0.,-3.41607084500048E-16,1.));
#905=DIRECTION('ref_axis',(-1.19378819852149E-16,1.,3.41607084500048E-16));
#906=DIRECTION('',(-1.,0.,0.));
#907=DIRECTION('',(2.77555756156289E-16,-1.,-3.41607084500048E-16));
#908=DIRECTION('',(-1.,0.,0.));
#909=DIRECTION('center_axis',(0.,-1.,0.));
#910=DIRECTION('ref_axis',(0.,0.,1.));
#911=DIRECTION('',(-1.,0.,0.));
#912=DIRECTION('',(0.,0.,-1.));
#913=DIRECTION('center_axis',(0.,3.41607084500048E-16,-1.));
#914=DIRECTION('ref_axis',(1.19378819852149E-16,-1.,-3.41607084500048E-16));
#915=DIRECTION('',(-1.,0.,0.));
#916=DIRECTION('',(-2.77555756156289E-16,1.,3.41607084500048E-16));
#917=DIRECTION('center_axis',(0.,1.,0.));
#918=DIRECTION('ref_axis',(0.,0.,-1.));
#919=DIRECTION('',(0.,0.,1.));
#920=DIRECTION('center_axis',(0.,0.,-1.));
#921=DIRECTION('ref_axis',(-1.,0.,0.));
#922=DIRECTION('',(-1.,0.,0.));
#923=DIRECTION('',(2.77555756156289E-16,-1.,0.));
#924=DIRECTION('',(1.,0.,0.));
#925=DIRECTION('',(-4.16333634234434E-16,1.,0.));
#926=DIRECTION('center_axis',(0.,1.,0.));
#927=DIRECTION('ref_axis',(-1.,0.,0.));
#928=DIRECTION('',(0.,0.,1.));
#929=DIRECTION('',(0.,0.,1.));
#930=DIRECTION('center_axis',(-1.,-2.77555756156289E-16,0.));
#931=DIRECTION('ref_axis',(2.77555756156289E-16,-1.,0.));
#932=DIRECTION('',(0.,0.,1.));
#933=DIRECTION('center_axis',(0.,-1.,0.));
#934=DIRECTION('ref_axis',(1.,0.,0.));
#935=DIRECTION('',(0.,0.,1.));
#936=DIRECTION('center_axis',(1.,4.16333634234434E-16,0.));
#937=DIRECTION('ref_axis',(-4.16333634234434E-16,1.,0.));
#938=DIRECTION('center_axis',(0.,-1.,0.));
#939=DIRECTION('ref_axis',(1.,0.,0.));
#940=CARTESIAN_POINT('',(0.,0.,0.));
#941=CARTESIAN_POINT('Origin',(13.4999999999854,3.34999999997745,-4.));
#942=CARTESIAN_POINT('',(14.4999999999854,-12.0000000000218,-5.));
#943=CARTESIAN_POINT('',(14.4999999999854,0.699999999976719,-5.));
#944=CARTESIAN_POINT('',(14.4999999999854,3.34999999997745,-5.));
#945=CARTESIAN_POINT('',(12.4999999999854,-1.30000000002328,-3.));
#946=CARTESIAN_POINT('Origin',(12.4999999999854,0.699999999976719,-3.));
#947=CARTESIAN_POINT('',(12.4999999999854,-10.0000000000218,-3.));
#948=CARTESIAN_POINT('',(12.4999999999854,3.34999999997745,-3.));
#949=CARTESIAN_POINT('',(12.4999999999854,-10.0000000000218,-3.));
#950=CARTESIAN_POINT('Origin',(10.5499999999833,-11.0000000000218,-4.));
#951=CARTESIAN_POINT('',(0.699999999976718,-10.0000000000218,-3.));
#952=CARTESIAN_POINT('',(10.5499999999833,-10.0000000000218,-3.));
#953=CARTESIAN_POINT('',(-1.30000000002328,-12.0000000000218,-5.));
#954=CARTESIAN_POINT('',(0.699999999976718,-10.0000000000218,-3.));
#955=CARTESIAN_POINT('',(10.5499999999833,-12.0000000000218,-5.));
#956=CARTESIAN_POINT('Origin',(-0.300000000023284,12.6499999999789,-4.));
#957=CARTESIAN_POINT('',(0.699999999976719,-1.30000000002328,-3.));
#958=CARTESIAN_POINT('',(0.699999999976714,12.6499999999789,-3.));
#959=CARTESIAN_POINT('',(-1.30000000002328,0.699999999976719,-5.));
#960=CARTESIAN_POINT('Origin',(0.69999999997672,0.699999999976719,-3.));
#961=CARTESIAN_POINT('',(-1.30000000002328,12.6499999999789,-5.));
#962=CARTESIAN_POINT('Origin',(14.4999999999854,-1.30000000002328,0.));
#963=CARTESIAN_POINT('',(14.4999999999854,0.699999999976719,30.));
#964=CARTESIAN_POINT('',(14.4999999999854,0.699999999976719,0.));
#965=CARTESIAN_POINT('',(14.4999999999854,-12.0000000000218,-8.));
#966=CARTESIAN_POINT('',(14.4999999999854,-12.0000000000218,-3.));
#967=CARTESIAN_POINT('',(14.4999999999854,27.9999999999782,-8.));
#968=CARTESIAN_POINT('',(14.4999999999854,27.9999999999782,-8.));
#969=CARTESIAN_POINT('',(14.4999999999854,27.9999999999782,-5.));
#970=CARTESIAN_POINT('',(14.4999999999854,27.9999999999782,-3.));
#971=CARTESIAN_POINT('',(14.4999999999854,15.2999999999796,-5.));
#972=CARTESIAN_POINT('',(14.4999999999854,3.34999999997745,-5.));
#973=CARTESIAN_POINT('',(14.4999999999854,15.2999999999796,30.));
#974=CARTESIAN_POINT('',(14.4999999999854,15.2999999999796,0.));
#975=CARTESIAN_POINT('',(14.4999999999854,12.9999999999796,30.));
#976=CARTESIAN_POINT('',(14.4999999999854,-1.30000000002328,30.));
#977=CARTESIAN_POINT('',(14.4999999999854,12.9999999999796,28.5));
#978=CARTESIAN_POINT('',(14.4999999999854,12.9999999999796,15.));
#979=CARTESIAN_POINT('',(14.4999999999854,2.99999999997963,28.5));
#980=CARTESIAN_POINT('',(14.4999999999854,5.84999999997818,28.5));
#981=CARTESIAN_POINT('',(14.4999999999854,2.99999999997963,30.));
#982=CARTESIAN_POINT('',(14.4999999999854,2.99999999997963,14.25));
#983=CARTESIAN_POINT('',(14.4999999999854,-1.30000000002328,30.));
#984=CARTESIAN_POINT('',(14.4999999999854,1.49999999997672,6.5));
#985=CARTESIAN_POINT('',(14.4999999999854,14.4999999999767,6.5));
#986=CARTESIAN_POINT('',(14.4999999999854,0.099999999976717,6.5));
#987=CARTESIAN_POINT('',(14.4999999999854,14.4999999999767,1.5));
#988=CARTESIAN_POINT('',(14.4999999999854,14.4999999999767,3.25));
#989=CARTESIAN_POINT('',(14.4999999999854,1.49999999997672,1.5));
#990=CARTESIAN_POINT('',(14.4999999999854,6.59999999997672,1.5));
#991=CARTESIAN_POINT('',(14.4999999999854,1.49999999997672,0.75));
#992=CARTESIAN_POINT('Origin',(14.4999999999854,-12.0000000000218,-3.));
#993=CARTESIAN_POINT('',(-1.30000000002328,-12.0000000000218,-8.));
#994=CARTESIAN_POINT('',(-1.30000000002328,-12.0000000000218,-3.));
#995=CARTESIAN_POINT('',(14.4999999999854,-12.0000000000218,-8.));
#996=CARTESIAN_POINT('Origin',(-1.30000000002328,17.2999999999796,0.));
#997=CARTESIAN_POINT('',(-1.30000000002328,0.699999999976719,30.));
#998=CARTESIAN_POINT('',(-1.30000000002328,0.699999999976719,0.));
#999=CARTESIAN_POINT('',(-1.30000000002328,2.99999999997962,30.));
#1000=CARTESIAN_POINT('',(-1.30000000002328,17.2999999999796,30.));
#1001=CARTESIAN_POINT('',(-1.30000000002328,2.99999999997962,28.5));
#1002=CARTESIAN_POINT('',(-1.30000000002328,2.99999999997962,15.));
#1003=CARTESIAN_POINT('',(-1.30000000002328,12.9999999999796,28.5));
#1004=CARTESIAN_POINT('',(-1.30000000002328,10.1499999999796,28.5));
#1005=CARTESIAN_POINT('',(-1.30000000002328,12.9999999999796,30.));
#1006=CARTESIAN_POINT('',(-1.30000000002328,12.9999999999796,14.25));
#1007=CARTESIAN_POINT('',(-1.30000000002328,15.2999999999796,30.));
#1008=CARTESIAN_POINT('',(-1.30000000002328,17.2999999999796,30.));
#1009=CARTESIAN_POINT('',(-1.30000000002328,15.2999999999796,-5.));
#1010=CARTESIAN_POINT('',(-1.30000000002328,15.2999999999796,0.));
#1011=CARTESIAN_POINT('',(-1.30000000002328,27.9999999999782,-5.));
#1012=CARTESIAN_POINT('',(-1.30000000002328,12.6499999999789,-5.));
#1013=CARTESIAN_POINT('',(-1.30000000002328,27.9999999999782,-8.));
#1014=CARTESIAN_POINT('',(-1.30000000002328,27.9999999999782,-3.));
#1015=CARTESIAN_POINT('',(-1.30000000002328,-12.0000000000218,-8.));
#1016=CARTESIAN_POINT('Origin',(2.6499999999789,26.9999999999782,-4.));
#1017=CARTESIAN_POINT('',(2.6499999999789,27.9999999999782,-5.));
#1018=CARTESIAN_POINT('',(0.69999999997672,25.9999999999782,-3.));
#1019=CARTESIAN_POINT('',(-1.30000000002328,27.9999999999782,-5.));
#1020=CARTESIAN_POINT('',(12.4999999999854,25.9999999999782,-3.));
#1021=CARTESIAN_POINT('',(2.6499999999789,25.9999999999782,-3.));
#1022=CARTESIAN_POINT('',(12.4999999999854,25.9999999999782,-3.));
#1023=CARTESIAN_POINT('Origin',(-0.30000000002328,12.6499999999789,-4.));
#1024=CARTESIAN_POINT('',(0.699999999976717,17.2999999999796,-3.));
#1025=CARTESIAN_POINT('Origin',(0.699999999976717,15.2999999999796,-3.));
#1026=CARTESIAN_POINT('',(0.699999999976723,12.6499999999789,-3.));
#1027=CARTESIAN_POINT('Origin',(13.4999999999854,3.34999999997745,-4.));
#1028=CARTESIAN_POINT('',(12.4999999999854,17.2999999999796,-3.));
#1029=CARTESIAN_POINT('',(12.4999999999854,3.34999999997745,-3.));
#1030=CARTESIAN_POINT('Origin',(12.4999999999854,15.2999999999796,-3.));
#1031=CARTESIAN_POINT('Origin',(-1.30000000002328,27.9999999999782,-3.));
#1032=CARTESIAN_POINT('',(-1.30000000002328,27.9999999999782,-8.));
#1033=CARTESIAN_POINT('Origin',(0.69999999997672,0.699999999976719,0.));
#1034=CARTESIAN_POINT('',(0.69999999997672,-1.30000000002328,30.));
#1035=CARTESIAN_POINT('Origin',(0.69999999997672,0.699999999976719,30.));
#1036=CARTESIAN_POINT('',(0.69999999997672,-1.30000000002328,0.));
#1037=CARTESIAN_POINT('Origin',(6.59999999998108,7.99999999997817,30.));
#1038=CARTESIAN_POINT('',(12.4999999999854,-1.30000000002328,30.));
#1039=CARTESIAN_POINT('',(-1.30000000002328,-1.30000000002328,30.));
#1040=CARTESIAN_POINT('Origin',(12.4999999999854,0.699999999976719,30.));
#1041=CARTESIAN_POINT('',(13.6999999999854,2.99999999997963,30.));
#1042=CARTESIAN_POINT('',(10.5499999999833,2.99999999997963,30.));
#1043=CARTESIAN_POINT('',(13.6999999999854,12.9999999999796,30.));
#1044=CARTESIAN_POINT('',(13.6999999999854,7.9999999999789,30.));
#1045=CARTESIAN_POINT('',(10.5499999999833,12.9999999999796,30.));
#1046=CARTESIAN_POINT('',(12.4999999999854,17.2999999999796,30.));
#1047=CARTESIAN_POINT('Origin',(12.4999999999854,15.2999999999796,30.));
#1048=CARTESIAN_POINT('',(0.699999999976717,17.2999999999796,30.));
#1049=CARTESIAN_POINT('',(14.4999999999854,17.2999999999796,30.));
#1050=CARTESIAN_POINT('Origin',(0.699999999976717,15.2999999999796,30.));
#1051=CARTESIAN_POINT('',(-0.500000000023282,12.9999999999796,30.));
#1052=CARTESIAN_POINT('',(2.6499999999789,12.9999999999796,30.));
#1053=CARTESIAN_POINT('',(-0.50000000002328,2.99999999997962,30.));
#1054=CARTESIAN_POINT('',(-0.500000000023281,7.9999999999789,30.));
#1055=CARTESIAN_POINT('',(2.6499999999789,2.99999999997962,30.));
#1056=CARTESIAN_POINT('',(0.,0.,30.));
#1057=CARTESIAN_POINT('',(-6.66133814775094E-15,16.,30.));
#1058=CARTESIAN_POINT('',(0.,0.,30.));
#1059=CARTESIAN_POINT('',(13.2,16.,30.));
#1060=CARTESIAN_POINT('',(-6.66133814775094E-15,16.,30.));
#1061=CARTESIAN_POINT('',(13.2,0.,30.));
#1062=CARTESIAN_POINT('',(13.2,16.,30.));
#1063=CARTESIAN_POINT('',(13.2,0.,30.));
#1064=CARTESIAN_POINT('Origin',(12.4999999999854,0.699999999976719,0.));
#1065=CARTESIAN_POINT('',(12.4999999999854,-1.30000000002328,0.));
#1066=CARTESIAN_POINT('Origin',(0.699999999976717,15.2999999999796,0.));
#1067=CARTESIAN_POINT('',(0.699999999976717,17.2999999999796,0.));
#1068=CARTESIAN_POINT('Origin',(12.4999999999854,15.2999999999796,0.));
#1069=CARTESIAN_POINT('',(12.4999999999854,17.2999999999796,0.));
#1070=CARTESIAN_POINT('Origin',(14.4999999999854,17.2999999999796,0.));
#1071=CARTESIAN_POINT('',(-1.30000000002328,17.2999999999796,-3.));
#1072=CARTESIAN_POINT('Origin',(6.59999999998108,7.99999999997817,-3.));
#1073=CARTESIAN_POINT('',(14.4999999999854,-1.30000000002328,-3.));
#1074=CARTESIAN_POINT('Origin',(6.59999999998108,7.99999999997817,-3.));
#1075=CARTESIAN_POINT('Origin',(6.59999999998108,7.99999999997817,-8.));
#1076=CARTESIAN_POINT('Origin',(-1.30000000002328,12.9999999999796,28.5));
#1077=CARTESIAN_POINT('',(-0.500000000023282,12.9999999999796,28.5));
#1078=CARTESIAN_POINT('',(-1.30000000002328,12.9999999999796,28.5));
#1079=CARTESIAN_POINT('',(-0.500000000023282,12.9999999999796,30.));
#1080=CARTESIAN_POINT('Origin',(-1.30000000002328,2.99999999997963,28.5));
#1081=CARTESIAN_POINT('',(-0.50000000002328,2.99999999997962,28.5));
#1082=CARTESIAN_POINT('',(-1.30000000002328,2.99999999997962,28.5));
#1083=CARTESIAN_POINT('',(-0.500000000023282,12.9999999999796,28.5));
#1084=CARTESIAN_POINT('Origin',(-1.30000000002328,2.99999999997962,30.));
#1085=CARTESIAN_POINT('',(-0.50000000002328,2.99999999997962,28.5));
#1086=CARTESIAN_POINT('Origin',(-0.50000000002328,7.99999999997963,29.25));
#1087=CARTESIAN_POINT('Origin',(14.4999999999854,2.99999999997963,28.5));
#1088=CARTESIAN_POINT('',(13.6999999999854,2.99999999997963,28.5));
#1089=CARTESIAN_POINT('',(14.4999999999854,2.99999999997963,28.5));
#1090=CARTESIAN_POINT('',(13.6999999999854,2.99999999997963,30.));
#1091=CARTESIAN_POINT('Origin',(14.4999999999854,12.9999999999796,28.5));
#1092=CARTESIAN_POINT('',(13.6999999999854,12.9999999999796,28.5));
#1093=CARTESIAN_POINT('',(14.4999999999854,12.9999999999796,28.5));
#1094=CARTESIAN_POINT('',(13.6999999999854,2.99999999997963,28.5));
#1095=CARTESIAN_POINT('Origin',(14.4999999999854,12.9999999999796,30.));
#1096=CARTESIAN_POINT('',(13.6999999999854,12.9999999999796,28.5));
#1097=CARTESIAN_POINT('Origin',(13.6999999999854,7.99999999997963,29.25));
#1098=CARTESIAN_POINT('Origin',(14.4999999999854,1.49999999997672,6.5));
#1099=CARTESIAN_POINT('',(13.1999999999854,1.49999999997672,6.5));
#1100=CARTESIAN_POINT('',(14.4999999999854,1.49999999997672,6.5));
#1101=CARTESIAN_POINT('',(13.1999999999854,14.4999999999767,6.5));
#1102=CARTESIAN_POINT('',(13.2,8.74999999998836,6.5));
#1103=CARTESIAN_POINT('',(14.4999999999854,14.4999999999767,6.5));
#1104=CARTESIAN_POINT('Origin',(14.4999999999854,1.49999999997672,1.5));
#1105=CARTESIAN_POINT('',(13.1999999999854,1.49999999997672,1.5));
#1106=CARTESIAN_POINT('',(14.4999999999854,1.49999999997672,1.5));
#1107=CARTESIAN_POINT('',(13.2,1.49999999997672,0.75));
#1108=CARTESIAN_POINT('Origin',(14.4999999999854,14.4999999999767,1.5));
#1109=CARTESIAN_POINT('',(13.1999999999854,14.4999999999767,1.5));
#1110=CARTESIAN_POINT('',(14.4999999999854,14.4999999999767,1.5));
#1111=CARTESIAN_POINT('',(13.2,15.2499999999884,1.5));
#1112=CARTESIAN_POINT('Origin',(14.4999999999854,14.4999999999767,6.5));
#1113=CARTESIAN_POINT('',(13.2,14.4999999999767,3.25));
#1114=CARTESIAN_POINT('Origin',(6.59999999998108,7.99999999997817,0.));
#1115=CARTESIAN_POINT('',(13.2,0.,0.));
#1116=CARTESIAN_POINT('',(0.,0.,0.));
#1117=CARTESIAN_POINT('',(13.2,0.,0.));
#1118=CARTESIAN_POINT('',(13.2,16.,0.));
#1119=CARTESIAN_POINT('',(13.2,16.,0.));
#1120=CARTESIAN_POINT('',(-6.66133814775094E-15,16.,0.));
#1121=CARTESIAN_POINT('',(-6.66133814775094E-15,16.,0.));
#1122=CARTESIAN_POINT('',(0.,0.,0.));
#1123=CARTESIAN_POINT('Origin',(13.2,0.,0.));
#1124=CARTESIAN_POINT('',(0.,0.,0.));
#1125=CARTESIAN_POINT('',(13.2,0.,0.));
#1126=CARTESIAN_POINT('Origin',(13.2,16.,0.));
#1127=CARTESIAN_POINT('',(13.2,16.,0.));
#1128=CARTESIAN_POINT('Origin',(-6.66133814775094E-15,16.,0.));
#1129=CARTESIAN_POINT('',(-6.66133814775094E-15,16.,0.));
#1130=CARTESIAN_POINT('Origin',(0.,0.,0.));
#1131=CARTESIAN_POINT('Origin',(-1.30000000002328,-1.30000000002328,0.));
#1132=CARTESIAN_POINT('',(0.,0.,0.));
#1133=UNCERTAINTY_MEASURE_WITH_UNIT(LENGTH_MEASURE(0.01),#1137,
'DISTANCE_ACCURACY_VALUE',
'Maximum model space distance between geometric entities at asserted c
onnectivities');
#1134=UNCERTAINTY_MEASURE_WITH_UNIT(LENGTH_MEASURE(0.01),#1137,
'DISTANCE_ACCURACY_VALUE',
'Maximum model space distance between geometric entities at asserted c
onnectivities');
#1135=(
GEOMETRIC_REPRESENTATION_CONTEXT(3)
GLOBAL_UNCERTAINTY_ASSIGNED_CONTEXT((#1133))
GLOBAL_UNIT_ASSIGNED_CONTEXT((#1137,#1139,#1140))
REPRESENTATION_CONTEXT('','3D')
);
#1136=(
GEOMETRIC_REPRESENTATION_CONTEXT(3)
GLOBAL_UNCERTAINTY_ASSIGNED_CONTEXT((#1134))
GLOBAL_UNIT_ASSIGNED_CONTEXT((#1137,#1139,#1140))
REPRESENTATION_CONTEXT('','3D')
);
#1137=(
LENGTH_UNIT()
NAMED_UNIT(*)
SI_UNIT(.MILLI.,.METRE.)
);
#1138=(
LENGTH_UNIT()
NAMED_UNIT(*)
SI_UNIT(.CENTI.,.METRE.)
);
#1139=(
NAMED_UNIT(*)
PLANE_ANGLE_UNIT()
SI_UNIT($,.RADIAN.)
);
#1140=(
NAMED_UNIT(*)
SI_UNIT($,.STERADIAN.)
SOLID_ANGLE_UNIT()
);
#1141=SHAPE_DEFINITION_REPRESENTATION(#1142,#1143);
#1142=PRODUCT_DEFINITION_SHAPE('',$,#1145);
#1143=SHAPE_REPRESENTATION('',(#716),#1135);
#1144=PRODUCT_DEFINITION_CONTEXT('part definition',#1149,'design');
#1145=PRODUCT_DEFINITION('VL53L0X_case','VL53L0X_case',#1146,#1144);
#1146=PRODUCT_DEFINITION_FORMATION('',$,#1151);
#1147=PRODUCT_RELATED_PRODUCT_CATEGORY('VL53L0X_case','VL53L0X_case',(#1151));
#1148=APPLICATION_PROTOCOL_DEFINITION('international standard',
'automotive_design',2009,#1149);
#1149=APPLICATION_CONTEXT(
'Core Data for Automotive Mechanical Design Process');
#1150=PRODUCT_CONTEXT('part definition',#1149,'mechanical');
#1151=PRODUCT('VL53L0X_case','VL53L0X_case',$,(#1150));
#1152=PRESENTATION_STYLE_ASSIGNMENT((#1154));
#1153=PRESENTATION_STYLE_ASSIGNMENT((#1155));
#1154=SURFACE_STYLE_USAGE(.BOTH.,#1158);
#1155=SURFACE_STYLE_USAGE(.BOTH.,#1159);
#1156=SURFACE_STYLE_RENDERING_WITH_PROPERTIES($,#1166,(#1157));
#1157=SURFACE_STYLE_TRANSPARENT(0.);
#1158=SURFACE_SIDE_STYLE('',(#1160,#1156));
#1159=SURFACE_SIDE_STYLE('',(#1161));
#1160=SURFACE_STYLE_FILL_AREA(#1162);
#1161=SURFACE_STYLE_FILL_AREA(#1163);
#1162=FILL_AREA_STYLE('',(#1164));
#1163=FILL_AREA_STYLE('',(#1165));
#1164=FILL_AREA_STYLE_COLOUR('',#1166);
#1165=FILL_AREA_STYLE_COLOUR('',#1167);
#1166=COLOUR_RGB('',0.749019607843137,0.749019607843137,0.749019607843137);
#1167=COLOUR_RGB('',1.,1.,0.);
ENDSEC;
END-ISO-10303-21;
